{
.appVersion = "3246";
.formatVersion = 3;
axes = (
{
name = Weight;
tag = wght;
}
);
classes = (
{
code = "a aacute abreve acircumflex adieresis adotbelow agrave ahook amacron aogonek aring aringacute atilde abreveacute abrevedotbelow abrevegrave abrevehook abrevetilde acircumflexacute acircumflexdotbelow acircumflexgrave acircumflexhook acircumflextilde";
name = lca_dflt;
},
{
code = "a.alt01 aacute.alt01 abreve.alt01 acircumflex.alt01 adieresis.alt01 adotbelow.alt01 agrave.alt01 ahook.alt01 amacron.alt01 aogonek.alt01 aring.alt01 aringacute.alt01 atilde.alt01 abreveacute.alt01 abrevedotbelow.alt01 abrevegrave.alt01 abrevehook.alt01 abrevetilde.alt01 acircumflexacute.alt01 acircumflexdotbelow.alt01 acircumflexgrave.alt01 acircumflexhook.alt01 acircumflextilde.alt01";
name = lca_alt1;
},
{
code = "uni0430 uni04D3 uni04D1";
name = lca_cyrl_dflt;
},
{
code = "uni0430.alt01 uni04D3.alt01 uni04D1.alt01";
name = lca_cyrl_alt1;
},
{
code = "g gbreve gcircumflex gcommaaccent gdotaccent";
name = lcg_dflt;
},
{
code = "g.alt01 gbreve.alt01 gcircumflex.alt01 gcommaaccent.alt01 gdotaccent.alt01";
name = lcg_alt1;
},
{
code = "zero one two three four five six seven eight nine";
name = numbers_dflt;
},
{
code = "zerosuperior onesuperior twosuperior threesuperior foursuperior fivesuperior sixsuperior sevensuperior eightsuperior ninesuperior";
name = numbers_sups;
},
{
code = "zeroinferior oneinferior twoinferior threeinferior fourinferior fiveinferior sixinferior seveninferior eightinferior nineinferior";
name = numbers_sinf;
},
{
code = "zero.numr one.numr two.numr three.numr four.numr five.numr six.numr seven.numr eight.numr nine.numr";
name = numbers_numr;
},
{
code = "zero.dnom one.dnom two.dnom three.dnom four.dnom five.dnom six.dnom seven.dnom eight.dnom nine.dnom";
name = numbers_dnom;
}
);
date = "2021-02-10 03:02:16 +0000";
familyName = "index Italic";
featurePrefixes = (
{
code = "languagesystem DFLT dflt;   # Default
languagesystem latn dflt;   # Latin default

glyphs = (
{
glyphname = A;
lastChange = "2022-01-21 13:11:03 +0000";
layers = (
{
anchors = (
{
name = bottom;
pos = (735,0);
},
{
name = bottomright;
pos = (1554,0);
},
{
name = top;
pos = (1042,1966);
}
);
layerId = "586BE664-8D6A-4867-BE1B-390608DE01EA";
shapes = (
{
closed = 1;
nodes = (
(1340,1966,l),
(760,1966,l),
(-104,0,l),
(332,0,l),
(527,476,l),
(1079,476,l),
(1126,0,l),
(1554,0,l,{
name = hr00;
})
);
},
{
closed = 1;
nodes = (
(667,814,l),
(977,1557,l),
(1002,1557,l),
(1062,814,l)
);
}
);
width = 1690;
},
{
anchors = (
{
name = bottom;
pos = (743,0);
},
{
name = bottomright;
pos = (1487,0);
},
{
name = top;
pos = (1053,1966);
}
);
layerId = "9AAD14F8-FE06-4230-ACE0-3E9D6F8A5A9E";
shapes = (
{
closed = 1;
nodes = (
(1214,1966,l),
(904,1966,l),
(-25,0,l),
(222,0,l),
(482,560,l),
(1174,560,l),
(1245,0,l),
(1487,0,l,{
name = hr00;
})
);
},
{
closed = 1;
nodes = (
(569,766,l),
(1005,1729,l),
(1031,1729,l),
(1152,766,l)
);
}
);
width = 1690;
},
{
anchors = (
{
name = bottom;
pos = (724,0);
},
{
name = bottomright;
pos = (1422,0);
},
{
name = top;
pos = (1053,1966);
}
);
layerId = "B042A474-670A-4404-9662-903C467C1F9E";
shapes = (
{
closed = 1;
nodes = (
(1093,1966,l),
(1008,1966,l),
(25,0,l),
(93,0,l),
(422,659,l),
(1250,659,l),
(1360,0,l),
(1422,0,l,{
name = hr00;
})
);
},
{
closed = 1;
nodes = (
(448,712,l),
(1036,1895,l),
(1045,1895,l),
(1242,712,l)
);
}
);
width = 1690;
}
);
unicode = 65;
},
{
glyphname = Aogonek;
lastChange = "2022-01-21 13:11:03 +0000";
layers = (
{
layerId = "586BE664-8D6A-4867-BE1B-390608DE01EA";
shapes = (
{
closed = 1;
nodes = (
(332,0,l),
(527,476,l),
(1079,476,l),
(1126,0,l),
(1340,0,l),
(1343,-11,l),
(1064,-84,o),
(949,-220,o),
(949,-358,cs),
(949,-513,o),
(1093,-597,o),
(1293,-597,cs),
(1453,-597,o),
(1563,-535,o),
(1633,-445,c),
(1481,-318,l),
(1442,-377,o),
(1388,-394,o),
(1332,-394,cs),
(1259,-394,o),
(1228,-358,o),
(1228,-310,cs),
(1228,-253,o),
(1259,-177,o),
(1554,0,c),
(1340,1966,l),
(760,1966,l),
(-104,0,l,{
name = hr00;
})
);
},
{
closed = 1;
nodes = (
(667,814,l),
(977,1557,l),
(1002,1557,l),
(1062,814,l)
);
}
);
width = 1690;
},
{
layerId = "9AAD14F8-FE06-4230-ACE0-3E9D6F8A5A9E";
shapes = (
{
closed = 1;
nodes = (
(222,0,l),
(482,560,l),
(1174,560,l),
(1245,0,l),
(1309,0,l),
(1309,-14,l),
(1098,-113,o),
(955,-217,o),
(955,-372,cs),
(955,-524,o),
(1087,-583,o),
(1231,-583,cs),
(1363,-583,o),
(1456,-532,o),
(1507,-479,c),
(1400,-358,l),
(1346,-406,o),
(1290,-431,o),
(1242,-431,cs),
(1191,-431,o),
(1146,-406,o),
(1146,-344,cs),
(1146,-284,o),
(1186,-197,o),
(1487,0,c),
(1214,1966,l),
(904,1966,l),
(-25,0,l,{
name = hr00;
})
);
},
{
closed = 1;
nodes = (
(569,766,l),
(1005,1729,l),
(1031,1729,l),
(1152,766,l)
);
}
);
width = 1690;
},
{
layerId = "B042A474-670A-4404-9662-903C467C1F9E";
shapes = (
{
closed = 1;
nodes = (
(93,0,l),
(422,659,l),
(1250,659,l),
(1349,73,l),
(1354,39,l),
(1360,3,l),
(1022,-163,o),
(957,-282,o),
(957,-386,cs),
(957,-513,o),
(1050,-569,o),
(1166,-569,cs),
(1262,-569,o),
(1340,-529,o),
(1383,-479,c),
(1346,-448,l),
(1312,-482,o),
(1256,-518,o),
(1166,-518,cs),
(1084,-518,o),
(1017,-476,o),
(1017,-386,cs),
(1017,-242,o),
(1138,-163,o),
(1422,0,c),
(1093,1966,l),
(1008,1966,l),
(25,0,l,{
name = hr00;
})
);
},
{
closed = 1;
nodes = (
(448,712,l),
(1036,1895,l),
(1045,1895,l),
(1242,712,l)
);
}
);
width = 1690;
}
);
unicode = 260;
},
{
glyphname = AE;
lastChange = "2022-01-21 13:11:03 +0000";
layers = (
{
anchors = (
{
name = top;
pos = (1278,1966);
}
);
layerId = "586BE664-8D6A-4867-BE1B-390608DE01EA";
shapes = (
{
closed = 1;
nodes = (
(1608,0,l),
(1659,310,l),
(1222,310,l),
(1312,839,l),
(1721,839,l),
(1771,1149,l),
(1363,1149,l),
(1447,1656,l),
(1887,1656,l),
(1937,1966,l),
(769,1966,l),
(-8,0,l),
(397,0,l),
(574,476,l),
(867,476,l),
(788,0,l,{
name = hr00;
})
);
},
{
closed = 1;
nodes = (
(921,786,l),
(684,786,l),
(1005,1676,l),
(1070,1676,l)
);
}
);
width = 1690;
},
{
anchors = (
{
name = top;
pos = (1180,1966);
}
);
layerId = "9AAD14F8-FE06-4230-ACE0-3E9D6F8A5A9E";
shapes = (
{
closed = 1;
nodes = (
(1442,0,l),
(1473,194,l),
(1002,194,l),
(1118,898,l),
(1557,898,l),
(1588,1093,l),
(1149,1093,l),
(1262,1771,l),
(1735,1771,l),
(1766,1966,l),
(836,1966,l),
(-65,0,l),
(175,0,l),
(425,566,l),
(842,566,l),
(749,0,l,{
name = hr00;
})
);
},
{
closed = 1;
nodes = (
(876,760,l),
(510,760,l),
(969,1797,l),
(1048,1797,l)
);
}
);
width = 1690;
},
{
anchors = (
{
name = top;
pos = (1138,1966);
}
);
layerId = "B042A474-670A-4404-9662-903C467C1F9E";
shapes = (
{
closed = 1;
nodes = (
(1411,0,l),
(1419,56,l),
(853,56,l),
(1005,969,l),
(1532,969,l),
(1543,1025,l),
(1017,1025,l),
(1163,1909,l),
(1729,1909,l),
(1737,1966,l),
(926,1966,l),
(-28,0,l),
(39,0,l),
(358,659,l),
(893,659,l),
(783,0,l,{
name = hr00;
})
);
},
{
closed = 1;
nodes = (
(901,712,l),
(383,712,l),
(963,1909,l),
(1101,1909,l)
);
}
);
width = 1690;
}
);
unicode = 198;
},
{
glyphname = B;
lastChange = "2022-01-21 13:11:03 +0000";
layers = (
{
anchors = (
{
name = bottom;
pos = (732,0);
},
{
name = top;
pos = (1028,1966);
}
);
layerId = "586BE664-8D6A-4867-BE1B-390608DE01EA";
shapes = (
{
closed = 1;
nodes = (
(859,0,ls),
(1276,0,o),
(1532,242,o),
(1532,611,cs),
(1532,819,o),
(1416,946,o),
(1211,986,c),
(1214,1000,l),
(1487,1067,o),
(1622,1242,o),
(1622,1512,cs,{
name = hr01;
}),
(1622,1785,o),
(1436,1966,o),
(1095,1966,cs),
(428,1966,l),
(99,0,l)
);
},
{
closed = 1;
nodes = (
(648,853,l),
(879,853,ls),
(1048,853,o),
(1118,800,o),
(1118,670,cs,{
name = hr02;
}),
(1118,648,o),
(1110,605,o),
(1104,572,cs),
(1093,504,ls),
(1067,352,o),
(955,293,o),
(769,293,cs),
(555,293,l)
);
},
{
closed = 1;
nodes = (
(786,1673,l),
(966,1673,ls),
(1115,1673,o),
(1200,1628,o),
(1200,1501,cs,{
name = hr03;
}),
(1200,1476,o),
(1194,1431,o),
(1191,1414,cs),
(1180,1346,ls),
(1152,1177,o),
(1053,1132,o),
(856,1132,cs),
(696,1132,l)
);
}
);
width = 1690;
},
{
anchors = (
{
name = bottom;
pos = (749,0);
},
{
name = top;
pos = (1014,1966);
}
);
layerId = "9AAD14F8-FE06-4230-ACE0-3E9D6F8A5A9E";
shapes = (
{
closed = 1;
nodes = (
(881,0,ls),
(1245,0,o),
(1495,298,o),
(1495,625,cs),
(1495,859,o),
(1366,966,o),
(1191,1019,c),
(1194,1031,l),
(1411,1090,o),
(1566,1253,o),
(1566,1512,cs,{
name = hr01;
}),
(1566,1788,o),
(1400,1966,o),
(1093,1966,cs),
(459,1966,l),
(130,0,l)
);
},
{
closed = 1;
nodes = (
(513,921,l),
(952,921,ls),
(1146,921,o),
(1259,834,o),
(1259,690,cs,{
name = hr02;
}),
(1259,653,o),
(1253,620,o),
(1247,586,cs),
(1233,501,ls),
(1200,298,o),
(1059,203,o),
(834,203,cs),
(391,203,l)
);
},
{
closed = 1;
nodes = (
(650,1763,l),
(1053,1763,ls),
(1222,1763,o),
(1329,1701,o),
(1329,1552,cs,{
name = hr03;
}),
(1329,1523,o),
(1326,1495,o),
(1321,1462,cs),
(1307,1377,ls),
(1278,1208,o),
(1157,1112,o),
(946,1112,cs),
(543,1112,l)
);
}
);
width = 1690;
},
{
anchors = (
{
name = bottom;
pos = (704,0);
},
{
name = top;
pos = (974,1966);
}
);
layerId = "B042A474-670A-4404-9662-903C467C1F9E";
shapes = (
{
closed = 1;
nodes = (
(862,0,ls),
(1228,0,o),
(1433,211,o),
(1433,608,cs),
(1433,805,o),
(1338,957,o),
(1146,997,c),
(1146,1005,l),
(1397,1070,o),
(1501,1290,o),
(1501,1546,cs),
(1501,1819,o),
(1346,1966,o),
(1067,1966,cs),
(493,1966,l),
(166,0,l,{
name = hr00;
})
);
},
{
closed = 1;
nodes = (
(389,969,l),
(1005,969,ls),
(1262,969,o),
(1371,805,o),
(1371,608,cs),
(1371,580,o),
(1371,558,o),
(1366,524,cs),
(1349,420,ls),
(1315,211,o),
(1149,56,o),
(862,56,cs),
(237,56,l)
);
},
{
closed = 1;
nodes = (
(546,1909,l),
(1067,1909,ls),
(1332,1909,o),
(1439,1763,o),
(1439,1563,cs),
(1439,1538,o),
(1439,1523,o),
(1433,1484,cs),
(1419,1394,ls),
(1388,1188,o),
(1236,1025,o),
(972,1025,cs),
(400,1025,l)
);
}
);
width = 1690;
}
);
unicode = 66;
},
{
glyphname = C;
lastChange = "2022-01-21 13:11:03 +0000";
layers = (
{
anchors = (
{
name = bottom;
pos = (825,0);
},
{
name = top;
pos = (1050,1966);
}
);
layerId = "586BE664-8D6A-4867-BE1B-390608DE01EA";
shapes = (
{
closed = 1;
nodes = (
(1197,-34,o),
(1419,163,o),
(1574,532,c),
(1217,639,l),
(1140,453,o),
(1025,304,o),
(845,304,cs),
(639,304,o),
(560,425,o),
(560,622,cs),
(560,712,o),
(572,774,o),
(583,842,cs),
(634,1149,ls),
(687,1464,o),
(803,1661,o),
(1033,1661,cs),
(1236,1661,o),
(1287,1526,o),
(1298,1340,c),
(1701,1422,l),
(1681,1763,o),
(1487,1999,o),
(1050,1999,cs),
(496,1999,o),
(141,1478,o),
(141,715,cs),
(141,245,o),
(355,-34,o),
(817,-34,cs,{
name = hr00;
})
);
}
);
width = 1690;
},
{
anchors = (
{
name = bottom;
pos = (817,0);
},
{
name = top;
pos = (1104,1966);
}
);
layerId = "9AAD14F8-FE06-4230-ACE0-3E9D6F8A5A9E";
shapes = (
{
closed = 1;
nodes = (
(1160,-34,o),
(1349,155,o),
(1498,465,c),
(1315,558,l),
(1166,293,o),
(1059,169,o),
(834,169,cs),
(563,169,o),
(451,346,o),
(451,617,cs),
(451,696,o),
(459,780,o),
(473,865,cs),
(518,1135,ls),
(586,1540,o),
(769,1797,o),
(1084,1797,cs),
(1318,1797,o),
(1391,1656,o),
(1431,1487,c),
(1639,1554,l),
(1597,1771,o),
(1464,1999,o),
(1101,1999,cs),
(389,1999,o),
(220,1129,o),
(220,676,cs),
(220,220,o),
(400,-34,o),
(808,-34,cs,{
name = hr00;
})
);
}
);
width = 1690;
},
{
anchors = (
{
name = bottom;
pos = (783,0);
},
{
name = top;
pos = (1084,1966);
}
);
layerId = "B042A474-670A-4404-9662-903C467C1F9E";
shapes = (
{
closed = 1;
nodes = (
(1059,-34,o),
(1236,96,o),
(1402,400,c),
(1349,425,l),
(1208,158,o),
(1039,23,o),
(788,23,cs),
(487,23,o),
(313,222,o),
(313,617,cs),
(313,712,o),
(315,819,o),
(335,932,cs),
(363,1098,ls),
(456,1639,o),
(729,1943,o),
(1070,1943,cs),
(1329,1943,o),
(1447,1808,o),
(1512,1585,c),
(1569,1602,l),
(1498,1847,o),
(1357,1999,o),
(1073,1999,cs),
(513,1999,o),
(253,1298,o),
(253,617,cs),
(253,163,o),
(473,-34,o),
(788,-34,cs,{
name = hr00;
})
);
}
);
width = 1690;
}
);
unicode = 67;
},
{
glyphname = Ccedilla;
lastChange = "2022-01-21 13:11:03 +0000";
layers = (
{
layerId = "586BE664-8D6A-4867-BE1B-390608DE01EA";
shapes = (
{
closed = 1;
nodes = (
(1236,1661,o),
(1287,1526,o),
(1298,1340,c),
(1701,1422,l),
(1681,1763,o),
(1487,1999,o),
(1050,1999,cs),
(496,1999,o),
(141,1478,o),
(141,715,cs),
(141,279,o),
(324,11,o),
(718,-31,c),
(650,-208,l),
(715,-214,ls),
(862,-228,o),
(907,-268,o),
(907,-315,cs),
(907,-372,o),
(848,-397,o),
(766,-397,cs),
(681,-397,o),
(622,-352,o),
(594,-318,c),
(451,-467,l),
(504,-538,o),
(617,-597,o),
(774,-597,cs),
(1002,-597,o),
(1177,-501,o),
(1177,-310,cs),
(1177,-208,o),
(1095,-146,o),
(991,-146,cs),
(955,-146,o),
(915,-152,o),
(873,-166,c),
(865,-155,l),
(910,-31,l),
(1233,0,o),
(1431,194,o),
(1574,532,c),
(1217,639,l),
(1140,453,o),
(1025,304,o),
(845,304,cs),
(639,304,o),
(560,425,o),
(560,622,cs),
(560,712,o),
(572,774,o),
(583,842,cs),
(634,1149,ls),
(687,1464,o),
(803,1661,o),
(1033,1661,cs,{
name = hr00;
})
);
}
);
width = 1690;
},
{
layerId = "9AAD14F8-FE06-4230-ACE0-3E9D6F8A5A9E";
shapes = (
{
closed = 1;
nodes = (
(1318,1797,o),
(1391,1656,o),
(1431,1487,c),
(1639,1554,l),
(1597,1771,o),
(1464,1999,o),
(1101,1999,cs),
(389,1999,o),
(220,1129,o),
(220,676,cs),
(220,248,o),
(377,0,o),
(729,-31,c),
(665,-214,l),
(746,-225,ls),
(890,-245,o),
(915,-296,o),
(915,-335,cs),
(915,-397,o),
(856,-431,o),
(774,-431,cs),
(693,-431,o),
(645,-397,o),
(617,-355,c),
(504,-467,l),
(541,-527,o),
(628,-583,o),
(774,-583,cs),
(946,-583,o),
(1098,-510,o),
(1098,-335,cs),
(1098,-225,o),
(1036,-169,o),
(932,-169,cs),
(910,-169,o),
(867,-172,o),
(828,-180,c),
(822,-172,l),
(873,-31,l),
(1183,-8,o),
(1357,175,o),
(1498,465,c),
(1315,558,l),
(1166,293,o),
(1059,169,o),
(834,169,cs),
(563,169,o),
(451,346,o),
(451,617,cs),
(451,696,o),
(459,780,o),
(473,865,cs),
(518,1135,ls),
(586,1540,o),
(769,1797,o),
(1084,1797,cs,{
name = hr00;
})
);
}
);
width = 1690;
},
{
layerId = "B042A474-670A-4404-9662-903C467C1F9E";
shapes = (
{
closed = 1;
nodes = (
(1329,1943,o),
(1447,1808,o),
(1512,1585,c),
(1569,1602,l),
(1498,1847,o),
(1357,1999,o),
(1073,1999,cs),
(513,1999,o),
(253,1298,o),
(253,617,cs),
(253,186,o),
(453,-14,o),
(743,-34,c),
(659,-237,l),
(766,-242,ls),
(876,-248,o),
(915,-293,o),
(915,-358,cs),
(915,-451,o),
(836,-518,o),
(715,-518,cs),
(636,-518,o),
(577,-490,o),
(541,-442,c),
(501,-479,l),
(535,-527,o),
(611,-569,o),
(715,-569,cs),
(876,-569,o),
(974,-470,o),
(974,-355,cs),
(974,-262,o),
(912,-203,o),
(808,-203,cs),
(786,-203,o),
(752,-206,o),
(727,-211,c),
(721,-206,l),
(794,-34,l),
(1059,-34,o),
(1236,96,o),
(1402,400,c),
(1349,425,l),
(1208,158,o),
(1039,23,o),
(788,23,cs),
(487,23,o),
(313,222,o),
(313,617,cs),
(313,712,o),
(315,819,o),
(335,932,cs),
(363,1098,ls),
(456,1639,o),
(729,1943,o),
(1070,1943,cs,{
name = hr00;
})
);
}
);
width = 1690;
}
);
unicode = 199;
},
{
glyphname = D;
lastChange = "2022-01-21 13:11:03 +0000";
layers = (
{
anchors = (
{
name = bottom;
pos = (670,0);
},
{
name = top;
pos = (972,1966);
}
);
layerId = "586BE664-8D6A-4867-BE1B-390608DE01EA";
shapes = (
{
closed = 1;
nodes = (
(710,0,ls),
(1321,0,o),
(1656,467,o),
(1656,1242,cs),
(1656,1706,o),
(1416,1966,o),
(977,1966,cs),
(400,1966,l),
(70,0,l,{
name = hr00;
})
);
},
{
closed = 1;
nodes = (
(758,1636,l),
(941,1636,ls),
(1140,1636,o),
(1236,1535,o),
(1236,1321,cs),
(1236,1267,o),
(1231,1197,o),
(1219,1129,cs),
(1160,774,ls),
(1110,470,o),
(969,329,o),
(718,329,cs),
(541,329,l)
);
}
);
width = 1690;
},
{
anchors = (
{
name = bottom;
pos = (681,0);
},
{
name = top;
pos = (966,1966);
}
);
layerId = "9AAD14F8-FE06-4230-ACE0-3E9D6F8A5A9E";
shapes = (
{
closed = 1;
nodes = (
(698,0,ls),
(1247,0,o),
(1591,417,o),
(1591,1332,cs),
(1591,1695,o),
(1377,1966,o),
(966,1966,cs),
(484,1966,l),
(155,0,l,{
name = hr00;
})
);
},
{
closed = 1;
nodes = (
(681,1763,l),
(938,1763,ls),
(1214,1763,o),
(1360,1611,o),
(1360,1326,cs),
(1360,1247,o),
(1352,1152,o),
(1340,1084,cs),
(1295,814,ls),
(1228,411,o),
(1031,203,o),
(718,203,cs),
(420,203,l)
);
}
);
width = 1690;
},
{
anchors = (
{
name = bottom;
pos = (681,0);
},
{
name = top;
pos = (972,1966);
}
);
layerId = "B042A474-670A-4404-9662-903C467C1F9E";
shapes = (
{
closed = 1;
nodes = (
(732,0,ls),
(1329,0,o),
(1554,642,o),
(1554,1321,cs),
(1554,1746,o),
(1312,1966,o),
(966,1966,cs),
(510,1966,l),
(183,0,l,{
name = hr00;
})
);
},
{
closed = 1;
nodes = (
(563,1909,l),
(969,1909,ls),
(1295,1909,o),
(1495,1698,o),
(1495,1318,cs),
(1495,1222,o),
(1492,1118,o),
(1473,1005,cs),
(1445,839,ls),
(1357,324,o),
(1095,56,o),
(732,56,cs),
(253,56,l)
);
}
);
width = 1690;
}
);
unicode = 68;
},
{
glyphname = Dcroat;
lastChange = "2022-01-21 13:11:03 +0000";
layers = (
{
layerId = "586BE664-8D6A-4867-BE1B-390608DE01EA";
shapes = (
{
closed = 1;
nodes = (
(710,0,ls),
(1321,0,o),
(1656,467,o),
(1656,1242,cs),
(1656,1706,o),
(1416,1966,o),
(977,1966,cs),
(400,1966,l),
(273,1194,l),
(110,1194,l),
(56,879,l),
(217,879,l),
(70,0,l,{
name = hr00;
})
);
},
{
closed = 1;
nodes = (
(634,893,l),
(943,893,l),
(991,1180,l),
(681,1180,l),
(758,1636,l),
(941,1636,ls),
(1140,1636,o),
(1236,1535,o),
(1236,1321,cs),
(1236,1267,o),
(1231,1197,o),
(1219,1129,cs),
(1160,774,ls),
(1110,470,o),
(969,329,o),
(718,329,cs),
(541,329,l)
);
}
);
width = 1690;
},
{
layerId = "9AAD14F8-FE06-4230-ACE0-3E9D6F8A5A9E";
shapes = (
{
closed = 1;
nodes = (
(698,0,ls),
(1247,0,o),
(1591,417,o),
(1591,1332,cs),
(1591,1695,o),
(1377,1966,o),
(966,1966,cs),
(484,1966,l),
(344,1124,l),
(115,1124,l),
(87,949,l),
(313,949,l),
(155,0,l,{
name = hr00;
})
);
},
{
closed = 1;
nodes = (
(546,949,l),
(938,949,l),
(966,1124,l),
(574,1124,l),
(681,1763,l),
(938,1763,ls),
(1214,1763,o),
(1360,1611,o),
(1360,1326,cs),
(1360,1247,o),
(1352,1152,o),
(1340,1084,cs),
(1295,814,ls),
(1228,411,o),
(1031,203,o),
(718,203,cs),
(420,203,l)
);
}
);
width = 1690;
},
{
layerId = "B042A474-670A-4404-9662-903C467C1F9E";
shapes = (
{
closed = 1;
nodes = (
(732,0,ls),
(1329,0,o),
(1554,642,o),
(1554,1321,cs),
(1554,1746,o),
(1312,1966,o),
(966,1966,cs),
(510,1966,l),
(360,1064,l),
(146,1064,l),
(138,1011,l),
(352,1011,l),
(183,0,l,{
name = hr00;
})
);
},
{
closed = 1;
nodes = (
(414,1011,l),
(966,1011,l),
(974,1064,l),
(422,1064,l),
(563,1909,l),
(969,1909,ls),
(1295,1909,o),
(1495,1698,o),
(1495,1318,cs),
(1495,1222,o),
(1492,1118,o),
(1473,1005,cs),
(1445,839,ls),
(1357,324,o),
(1095,56,o),
(732,56,cs),
(253,56,l)
);
}
);
width = 1690;
}
);
unicode = 272;
},
{
glyphname = E;
lastChange = "2022-01-21 13:11:03 +0000";
layers = (
{
anchors = (
{
name = bottom;
pos = (797,0);
},
{
name = bottomright;
pos = (1363,0);
},
{
name = top;
pos = (1050,1966);
}
);
layerId = "586BE664-8D6A-4867-BE1B-390608DE01EA";
shapes = (
{
closed = 1;
nodes = (
(1419,344,l),
(577,344,l),
(656,822,l),
(1464,822,l),
(1521,1166,l),
(715,1166,l),
(791,1622,l),
(1636,1622,l),
(1692,1966,l),
(436,1966,l),
(107,0,l),
(1363,0,l,{
name = hr00;
})
);
}
);
width = 1690;
},
{
anchors = (
{
name = bottom;
pos = (786,0);
},
{
name = bottomright;
pos = (1343,0);
},
{
name = top;
pos = (1067,1966);
}
);
layerId = "9AAD14F8-FE06-4230-ACE0-3E9D6F8A5A9E";
shapes = (
{
closed = 1;
nodes = (
(1377,203,l),
(397,203,l),
(513,895,l),
(1456,895,l),
(1490,1098,l),
(546,1098,l),
(659,1763,l),
(1633,1763,l),
(1667,1966,l),
(462,1966,l),
(132,0,l),
(1343,0,l,{
name = hr00;
})
);
}
);
width = 1690;
},
{
anchors = (
{
name = bottom;
pos = (755,0);
},
{
name = bottomright;
pos = (1326,0);
},
{
name = top;
pos = (1084,1966);
}
);
layerId = "B042A474-670A-4404-9662-903C467C1F9E";
shapes = (
{
closed = 1;
nodes = (
(1335,56,l),
(253,56,l),
(406,969,l),
(1447,969,l),
(1459,1025,l),
(417,1025,l),
(563,1909,l),
(1645,1909,l),
(1653,1966,l),
(510,1966,l),
(183,0,l),
(1326,0,l,{
name = hr00;
})
);
}
);
width = 1690;
}
);
unicode = 69;
},
{
glyphname = Eogonek;
lastChange = "2022-01-21 13:11:03 +0000";
layers = (
{
layerId = "586BE664-8D6A-4867-BE1B-390608DE01EA";
shapes = (
{
closed = 1;
nodes = (
(1149,0,l),
(1152,-11,l),
(873,-84,o),
(758,-220,o),
(758,-358,cs),
(758,-513,o),
(901,-597,o),
(1101,-597,cs),
(1262,-597,o),
(1371,-535,o),
(1442,-445,c),
(1290,-318,l),
(1250,-377,o),
(1197,-394,o),
(1140,-394,cs),
(1067,-394,o),
(1036,-358,o),
(1036,-310,cs),
(1036,-253,o),
(1067,-177,o),
(1363,0,c),
(1419,344,l),
(577,344,l),
(659,822,l),
(1464,822,l),
(1521,1166,l),
(715,1166,l),
(791,1622,l),
(1636,1622,l),
(1692,1966,l),
(436,1966,l),
(107,0,l,{
name = hr00;
})
);
}
);
width = 1690;
},
{
layerId = "9AAD14F8-FE06-4230-ACE0-3E9D6F8A5A9E";
shapes = (
{
closed = 1;
nodes = (
(1166,0,l),
(1169,-14,l),
(952,-110,o),
(811,-217,o),
(811,-372,cs),
(811,-524,o),
(943,-583,o),
(1087,-583,cs),
(1219,-583,o),
(1312,-532,o),
(1363,-479,c),
(1256,-358,l),
(1202,-406,o),
(1146,-431,o),
(1098,-431,cs),
(1048,-431,o),
(1002,-406,o),
(1002,-344,cs),
(1002,-284,o),
(1042,-197,o),
(1343,0,c),
(1377,203,l),
(397,203,l),
(513,895,l),
(1456,895,l),
(1490,1098,l),
(546,1098,l),
(659,1763,l),
(1633,1763,l),
(1667,1966,l),
(462,1966,l),
(132,0,l,{
name = hr00;
})
);
}
);
width = 1690;
},
{
layerId = "B042A474-670A-4404-9662-903C467C1F9E";
shapes = (
{
closed = 1;
nodes = (
(1245,0,l),
(1247,-6,l),
(926,-163,o),
(862,-282,o),
(862,-386,cs),
(862,-513,o),
(955,-569,o),
(1070,-569,cs),
(1166,-569,o),
(1245,-529,o),
(1287,-479,c),
(1250,-448,l),
(1217,-482,o),
(1160,-518,o),
(1070,-518,cs),
(988,-518,o),
(921,-476,o),
(921,-386,cs),
(921,-242,o),
(1042,-163,o),
(1326,0,c),
(1335,56,l),
(253,56,l),
(406,969,l),
(1447,969,l),
(1459,1025,l),
(417,1025,l),
(563,1909,l),
(1645,1909,l),
(1653,1966,l),
(510,1966,l),
(183,0,l,{
name = hr00;
})
);
}
);
width = 1690;
}
);
unicode = 280;
},
{
glyphname = Schwa;
lastChange = "2022-01-21 13:11:03 +0000";
layers = (
{
layerId = "586BE664-8D6A-4867-BE1B-390608DE01EA";
shapes = (
{
closed = 1;
nodes = (
(1422,-34,o),
(1681,589,o),
(1681,1191,cs),
(1681,1746,o),
(1464,1999,o),
(1028,1999,cs),
(653,1999,o),
(386,1811,o),
(248,1450,c),
(600,1312,l),
(681,1523,o),
(783,1664,o),
(988,1664,cs),
(1186,1664,o),
(1270,1535,o),
(1270,1318,cs),
(1270,1278,o),
(1267,1222,o),
(1256,1155,cs),
(1250,1121,l),
(158,1121,l),
(135,980,ls),
(118,879,o),
(115,774,o),
(115,721,cs),
(115,239,o),
(335,-34,o),
(769,-34,cs,{
name = hr00;
})
);
},
{
closed = 1;
nodes = (
(591,296,o),
(515,414,o),
(515,597,cs),
(515,659,o),
(524,752,o),
(538,819,c),
(1202,819,l),
(1200,803,ls),
(1146,482,o),
(1022,296,o),
(783,296,cs)
);
}
);
width = 1690;
},
{
layerId = "9AAD14F8-FE06-4230-ACE0-3E9D6F8A5A9E";
shapes = (
{
closed = 1;
nodes = (
(1431,-34,o),
(1605,839,o),
(1605,1307,cs),
(1605,1760,o),
(1439,1999,o),
(1048,1999,cs),
(690,1999,o),
(451,1797,o),
(318,1498,c),
(498,1405,l),
(620,1647,o),
(774,1799,o),
(1028,1799,cs),
(1278,1799,o),
(1380,1647,o),
(1380,1380,cs),
(1380,1315,o),
(1374,1231,o),
(1357,1132,cs),
(1343,1045,l),
(211,1045,l),
(194,935,ls),
(183,865,o),
(175,712,o),
(175,622,cs),
(175,208,o),
(355,-34,o),
(727,-34,cs,{
name = hr00;
})
);
},
{
closed = 1;
nodes = (
(484,166,o),
(400,344,o),
(400,597,cs),
(400,662,o),
(406,749,o),
(422,853,c),
(1312,853,l),
(1307,819,ls),
(1242,425,o),
(1062,166,o),
(746,166,cs)
);
}
);
width = 1690;
},
{
layerId = "B042A474-670A-4404-9662-903C467C1F9E";
shapes = (
{
closed = 1;
nodes = (
(1312,-34,o),
(1549,667,o),
(1549,1349,cs),
(1549,1802,o),
(1363,1999,o),
(1019,1999,cs),
(712,1999,o),
(498,1805,o),
(366,1523,c),
(422,1498,l),
(549,1785,o),
(758,1943,o),
(1019,1943,cs),
(1349,1943,o),
(1490,1743,o),
(1490,1349,cs),
(1490,1253,o),
(1487,1146,o),
(1467,1033,cs),
(1453,957,l),
(234,957,l),
(228,904,l),
(217,808,o),
(214,712,o),
(214,617,cs),
(214,163,o),
(397,-34,o),
(738,-34,cs,{
name = hr00;
})
);
},
{
closed = 1;
nodes = (
(411,23,o),
(273,222,o),
(273,617,cs),
(273,704,o),
(276,800,o),
(290,901,c),
(1445,901,l),
(1439,867,ls),
(1346,327,o),
(1095,23,o),
(738,23,cs)
);
}
);
width = 1690;
}
);
unicode = 399;
},
{
glyphname = F;
lastChange = "2022-01-21 13:11:03 +0000";
layers = (
{
anchors = (
{
name = bottom;
pos = (315,0);
},
{
name = top;
pos = (1087,1966);
}
);
layerId = "586BE664-8D6A-4867-BE1B-390608DE01EA";
shapes = (
{
closed = 1;
nodes = (
(659,822,l),
(1453,822,l),
(1509,1166,l),
(715,1166,l),
(791,1622,l),
(1681,1622,l),
(1737,1966,l),
(436,1966,l),
(107,0,l),
(521,0,l,{
name = hr00;
})
);
}
);
width = 1690;
},
{
anchors = (
{
name = bottom;
pos = (245,0);
},
{
name = top;
pos = (1076,1966);
}
);
layerId = "9AAD14F8-FE06-4230-ACE0-3E9D6F8A5A9E";
shapes = (
{
closed = 1;
nodes = (
(513,893,l),
(1433,893,l),
(1467,1095,l),
(546,1095,l),
(659,1763,l),
(1661,1763,l),
(1695,1966,l),
(462,1966,l),
(132,0,l),
(363,0,l,{
name = hr00;
})
);
}
);
width = 1690;
},
{
anchors = (
{
name = bottom;
pos = (214,0);
},
{
name = top;
pos = (1084,1966);
}
);
layerId = "B042A474-670A-4404-9662-903C467C1F9E";
shapes = (
{
closed = 1;
nodes = (
(406,969,l),
(1419,969,l),
(1431,1025,l),
(417,1025,l),
(563,1909,l),
(1656,1909,l),
(1664,1966,l),
(510,1966,l),
(183,0,l),
(245,0,l,{
name = hr00;
})
);
}
);
width = 1690;
}
);
unicode = 70;
},
{
glyphname = G;
lastChange = "2022-01-21 13:11:03 +0000";
layers = (
{
anchors = (
{
name = bottom;
pos = (839,0);
},
{
name = top;
pos = (1031,1966);
}
);
layerId = "586BE664-8D6A-4867-BE1B-390608DE01EA";
shapes = (
{
closed = 1;
nodes = (
(1419,0,l),
(1594,1048,l),
(879,1048,l),
(831,752,l),
(1177,752,l),
(1155,617,ls),
(1126,448,o),
(1011,304,o),
(814,304,cs,{
name = hr01;
}),
(634,304,o),
(552,434,o),
(552,631,cs),
(552,707,o),
(563,808,o),
(574,876,cs),
(622,1163,ls),
(673,1467,o),
(786,1661,o),
(1000,1661,cs),
(1194,1661,o),
(1242,1509,o),
(1256,1340,c),
(1659,1419,l),
(1633,1760,o),
(1445,1999,o),
(1036,1999,cs),
(434,1999,o),
(127,1436,o),
(127,690,cs),
(127,217,o),
(327,-34,o),
(648,-34,cs),
(876,-34,o),
(974,110,o),
(1073,284,c,{
name = hr02;
}),
(1098,284,l),
(1050,0,l)
);
}
);
width = 1690;
},
{
anchors = (
{
name = bottom;
pos = (811,0);
},
{
name = top;
pos = (1033,1966);
}
);
layerId = "9AAD14F8-FE06-4230-ACE0-3E9D6F8A5A9E";
shapes = (
{
closed = 1;
nodes = (
(1352,0,l),
(1512,969,l),
(887,969,l),
(856,783,l),
(1267,783,l),
(1242,631,ls),
(1200,377,o),
(1033,163,o),
(766,163,cs,{
name = hr01;
}),
(518,163,o),
(422,346,o),
(422,634,cs),
(422,681,o),
(425,777,o),
(439,862,cs),
(484,1132,ls),
(552,1535,o),
(729,1797,o),
(1050,1797,cs),
(1284,1797,o),
(1357,1656,o),
(1397,1487,c),
(1605,1554,l),
(1563,1771,o),
(1431,1999,o),
(1067,1999,cs),
(358,1999,o),
(186,1129,o),
(186,676,cs),
(186,208,o),
(360,-34,o),
(693,-34,cs),
(949,-34,o),
(1067,113,o),
(1171,287,c,{
name = hr02;
}),
(1186,287,l),
(1138,0,l)
);
}
);
width = 1690;
},
{
anchors = (
{
name = bottom;
pos = (763,0);
},
{
name = top;
pos = (1064,1966);
}
);
layerId = "B042A474-670A-4404-9662-903C467C1F9E";
shapes = (
{
closed = 1;
nodes = (
(1324,0,l),
(1473,887,l),
(910,887,l),
(898,831,l),
(1402,831,l),
(1354,549,ls),
(1301,242,o),
(1093,23,o),
(800,23,cs,{
name = hr01;
}),
(453,23,o),
(310,222,o),
(310,617,cs),
(310,712,o),
(313,819,o),
(332,932,cs),
(360,1098,ls),
(453,1639,o),
(701,1943,o),
(1059,1943,cs),
(1318,1943,o),
(1456,1808,o),
(1521,1585,c),
(1577,1602,l),
(1507,1847,o),
(1349,1999,o),
(1059,1999,cs),
(484,1999,o),
(251,1298,o),
(251,617,cs),
(251,163,o),
(439,-34,o),
(800,-34,cs),
(1064,-34,o),
(1200,110,o),
(1304,290,c,{
name = hr02;
}),
(1312,290,l),
(1262,0,l)
);
}
);
width = 1690;
}
);
unicode = 71;
},
{
glyphname = H;
lastChange = "2022-01-21 13:11:03 +0000";
layers = (
{
anchors = (
{
name = bottom;
pos = (721,0);
},
{
name = top;
pos = (1053,1966);
}
);
layerId = "586BE664-8D6A-4867-BE1B-390608DE01EA";
shapes = (
{
closed = 1;
nodes = (
(1397,0,l),
(1723,1966,l),
(1307,1966,l),
(1174,1166,l),
(667,1166,l),
(800,1966,l),
(383,1966,l),
(56,0,l),
(473,0,l),
(611,825,l),
(1118,825,l),
(980,0,l,{
name = hr00;
})
);
}
);
width = 1690;
},
{
anchors = (
{
name = bottom;
pos = (718,0);
},
{
name = top;
pos = (1048,1966);
}
);
layerId = "9AAD14F8-FE06-4230-ACE0-3E9D6F8A5A9E";
shapes = (
{
closed = 1;
nodes = (
(1338,0,l),
(1667,1966,l),
(1436,1966,l),
(1290,1098,l),
(524,1098,l),
(670,1966,l),
(439,1966,l),
(110,0,l),
(341,0,l),
(490,895,l),
(1256,895,l),
(1107,0,l,{
name = hr00;
})
);
}
);
width = 1690;
},
{
anchors = (
{
name = bottom;
pos = (729,0);
},
{
name = top;
pos = (1053,1966);
}
);
layerId = "B042A474-670A-4404-9662-903C467C1F9E";
shapes = (
{
closed = 1;
nodes = (
(1293,0,l),
(1619,1966,l),
(1557,1966,l),
(1402,1025,l),
(389,1025,l),
(543,1966,l),
(482,1966,l),
(155,0,l),
(217,0,l),
(377,969,l),
(1391,969,l),
(1231,0,l,{
name = hr00;
})
);
}
);
width = 1690;
}
);
unicode = 72;
},
{
glyphname = Hbar;
lastChange = "2022-01-21 13:11:03 +0000";
layers = (
{
layerId = "586BE664-8D6A-4867-BE1B-390608DE01EA";
shapes = (
{
closed = 1;
nodes = (
(1397,0,l),
(1636,1428,l),
(1783,1428,l),
(1836,1743,l),
(1687,1743,l),
(1723,1966,l),
(1307,1966,l),
(1267,1723,l),
(760,1723,l),
(800,1966,l),
(383,1966,l),
(346,1743,l),
(200,1743,l),
(146,1428,l),
(296,1428,l),
(56,0,l),
(473,0,l),
(611,825,l),
(1118,825,l),
(980,0,l,{
name = hr00;
})
);
},
{
closed = 1;
nodes = (
(715,1447,l),
(1222,1447,l),
(1174,1166,l),
(670,1166,l)
);
}
);
width = 1690;
},
{
layerId = "9AAD14F8-FE06-4230-ACE0-3E9D6F8A5A9E";
shapes = (
{
closed = 1;
nodes = (
(1338,0,l),
(1583,1459,l),
(1780,1459,l),
(1808,1636,l),
(1611,1636,l),
(1667,1966,l),
(1436,1966,l),
(1383,1636,l),
(614,1636,l),
(670,1966,l),
(439,1966,l),
(386,1636,l),
(189,1636,l),
(161,1459,l),
(355,1459,l),
(110,0,l),
(341,0,l),
(490,895,l),
(1256,895,l),
(1107,0,l,{
name = hr00;
})
);
},
{
closed = 1;
nodes = (
(586,1459,l),
(1352,1459,l),
(1290,1098,l),
(521,1098,l)
);
}
);
width = 1690;
},
{
layerId = "B042A474-670A-4404-9662-903C467C1F9E";
shapes = (
{
closed = 1;
nodes = (
(1293,0,l),
(1543,1512,l),
(1780,1512,l),
(1791,1566,l),
(1552,1566,l),
(1619,1966,l),
(1557,1966,l),
(1492,1566,l),
(476,1566,l),
(543,1966,l),
(482,1966,l),
(414,1566,l),
(180,1566,l),
(169,1512,l),
(406,1512,l),
(155,0,l),
(217,0,l),
(377,969,l),
(1391,969,l),
(1231,0,l,{
name = hr00;
})
);
},
{
closed = 1;
nodes = (
(467,1512,l),
(1484,1512,l),
(1402,1025,l),
(389,1025,l)
);
}
);
width = 1690;
}
);
unicode = 294;
},
{
glyphname = I;
lastChange = "2022-01-21 13:11:03 +0000";
layers = (
{
anchors = (
{
name = bottom;
pos = (727,0);
},
{
name = bottomright;
pos = (1360,0);
},
{
name = top;
pos = (1053,1966);
}
);
layerId = "586BE664-8D6A-4867-BE1B-390608DE01EA";
shapes = (
{
closed = 1;
nodes = (
(1408,310,l),
(983,310,l),
(1208,1656,l),
(1633,1656,l),
(1684,1966,l),
(417,1966,l),
(366,1656,l),
(791,1656,l),
(566,310,l),
(141,310,l),
(90,0,l),
(1357,0,l,{
name = hr00;
})
);
}
);
width = 1690;
},
{
anchors = (
{
name = bottom;
pos = (735,0);
},
{
name = bottomright;
pos = (1332,0);
},
{
name = top;
pos = (1048,1966);
}
);
layerId = "9AAD14F8-FE06-4230-ACE0-3E9D6F8A5A9E";
shapes = (
{
closed = 1;
nodes = (
(1363,186,l),
(870,186,l),
(1138,1780,l),
(1630,1780,l),
(1661,1966,l),
(445,1966,l),
(414,1780,l),
(907,1780,l),
(639,186,l),
(146,186,l),
(115,0,l),
(1332,0,l,{
name = hr00;
})
);
}
);
width = 1690;
},
{
anchors = (
{
name = bottom;
pos = (724,0);
},
{
name = bottomright;
pos = (1309,0);
},
{
name = top;
pos = (1053,1966);
}
);
layerId = "B042A474-670A-4404-9662-903C467C1F9E";
shapes = (
{
closed = 1;
nodes = (
(1318,54,l),
(763,54,l),
(1073,1912,l),
(1628,1912,l),
(1636,1966,l),
(465,1966,l),
(456,1912,l),
(1011,1912,l),
(701,54,l),
(146,54,l),
(138,0,l),
(1309,0,l,{
name = hr00;
})
);
}
);
width = 1690;
}
);
unicode = 73;
},
{
glyphname = IJ;
lastChange = "2022-01-21 13:11:03 +0000";
layers = (
{
layerId = "586BE664-8D6A-4867-BE1B-390608DE01EA";
shapes = (
{
closed = 1;
nodes = (
(1163,597,ls),
(1129,394,o),
(1033,304,o),
(884,304,cs),
(704,304,o),
(650,428,o),
(642,594,c),
(251,521,l),
(259,191,o),
(459,-34,o),
(853,-34,cs),
(1250,-34,o),
(1509,155,o),
(1580,577,cs),
(1811,1966,l),
(1391,1966,l,{
name = hr00;
})
);
},
{
closed = 1;
nodes = (
(741,867,l),
(924,1966,l),
(507,1966,l),
(324,867,l)
);
}
);
width = 1690;
},
{
layerId = "9AAD14F8-FE06-4230-ACE0-3E9D6F8A5A9E";
shapes = (
{
closed = 1;
nodes = (
(1169,549,ls),
(1126,296,o),
(988,172,o),
(758,172,cs),
(493,172,o),
(431,307,o),
(408,473,c),
(186,425,l),
(220,121,o),
(434,-34,o),
(752,-34,cs),
(1087,-34,o),
(1329,127,o),
(1388,479,cs),
(1636,1966,l),
(1405,1966,l,{
name = hr00;
})
);
},
{
closed = 1;
nodes = (
(507,817,l),
(696,1966,l),
(465,1966,l),
(276,817,l)
);
}
);
width = 1690;
},
{
layerId = "B042A474-670A-4404-9662-903C467C1F9E";
shapes = (
{
closed = 1;
nodes = (
(1267,529,ls),
(1211,194,o),
(1028,23,o),
(732,23,cs),
(465,23,o),
(349,161,o),
(324,372,c),
(265,360,l),
(290,118,o),
(442,-34,o),
(729,-34,cs),
(1056,-34,o),
(1267,158,o),
(1329,532,cs),
(1569,1966,l),
(1507,1966,l,{
name = hr00;
})
);
},
{
closed = 1;
nodes = (
(394,763,l),
(594,1966,l),
(532,1966,l),
(332,763,l)
);
}
);
width = 1690;
}
);
unicode = 306;
},
{
glyphname = Iogonek;
lastChange = "2022-01-21 13:11:03 +0000";
layers = (
{
layerId = "586BE664-8D6A-4867-BE1B-390608DE01EA";
shapes = (
{
closed = 1;
nodes = (
(1146,0,l),
(1149,-11,l),
(870,-84,o),
(755,-220,o),
(755,-358,cs),
(755,-513,o),
(898,-597,o),
(1098,-597,cs),
(1259,-597,o),
(1369,-535,o),
(1439,-445,c),
(1287,-318,l),
(1247,-377,o),
(1194,-394,o),
(1138,-394,cs),
(1064,-394,o),
(1033,-358,o),
(1033,-310,cs),
(1033,-253,o),
(1062,-177,o),
(1357,0,c),
(1408,310,l),
(983,310,l),
(1208,1656,l),
(1633,1656,l),
(1684,1966,l),
(417,1966,l),
(366,1656,l),
(791,1656,l),
(566,310,l),
(141,310,l),
(90,0,l,{
name = hr00;
})
);
}
);
width = 1690;
},
{
layerId = "9AAD14F8-FE06-4230-ACE0-3E9D6F8A5A9E";
shapes = (
{
closed = 1;
nodes = (
(1155,0,l),
(1157,-14,l),
(941,-110,o),
(800,-217,o),
(800,-372,cs),
(800,-524,o),
(932,-583,o),
(1076,-583,cs),
(1208,-583,o),
(1301,-532,o),
(1352,-479,c),
(1245,-358,l),
(1191,-406,o),
(1135,-431,o),
(1087,-431,cs),
(1036,-431,o),
(991,-406,o),
(991,-344,cs),
(991,-284,o),
(1031,-197,o),
(1332,0,c),
(1363,186,l),
(870,186,l),
(1138,1780,l),
(1630,1780,l),
(1661,1966,l),
(445,1966,l),
(414,1780,l),
(907,1780,l),
(639,186,l),
(146,186,l),
(115,0,l,{
name = hr00;
})
);
}
);
width = 1690;
},
{
layerId = "B042A474-670A-4404-9662-903C467C1F9E";
shapes = (
{
closed = 1;
nodes = (
(1228,0,l),
(1231,-6,l),
(910,-163,o),
(845,-282,o),
(845,-386,cs),
(845,-513,o),
(938,-569,o),
(1053,-569,cs),
(1149,-569,o),
(1228,-529,o),
(1270,-479,c),
(1233,-448,l),
(1200,-482,o),
(1143,-518,o),
(1053,-518,cs),
(972,-518,o),
(904,-476,o),
(904,-386,cs),
(904,-242,o),
(1025,-163,o),
(1309,0,c),
(1318,54,l),
(763,54,l),
(1073,1912,l),
(1628,1912,l),
(1636,1966,l),
(465,1966,l),
(456,1912,l),
(1011,1912,l),
(701,54,l),
(146,54,l),
(138,0,l,{
name = hr00;
})
);
}
);
width = 1690;
}
);
unicode = 302;
},
{
glyphname = J;
lastChange = "2022-01-21 13:11:03 +0000";
layers = (
{
anchors = (
{
name = bottom;
pos = (679,0);
},
{
name = top;
pos = (1104,1966);
}
);
layerId = "586BE664-8D6A-4867-BE1B-390608DE01EA";
shapes = (
{
closed = 1;
nodes = (
(510,1622,l),
(1169,1622,l),
(994,580,ls),
(963,394,o),
(865,304,o),
(715,304,cs),
(535,304,o),
(482,428,o),
(473,594,c),
(82,521,l),
(90,191,o),
(290,-34,o),
(684,-34,cs),
(1095,-34,o),
(1340,169,o),
(1408,569,cs),
(1642,1966,l),
(566,1966,l,{
name = hr00;
})
);
}
);
width = 1690;
},
{
anchors = (
{
name = bottom;
pos = (710,0);
},
{
name = top;
pos = (1081,1966);
}
);
layerId = "9AAD14F8-FE06-4230-ACE0-3E9D6F8A5A9E";
shapes = (
{
closed = 1;
nodes = (
(577,1763,l),
(1293,1763,l),
(1090,549,ls),
(1048,296,o),
(918,172,o),
(707,172,cs),
(467,172,o),
(406,307,o),
(386,473,c),
(163,425,l),
(194,121,o),
(400,-34,o),
(701,-34,cs),
(1019,-34,o),
(1250,127,o),
(1309,479,cs),
(1557,1966,l),
(611,1966,l,{
name = hr00;
})
);
}
);
width = 1690;
},
{
anchors = (
{
name = bottom;
pos = (665,0);
},
{
name = top;
pos = (1090,1966);
}
);
layerId = "B042A474-670A-4404-9662-903C467C1F9E";
shapes = (
{
closed = 1;
nodes = (
(639,1909,l),
(1436,1909,l),
(1208,543,ls),
(1152,211,o),
(955,23,o),
(656,23,cs),
(436,23,o),
(279,127,o),
(265,346,c),
(206,335,l),
(217,118,o),
(377,-34,o),
(659,-34,cs),
(980,-34,o),
(1208,169,o),
(1267,527,cs),
(1507,1966,l),
(648,1966,l,{
name = hr00;
})
);
}
);
width = 1690;
}
);
unicode = 74;
},
{
glyphname = K;
lastChange = "2022-01-21 13:11:03 +0000";
layers = (
{
anchors = (
{
name = bottom;
pos = (774,0);
},
{
name = top;
pos = (1081,1966);
}
);
layerId = "586BE664-8D6A-4867-BE1B-390608DE01EA";
shapes = (
{
closed = 1;
nodes = (
(1583,0,l),
(1146,1093,l),
(1878,1966,l),
(1388,1966,l),
(1017,1509,l),
(701,1124,l),
(679,1124,l),
(819,1966,l),
(403,1966,l),
(76,0,l),
(493,0,l),
(583,538,l),
(814,794,l),
(1121,0,l,{
name = hr00;
})
);
}
);
width = 1690;
},
{
anchors = (
{
name = bottom;
pos = (749,0);
},
{
name = top;
pos = (1062,1966);
}
);
layerId = "9AAD14F8-FE06-4230-ACE0-3E9D6F8A5A9E";
shapes = (
{
closed = 1;
nodes = (
(1492,0,l),
(977,1132,l),
(1816,1966,l),
(1523,1966,l),
(898,1343,l),
(521,943,l),
(510,943,l),
(681,1966,l),
(451,1966,l),
(121,0,l),
(352,0,l),
(456,622,l),
(808,972,l),
(1239,0,l,{
name = hr00;
})
);
}
);
width = 1690;
},
{
anchors = (
{
name = bottom;
pos = (755,0);
},
{
name = top;
pos = (1053,1966);
}
);
layerId = "B042A474-670A-4404-9662-903C467C1F9E";
shapes = (
{
closed = 1;
nodes = (
(1416,0,l),
(850,1132,l),
(1740,1966,l),
(1661,1966,l),
(831,1191,l),
(380,769,l),
(372,769,l),
(572,1966,l),
(510,1966,l),
(183,0,l),
(245,0,l),
(358,676,l),
(803,1090,l),
(1349,0,l,{
name = hr00;
})
);
}
);
width = 1690;
}
);
unicode = 75;
},
{
glyphname = L;
lastChange = "2022-01-21 13:11:03 +0000";
layers = (
{
anchors = (
{
name = bottom;
pos = (780,0);
},
{
name = top;
pos = (667,1966);
},
{
name = topright;
pos = (1126,2084);
}
);
layerId = "586BE664-8D6A-4867-BE1B-390608DE01EA";
shapes = (
{
closed = 1;
nodes = (
(1467,344,l),
(617,344,l),
(887,1966,l),
(470,1966,l),
(144,0,l),
(1411,0,l,{
name = hr00;
})
);
}
);
width = 1690;
},
{
anchors = (
{
name = bottom;
pos = (797,0);
},
{
name = top;
pos = (662,1966);
},
{
name = topright;
pos = (1045,2084);
}
);
layerId = "9AAD14F8-FE06-4230-ACE0-3E9D6F8A5A9E";
shapes = (
{
closed = 1;
nodes = (
(1416,203,l),
(484,203,l),
(777,1966,l),
(549,1966,l),
(220,0,l),
(1383,0,l,{
name = hr00;
})
);
}
);
width = 1690;
},
{
anchors = (
{
name = bottom;
pos = (839,0);
},
{
name = top;
pos = (648,1966);
},
{
name = topright;
pos = (1000,2084);
}
);
layerId = "B042A474-670A-4404-9662-903C467C1F9E";
shapes = (
{
closed = 1;
nodes = (
(1374,56,l),
(360,56,l),
(679,1966,l),
(617,1966,l),
(290,0,l),
(1366,0,l,{
name = hr00;
})
);
}
);
width = 1690;
}
);
unicode = 76;
},
{
glyphname = Lslash;
lastChange = "2022-01-21 13:11:03 +0000";
layers = (
{
layerId = "586BE664-8D6A-4867-BE1B-390608DE01EA";
shapes = (
{
closed = 1;
nodes = (
(676,344,l),
(755,814,l),
(1304,986,l),
(1357,1307,l),
(808,1135,l),
(946,1966,l),
(529,1966,l),
(372,1008,l),
(158,943,l),
(104,625,l),
(318,690,l),
(203,0,l),
(1436,0,l),
(1492,344,l,{
name = hr00;
})
);
}
);
width = 1690;
},
{
layerId = "9AAD14F8-FE06-4230-ACE0-3E9D6F8A5A9E";
shapes = (
{
closed = 1;
nodes = (
(484,203,l),
(589,834,l),
(1208,1028,l),
(1239,1222,l),
(622,1028,l),
(777,1966,l),
(549,1966,l),
(383,966,l),
(138,893,l),
(107,698,l),
(349,772,l),
(220,0,l),
(1383,0,l),
(1416,203,l,{
name = hr00;
})
);
}
);
width = 1690;
},
{
layerId = "B042A474-670A-4404-9662-903C467C1F9E";
shapes = (
{
closed = 1;
nodes = (
(360,56,l),
(496,865,l),
(1188,1073,l),
(1197,1129,l),
(504,921,l),
(679,1966,l),
(617,1966,l),
(439,904,l),
(169,822,l),
(161,766,l),
(431,848,l),
(290,0,l),
(1366,0,l),
(1374,56,l,{
name = hr00;
})
);
}
);
width = 1690;
}
);
unicode = 321;
},
{
glyphname = M;
lastChange = "2022-01-21 13:11:03 +0000";
layers = (
{
anchors = (
{
name = bottom;
pos = (724,0);
},
{
name = top;
pos = (1053,1966);
}
);
layerId = "586BE664-8D6A-4867-BE1B-390608DE01EA";
shapes = (
{
closed = 1;
nodes = (
(1459,0,l),
(1788,1966,l),
(1315,1966,l),
(960,1298,l),
(935,1298,l),
(800,1966,l),
(324,1966,l),
(-6,0,l),
(355,0,l),
(501,876,l),
(572,1431,l),
(597,1431,l),
(794,420,l),
(1332,1431,l),
(1357,1431,l),
(1245,876,l),
(1098,0,l,{
name = hr00;
})
);
}
);
width = 1690;
},
{
anchors = (
{
name = bottom;
pos = (721,0);
},
{
name = top;
pos = (1053,1966);
}
);
layerId = "9AAD14F8-FE06-4230-ACE0-3E9D6F8A5A9E";
shapes = (
{
closed = 1;
nodes = (
(1374,0,l),
(1704,1966,l),
(1408,1966,l),
(910,1095,l),
(893,1095,l),
(684,1966,l),
(403,1966,l),
(73,0,l),
(284,0,l),
(448,986,l),
(552,1616,l),
(572,1616,l),
(822,603,l),
(1416,1616,l),
(1436,1616,l),
(1329,986,l),
(1163,0,l,{
name = hr00;
})
);
}
);
width = 1690;
},
{
anchors = (
{
name = bottom;
pos = (724,0);
},
{
name = top;
pos = (1056,1966);
}
);
layerId = "B042A474-670A-4404-9662-903C467C1F9E";
shapes = (
{
closed = 1;
nodes = (
(1329,0,l),
(1656,1966,l),
(1563,1966,l),
(862,831,l),
(853,831,l),
(532,1966,l),
(445,1966,l),
(118,0,l),
(177,0,l),
(391,1290,l),
(490,1878,l),
(498,1878,l),
(839,690,l),
(1574,1878,l),
(1583,1878,l),
(1476,1239,l),
(1270,0,l,{
name = hr00;
})
);
}
);
width = 1690;
}
);
unicode = 77;
},
{
glyphname = N;
lastChange = "2022-01-21 13:11:03 +0000";
layers = (
{
anchors = (
{
name = bottom;
pos = (727,0);
},
{
name = top;
pos = (1053,1966);
}
);
layerId = "586BE664-8D6A-4867-BE1B-390608DE01EA";
shapes = (
{
closed = 1;
nodes = (
(1397,0,l),
(1723,1966,l),
(1360,1966,l),
(1140,648,l),
(1112,648,l),
(884,1966,l),
(383,1966,l),
(56,0,l),
(420,0,l),
(639,1318,l),
(667,1318,l),
(895,0,l,{
name = hr00;
})
);
}
);
width = 1690;
},
{
anchors = (
{
name = bottom;
pos = (715,0);
},
{
name = top;
pos = (1045,1966);
}
);
layerId = "9AAD14F8-FE06-4230-ACE0-3E9D6F8A5A9E";
shapes = (
{
closed = 1;
nodes = (
(1338,0,l),
(1667,1966,l),
(1453,1966,l),
(1169,270,l),
(1149,270,l),
(774,1966,l),
(439,1966,l),
(110,0,l),
(324,0,l),
(608,1695,l),
(628,1695,l),
(1002,0,l,{
name = hr00;
})
);
}
);
width = 1690;
},
{
anchors = (
{
name = bottom;
pos = (727,0);
},
{
name = top;
pos = (1053,1966);
}
);
layerId = "B042A474-670A-4404-9662-903C467C1F9E";
shapes = (
{
closed = 1;
nodes = (
(1293,0,l),
(1619,1966,l),
(1560,1966,l),
(1245,73,l),
(1236,73,l),
(574,1966,l),
(482,1966,l),
(155,0,l),
(214,0,l),
(529,1892,l),
(538,1892,l),
(1200,0,l,{
name = hr00;
})
);
}
);
width = 1690;
}
);
unicode = 78;
},
{
glyphname = Eng;
lastChange = "2022-01-21 13:11:03 +0000";
layers = (
{
layerId = "586BE664-8D6A-4867-BE1B-390608DE01EA";
shapes = (
{
closed = 1;
nodes = (
(639,1318,l),
(667,1318,l),
(895,0,l),
(1039,0,l),
(994,-270,l),
(952,-282,l),
(712,-20,l),
(462,-220,l),
(549,-324,ls),
(704,-510,o),
(783,-597,o),
(972,-597,cs),
(1194,-597,o),
(1318,-467,o),
(1374,-130,cs),
(1723,1966,l),
(1360,1966,l),
(1140,648,l),
(1112,648,l),
(884,1966,l),
(383,1966,l),
(56,0,l),
(420,0,l,{
name = hr00;
})
);
}
);
width = 1690;
},
{
layerId = "9AAD14F8-FE06-4230-ACE0-3E9D6F8A5A9E";
shapes = (
{
closed = 1;
nodes = (
(608,1695,l),
(628,1695,l),
(1002,0,l),
(1121,0,l),
(1053,-389,l),
(1002,-400,l),
(710,-90,l),
(560,-225,l),
(659,-332,ls),
(814,-498,o),
(898,-597,o),
(1017,-597,cs),
(1186,-597,o),
(1262,-459,o),
(1287,-301,cs),
(1667,1966,l),
(1453,1966,l),
(1169,270,l),
(1149,270,l),
(774,1966,l),
(439,1966,l),
(110,0,l),
(324,0,l,{
name = hr00;
})
);
}
);
width = 1690;
},
{
layerId = "B042A474-670A-4404-9662-903C467C1F9E";
shapes = (
{
closed = 1;
nodes = (
(529,1892,l),
(538,1892,l),
(1200,0,l),
(1233,0,l),
(1143,-535,l),
(1126,-541,l),
(653,-132,l),
(614,-172,l),
(1048,-549,ls),
(1081,-580,o),
(1107,-597,o),
(1135,-597,cs),
(1180,-597,o),
(1197,-566,o),
(1208,-501,cs),
(1619,1966,l),
(1560,1966,l),
(1245,73,l),
(1236,73,l),
(574,1966,l),
(482,1966,l),
(155,0,l),
(214,0,l,{
name = hr00;
})
);
}
);
width = 1690;
}
);
unicode = 330;
},
{
glyphname = O;
lastChange = "2022-01-21 13:11:03 +0000";
layers = (
{
anchors = (
{
name = bottom;
pos = (746,0);
},
{
name = top;
pos = (1008,1966);
}
);
layerId = "586BE664-8D6A-4867-BE1B-390608DE01EA";
shapes = (
{
closed = 1;
nodes = (
(1411,-34,o),
(1667,591,o),
(1667,1259,cs),
(1667,1718,o),
(1459,1999,o),
(983,1999,cs),
(358,1999,o),
(101,1374,o),
(101,707,cs),
(101,248,o),
(310,-34,o),
(786,-34,cs,{
name = hr00;
})
);
},
{
closed = 1;
nodes = (
(608,304,o),
(527,420,o),
(527,614,cs),
(527,684,o),
(532,749,o),
(543,817,cs),
(600,1155,ls),
(653,1476,o),
(746,1661,o),
(983,1661,cs),
(1160,1661,o),
(1242,1546,o),
(1242,1352,cs),
(1242,1281,o),
(1236,1217,o),
(1225,1149,cs),
(1169,811,ls),
(1115,490,o),
(1022,304,o),
(786,304,cs)
);
}
);
width = 1690;
},
{
anchors = (
{
name = bottom;
pos = (741,0);
},
{
name = top;
pos = (1028,1966);
}
);
layerId = "9AAD14F8-FE06-4230-ACE0-3E9D6F8A5A9E";
shapes = (
{
closed = 1;
nodes = (
(1436,-34,o),
(1605,836,o),
(1605,1332,cs),
(1605,1760,o),
(1431,1999,o),
(1048,1999,cs),
(344,1999,o),
(175,1129,o),
(175,634,cs),
(175,206,o),
(349,-34,o),
(732,-34,cs,{
name = hr00;
})
);
},
{
closed = 1;
nodes = (
(501,169,o),
(403,324,o),
(403,591,cs),
(403,656,o),
(408,738,o),
(422,822,cs),
(476,1143,ls),
(543,1546,o),
(729,1797,o),
(1031,1797,cs),
(1278,1797,o),
(1377,1642,o),
(1377,1374,cs),
(1377,1309,o),
(1371,1228,o),
(1357,1143,cs),
(1304,822,ls),
(1236,420,o),
(1050,169,o),
(749,169,cs)
);
}
);
width = 1690;
},
{
anchors = (
{
name = bottom;
pos = (738,0);
},
{
name = top;
pos = (1039,1966);
}
);
layerId = "B042A474-670A-4404-9662-903C467C1F9E";
shapes = (
{
closed = 1;
nodes = (
(1312,-34,o),
(1549,667,o),
(1549,1349,cs),
(1549,1802,o),
(1366,1999,o),
(1025,1999,cs),
(451,1999,o),
(214,1298,o),
(214,617,cs),
(214,163,o),
(397,-34,o),
(738,-34,cs,{
name = hr00;
})
);
},
{
closed = 1;
nodes = (
(411,23,o),
(273,222,o),
(273,617,cs),
(273,712,o),
(276,819,o),
(296,932,cs),
(324,1098,ls),
(417,1639,o),
(667,1943,o),
(1025,1943,cs),
(1352,1943,o),
(1490,1743,o),
(1490,1349,cs),
(1490,1253,o),
(1487,1146,o),
(1467,1033,cs),
(1439,867,ls),
(1346,327,o),
(1095,23,o),
(738,23,cs)
);
}
);
width = 1690;
}
);
unicode = 79;
},
{
glyphname = Ohorn;
lastChange = "2022-01-21 13:11:03 +0000";
layers = (
{
anchors = (
{
name = bottom;
pos = (746,0);
},
{
name = top;
pos = (1008,1966);
}
);
layerId = "586BE664-8D6A-4867-BE1B-390608DE01EA";
shapes = (
{
closed = 1;
nodes = (
(1571,2289,l),
(1515,1966,l),
(1239,1966,l),
(1166,1988,o),
(1079,1999,o),
(983,1999,cs,{
name = hr01;
}),
(358,1999,o),
(101,1374,o),
(101,707,cs),
(101,248,o),
(310,-34,o),
(786,-34,cs),
(1411,-34,o),
(1667,591,o),
(1667,1259,cs),
(1667,1442,o),
(1633,1599,o),
(1560,1721,c,{
name = hr02;
}),
(1566,1721,ls),
(1768,1721,o),
(1839,1822,o),
(1870,1999,cs,{
name = hr03;
}),
(1918,2289,l)
);
},
{
closed = 1;
nodes = (
(608,304,o),
(527,420,o),
(527,614,cs),
(527,684,o),
(532,749,o),
(543,817,cs),
(600,1155,ls),
(653,1476,o),
(746,1661,o),
(983,1661,cs),
(1160,1661,o),
(1242,1546,o),
(1242,1352,cs),
(1242,1281,o),
(1236,1217,o),
(1225,1149,cs),
(1169,811,ls),
(1115,490,o),
(1022,304,o),
(786,304,cs)
);
}
);
width = 1690;
},
{
anchors = (
{
name = bottom;
pos = (741,0);
},
{
name = top;
pos = (1028,1966);
}
);
layerId = "9AAD14F8-FE06-4230-ACE0-3E9D6F8A5A9E";
shapes = (
{
closed = 1;
nodes = (
(1554,2278,l),
(1504,1966,l),
(1270,1966,l),
(1205,1988,o),
(1132,1999,o),
(1048,1999,cs,{
name = hr01;
}),
(344,1999,o),
(175,1129,o),
(175,634,cs),
(175,206,o),
(349,-34,o),
(732,-34,cs),
(1436,-34,o),
(1605,836,o),
(1605,1332,cs),
(1605,1540,o),
(1566,1704,o),
(1459,1819,c,{
name = hr02;
}),
(1498,1819,ls),
(1636,1819,o),
(1684,1898,o),
(1701,1994,cs),
(1749,2278,l)
);
},
{
closed = 1;
nodes = (
(501,169,o),
(403,324,o),
(403,591,cs),
(403,656,o),
(408,738,o),
(422,822,cs),
(476,1143,ls),
(543,1546,o),
(729,1797,o),
(1031,1797,cs,{
name = hr03;
}),
(1278,1797,o),
(1377,1642,o),
(1377,1374,cs),
(1377,1309,o),
(1371,1228,o),
(1357,1143,cs),
(1304,822,ls),
(1236,420,o),
(1050,169,o),
(749,169,cs)
);
}
);
width = 1690;
},
{
anchors = (
{
name = bottom;
pos = (738,0);
},
{
name = top;
pos = (1039,1966);
}
);
layerId = "B042A474-670A-4404-9662-903C467C1F9E";
shapes = (
{
closed = 1;
nodes = (
(1614,2278,l),
(1563,1966,l),
(1239,1966,l),
(1177,1988,o),
(1104,1999,o),
(1025,1999,cs,{
name = hr01;
}),
(451,1999,o),
(214,1298,o),
(214,617,cs),
(214,163,o),
(397,-34,o),
(738,-34,cs),
(1312,-34,o),
(1549,667,o),
(1549,1349,cs),
(1549,1633,o),
(1476,1816,o),
(1335,1915,c,{
name = hr02;
}),
(1529,1915,ls),
(1588,1915,o),
(1619,1940,o),
(1628,1997,cs),
(1673,2278,l)
);
},
{
closed = 1;
nodes = (
(411,23,o),
(273,222,o),
(273,617,cs),
(273,712,o),
(276,819,o),
(296,932,cs),
(324,1098,ls),
(417,1639,o),
(667,1943,o),
(1025,1943,cs,{
name = hr03;
}),
(1352,1943,o),
(1490,1743,o),
(1490,1349,cs),
(1490,1253,o),
(1487,1146,o),
(1467,1033,cs),
(1439,867,ls),
(1346,327,o),
(1095,23,o),
(738,23,cs)
);
}
);
width = 1690;
}
);
unicode = 416;
},
{
glyphname = Oslash;
lastChange = "2022-01-21 13:11:03 +0000";
layers = (
{
anchors = (
{
name = top;
pos = (1002,1966);
}
);
layerId = "586BE664-8D6A-4867-BE1B-390608DE01EA";
shapes = (
{
closed = 1;
nodes = (
(372,73,l),
(476,3,o),
(614,-34,o),
(786,-34,cs,{
name = hr00;
}),
(1411,-34,o),
(1667,591,o),
(1667,1259,cs),
(1667,1416,o),
(1645,1554,o),
(1591,1664,c),
(1844,1994,l),
(1597,2154,l),
(1397,1892,l),
(1293,1963,o),
(1155,1999,o),
(983,1999,cs),
(358,1999,o),
(101,1374,o),
(101,707,cs),
(101,549,o),
(124,411,o),
(177,301,c),
(-76,-28,l),
(172,-189,l)
);
},
{
closed = 1;
nodes = (
(696,301,o),
(628,332,o),
(583,383,c),
(1247,1250,l),
(1247,1233,o),
(1245,1219,o),
(1245,1202,cs),
(1242,1171,o),
(1239,1124,o),
(1225,1042,cs),
(1183,811,ls),
(1124,490,o),
(1022,301,o),
(786,301,cs)
);
},
{
closed = 1;
nodes = (
(521,746,o),
(524,774,o),
(532,819,cs),
(543,881,o),
(555,952,o),
(560,991,cs),
(589,1155,ls),
(645,1476,o),
(746,1664,o),
(983,1664,cs),
(1073,1664,o),
(1140,1633,o),
(1186,1583,c),
(521,715,l)
);
}
);
width = 1690;
},
{
anchors = (
{
name = top;
pos = (1028,1966);
}
);
layerId = "9AAD14F8-FE06-4230-ACE0-3E9D6F8A5A9E";
shapes = (
{
closed = 1;
nodes = (
(341,104,l),
(434,14,o),
(560,-34,o),
(732,-34,cs,{
name = hr00;
}),
(1436,-34,o),
(1605,836,o),
(1605,1332,cs),
(1605,1476,o),
(1585,1597,o),
(1546,1695,c),
(1752,1966,l),
(1591,2067,l),
(1439,1861,l),
(1346,1951,o),
(1219,1999,o),
(1048,1999,cs),
(344,1999,o),
(175,1129,o),
(175,634,cs),
(175,490,o),
(194,369,o),
(234,270,c),
(28,0,l),
(189,-101,l)
);
},
{
closed = 1;
nodes = (
(622,169,o),
(529,211,o),
(476,287,c),
(1371,1473,l),
(1377,1442,o),
(1377,1411,o),
(1377,1374,cs),
(1377,1309,o),
(1371,1228,o),
(1357,1143,cs),
(1304,822,ls),
(1236,420,o),
(1050,169,o),
(749,169,cs)
);
},
{
closed = 1;
nodes = (
(403,524,o),
(403,555,o),
(403,591,cs),
(403,656,o),
(408,738,o),
(422,822,cs),
(476,1143,ls),
(543,1546,o),
(729,1797,o),
(1031,1797,cs),
(1157,1797,o),
(1250,1754,o),
(1304,1678,c),
(408,493,l)
);
}
);
width = 1690;
},
{
anchors = (
{
name = top;
pos = (1039,1966);
}
);
layerId = "B042A474-670A-4404-9662-903C467C1F9E";
shapes = (
{
closed = 1;
nodes = (
(318,163,l),
(400,34,o),
(546,-34,o),
(727,-34,cs,{
name = hr00;
}),
(1312,-34,o),
(1549,667,o),
(1549,1321,cs),
(1549,1546,o),
(1521,1650,o),
(1476,1749,c),
(1647,1985,l),
(1602,2016,l),
(1445,1802,l),
(1363,1932,o),
(1217,1999,o),
(1036,1999,cs),
(451,1999,o),
(214,1298,o),
(214,645,cs),
(214,420,o),
(242,315,o),
(287,217,c),
(115,-20,l),
(161,-51,l)
);
},
{
closed = 1;
nodes = (
(555,23,o),
(428,87,o),
(355,214,c),
(1436,1695,l),
(1473,1605,o),
(1490,1495,o),
(1490,1335,cs),
(1490,1270,o),
(1473,1042,o),
(1470,1033,cs),
(1439,867,ls),
(1338,321,o),
(1095,23,o),
(727,23,cs)
);
},
{
closed = 1;
nodes = (
(290,360,o),
(273,470,o),
(273,631,cs),
(273,696,o),
(287,876,o),
(296,932,cs),
(324,1098,ls),
(417,1647,o),
(667,1943,o),
(1036,1943,cs),
(1208,1943,o),
(1335,1878,o),
(1408,1752,c),
(327,270,l)
);
}
);
width = 1690;
}
);
unicode = 216;
},
{
glyphname = OE;
lastChange = "2022-01-21 13:11:03 +0000";
layers = (
{
layerId = "586BE664-8D6A-4867-BE1B-390608DE01EA";
shapes = (
{
closed = 1;
nodes = (
(1698,310,l),
(1262,310,l),
(1352,839,l),
(1760,839,l),
(1811,1149,l),
(1402,1149,l),
(1487,1656,l),
(1923,1656,l),
(1974,1966,l),
(1107,1966,ls),
(467,1966,o),
(166,1453,o),
(166,727,cs),
(166,265,o),
(366,0,o),
(780,0,c),
(1647,0,l,{
name = hr00;
})
);
},
{
closed = 1;
nodes = (
(859,310,ls),
(653,310,o),
(555,422,o),
(555,642,cs),
(555,693,o),
(560,749,o),
(572,817,cs),
(634,1186,ls),
(690,1523,o),
(831,1656,o),
(1084,1656,cs),
(1104,1656,l),
(879,310,l)
);
}
);
width = 1690;
},
{
layerId = "9AAD14F8-FE06-4230-ACE0-3E9D6F8A5A9E";
shapes = (
{
closed = 1;
nodes = (
(1478,194,l),
(1005,194,l),
(1121,898,l),
(1557,898,l),
(1588,1093,l),
(1155,1093,l),
(1267,1771,l),
(1735,1771,l),
(1768,1966,l),
(1019,1966,ls),
(470,1966,o),
(118,1515,o),
(118,710,cs),
(118,245,o),
(324,0,o),
(735,0,cs),
(1445,0,l,{
name = hr00;
})
);
},
{
closed = 1;
nodes = (
(774,194,ls),
(498,194,o),
(344,344,o),
(344,639,cs),
(344,704,o),
(355,794,o),
(363,856,cs),
(400,1126,ls),
(453,1529,o),
(681,1771,o),
(994,1771,cs),
(1045,1771,l),
(780,194,l)
);
}
);
width = 1690;
},
{
layerId = "B042A474-670A-4404-9662-903C467C1F9E";
shapes = (
{
closed = 1;
nodes = (
(1439,56,l),
(873,56,l),
(1025,969,l),
(1552,969,l),
(1560,1025,l),
(1033,1025,l),
(1183,1909,l),
(1749,1909,l),
(1757,1966,l),
(1070,1966,ls),
(490,1966,o),
(172,1383,o),
(172,732,cs),
(172,248,o),
(358,0,o),
(760,0,cs),
(1431,0,l,{
name = hr00;
})
);
},
{
closed = 1;
nodes = (
(758,56,ls),
(394,56,o),
(231,268,o),
(231,732,cs),
(231,788,o),
(234,853,o),
(245,921,cs),
(273,1098,ls),
(346,1563,o),
(656,1909,o),
(1053,1909,cs),
(1121,1909,l),
(811,56,l)
);
}
);
width = 1690;
}
);
unicode = 338;
},
{
glyphname = P;
lastChange = "2022-01-21 13:11:03 +0000";
layers = (
{
anchors = (
{
name = bottom;
pos = (310,0);
},
{
name = top;
pos = (1022,1966);
}
);
layerId = "586BE664-8D6A-4867-BE1B-390608DE01EA";
shapes = (
{
closed = 1;
nodes = (
(642,721,l),
(977,721,ls),
(1402,721,o),
(1678,997,o),
(1678,1445,cs),
(1678,1749,o),
(1492,1966,o),
(1143,1966,cs),
(434,1966,l),
(104,0,l),
(521,0,l,{
name = hr00;
})
);
},
{
closed = 1;
nodes = (
(1014,1630,ls),
(1180,1630,o),
(1245,1580,o),
(1245,1453,cs),
(1245,1422,o),
(1242,1394,o),
(1239,1377,cs),
(1225,1293,ls),
(1197,1124,o),
(1110,1059,o),
(918,1059,cs),
(698,1059,l),
(794,1630,l)
);
}
);
width = 1690;
},
{
anchors = (
{
name = bottom;
pos = (248,0);
},
{
name = top;
pos = (1062,1966);
}
);
layerId = "9AAD14F8-FE06-4230-ACE0-3E9D6F8A5A9E";
shapes = (
{
closed = 1;
nodes = (
(504,836,l),
(1000,836,ls),
(1411,836,o),
(1645,1087,o),
(1645,1504,cs),
(1645,1777,o),
(1492,1966,o),
(1163,1966,cs),
(462,1966,l),
(132,0,l),
(363,0,l,{
name = hr00;
})
);
},
{
closed = 1;
nodes = (
(1135,1763,ls),
(1307,1763,o),
(1408,1684,o),
(1408,1529,cs),
(1408,1492,o),
(1405,1453,o),
(1400,1419,cs),
(1383,1318,ls),
(1354,1149,o),
(1233,1039,o),
(1022,1039,cs),
(538,1039,l),
(659,1763,l)
);
}
);
width = 1690;
},
{
anchors = (
{
name = bottom;
pos = (214,0);
},
{
name = top;
pos = (1059,1966);
}
);
layerId = "B042A474-670A-4404-9662-903C467C1F9E";
shapes = (
{
closed = 1;
nodes = (
(397,907,l),
(1045,907,ls),
(1414,907,o),
(1611,1157,o),
(1611,1540,cs),
(1611,1783,o),
(1445,1966,o),
(1169,1966,cs),
(510,1966,l),
(183,0,l),
(245,0,l,{
name = hr00;
})
);
},
{
closed = 1;
nodes = (
(1169,1909,ls),
(1431,1909,o),
(1549,1735,o),
(1549,1540,cs),
(1549,1515,o),
(1546,1492,o),
(1543,1467,cs),
(1526,1363,ls),
(1490,1132,o),
(1335,963,o),
(1045,963,cs),
(406,963,l),
(563,1909,l)
);
}
);
width = 1690;
}
);
unicode = 80;
},
{
glyphname = Thorn;
lastChange = "2022-01-21 13:11:03 +0000";
layers = (
{
layerId = "586BE664-8D6A-4867-BE1B-390608DE01EA";
shapes = (
{
closed = 1;
nodes = (
(572,377,l),
(907,377,ls),
(1332,377,o),
(1608,653,o),
(1608,1101,cs),
(1608,1405,o),
(1422,1622,o),
(1073,1622,cs),
(783,1622,l),
(839,1966,l),
(422,1966,l),
(93,0,l),
(510,0,l,{
name = hr00;
})
);
},
{
closed = 1;
nodes = (
(943,1287,ls),
(1110,1287,o),
(1174,1236,o),
(1174,1110,cs),
(1174,1079,o),
(1171,1050,o),
(1169,1033,cs),
(1155,949,ls),
(1126,780,o),
(1039,715,o),
(848,715,cs),
(628,715,l),
(724,1287,l)
);
}
);
width = 1690;
},
{
layerId = "9AAD14F8-FE06-4230-ACE0-3E9D6F8A5A9E";
shapes = (
{
closed = 1;
nodes = (
(439,434,l),
(932,434,ls),
(1343,434,o),
(1577,684,o),
(1577,1101,cs),
(1577,1374,o),
(1425,1563,o),
(1095,1563,cs),
(628,1563,l),
(696,1966,l),
(465,1966,l),
(135,0,l),
(366,0,l,{
name = hr00;
})
);
},
{
closed = 1;
nodes = (
(1067,1360,ls),
(1239,1360,o),
(1340,1281,o),
(1340,1126,cs),
(1340,1090,o),
(1338,1050,o),
(1332,1017,cs),
(1315,915,ls),
(1287,746,o),
(1166,636,o),
(955,636,cs),
(473,636,l),
(594,1360,l)
);
}
);
width = 1690;
},
{
layerId = "B042A474-670A-4404-9662-903C467C1F9E";
shapes = (
{
closed = 1;
nodes = (
(324,470,l),
(972,470,ls),
(1340,470,o),
(1538,721,o),
(1538,1104,cs),
(1538,1346,o),
(1371,1529,o),
(1095,1529,cs),
(498,1529,l),
(572,1966,l),
(510,1966,l),
(183,0,l),
(245,0,l,{
name = hr00;
})
);
},
{
closed = 1;
nodes = (
(1095,1473,ls),
(1357,1473,o),
(1476,1298,o),
(1476,1104,cs),
(1476,1079,o),
(1473,1056,o),
(1470,1031,cs),
(1453,926,ls),
(1416,696,o),
(1262,527,o),
(972,527,cs),
(332,527,l),
(490,1473,l)
);
}
);
width = 1690;
}
);
unicode = 222;
},
{
glyphname = Q;
lastChange = "2022-01-21 13:11:03 +0000";
layers = (
{
anchors = (
{
name = top;
pos = (1008,1966);
}
);
layerId = "586BE664-8D6A-4867-BE1B-390608DE01EA";
shapes = (
{
closed = 1;
nodes = (
(1270,-577,o),
(1354,-538,o),
(1521,-355,cs),
(1656,-206,l),
(1442,-11,l),
(1202,-248,l),
(1157,-237,l),
(1005,-6,l),
(1473,124,o),
(1667,676,o),
(1667,1259,cs),
(1667,1718,o),
(1459,1999,o),
(983,1999,cs),
(358,1999,o),
(101,1374,o),
(101,707,cs),
(101,310,o),
(256,48,o),
(605,-17,c),
(867,-411,ls),
(929,-501,o),
(1002,-577,o),
(1143,-577,cs,{
name = hr00;
})
);
},
{
closed = 1;
nodes = (
(608,304,o),
(527,420,o),
(527,614,cs),
(527,684,o),
(532,749,o),
(543,817,cs),
(600,1155,ls),
(653,1476,o),
(746,1661,o),
(983,1661,cs),
(1160,1661,o),
(1242,1546,o),
(1242,1352,cs),
(1242,1281,o),
(1236,1217,o),
(1225,1149,cs),
(1169,811,ls),
(1115,490,o),
(1022,304,o),
(786,304,cs)
);
}
);
width = 1690;
},
{
anchors = (
{
name = top;
pos = (1028,1966);
}
);
layerId = "9AAD14F8-FE06-4230-ACE0-3E9D6F8A5A9E";
shapes = (
{
closed = 1;
nodes = (
(1186,-513,o),
(1242,-459,o),
(1363,-344,cs),
(1535,-180,l),
(1411,-76,l),
(1129,-329,l),
(1093,-321,l),
(890,-17,l),
(1456,99,o),
(1605,865,o),
(1605,1332,cs),
(1605,1760,o),
(1431,1999,o),
(1048,1999,cs),
(344,1999,o),
(175,1129,o),
(175,634,cs),
(175,239,o),
(321,3,o),
(645,-28,c),
(890,-386,ls),
(941,-459,o),
(994,-513,o),
(1081,-513,cs,{
name = hr00;
})
);
},
{
closed = 1;
nodes = (
(501,169,o),
(403,324,o),
(403,591,cs),
(403,656,o),
(408,738,o),
(422,822,cs),
(476,1143,ls),
(543,1546,o),
(729,1797,o),
(1031,1797,cs),
(1278,1797,o),
(1377,1642,o),
(1377,1374,cs),
(1377,1309,o),
(1371,1228,o),
(1357,1143,cs),
(1304,822,ls),
(1236,420,o),
(1050,169,o),
(749,169,cs)
);
}
);
width = 1690;
},
{
anchors = (
{
name = top;
pos = (1039,1966);
}
);
layerId = "B042A474-670A-4404-9662-903C467C1F9E";
shapes = (
{
closed = 1;
nodes = (
(1073,-476,o),
(1093,-470,o),
(1112,-453,cs),
(1447,-166,l),
(1411,-132,l),
(1064,-422,l),
(1056,-422,l),
(791,-31,l),
(1326,8,o),
(1549,690,o),
(1549,1349,cs),
(1549,1802,o),
(1366,1999,o),
(1025,1999,cs),
(451,1999,o),
(214,1298,o),
(214,617,cs),
(214,172,o),
(391,-28,o),
(721,-34,c),
(997,-439,ls),
(1014,-465,o),
(1033,-476,o),
(1056,-476,cs,{
name = hr00;
})
);
},
{
closed = 1;
nodes = (
(411,23,o),
(273,222,o),
(273,617,cs),
(273,712,o),
(276,819,o),
(296,932,cs),
(324,1098,ls),
(417,1639,o),
(667,1943,o),
(1025,1943,cs),
(1352,1943,o),
(1490,1743,o),
(1490,1349,cs),
(1490,1253,o),
(1487,1146,o),
(1467,1033,cs),
(1439,867,ls),
(1346,327,o),
(1095,23,o),
(738,23,cs)
);
}
);
width = 1690;
}
);
unicode = 81;
},
{
glyphname = R;
lastChange = "2022-01-21 13:11:03 +0000";
layers = (
{
anchors = (
{
name = bottom;
pos = (774,0);
},
{
name = top;
pos = (997,1966);
}
);
layerId = "586BE664-8D6A-4867-BE1B-390608DE01EA";
shapes = (
{
closed = 1;
nodes = (
(814,732,l),
(1031,0,l),
(1470,0,l),
(1202,774,l),
(1239,786,l),
(1509,879,o),
(1673,1110,o),
(1673,1442,cs),
(1673,1754,o),
(1487,1966,o),
(1138,1966,cs),
(428,1966,l),
(99,0,l),
(510,0,l),
(634,732,l,{
name = hr00;
})
);
},
{
closed = 1;
nodes = (
(783,1630,l),
(1017,1630,ls),
(1155,1630,o),
(1239,1574,o),
(1239,1445,cs),
(1239,1416,o),
(1236,1385,o),
(1231,1352,cs),
(1219,1284,ls),
(1194,1121,o),
(1115,1059,o),
(912,1059,cs),
(687,1059,l)
);
}
);
width = 1690;
},
{
anchors = (
{
name = bottom;
pos = (746,0);
},
{
name = top;
pos = (997,1966);
}
);
layerId = "9AAD14F8-FE06-4230-ACE0-3E9D6F8A5A9E";
shapes = (
{
closed = 1;
nodes = (
(825,842,l),
(1160,0,l),
(1411,0,l),
(1053,850,l),
(1107,856,l),
(1445,898,o),
(1645,1132,o),
(1645,1504,cs),
(1645,1777,o),
(1492,1966,o),
(1163,1966,cs),
(462,1966,l),
(132,0,l),
(363,0,l),
(504,842,l,{
name = hr00;
})
);
},
{
closed = 1;
nodes = (
(659,1763,l),
(1135,1763,ls),
(1307,1763,o),
(1408,1684,o),
(1408,1529,cs),
(1408,1492,o),
(1405,1453,o),
(1400,1419,cs),
(1383,1318,ls),
(1352,1132,o),
(1214,1039,o),
(1022,1039,cs),
(538,1039,l)
);
}
);
width = 1690;
},
{
anchors = (
{
name = bottom;
pos = (727,0);
},
{
name = top;
pos = (1025,1966);
}
);
layerId = "B042A474-670A-4404-9662-903C467C1F9E";
shapes = (
{
closed = 1;
nodes = (
(853,907,l),
(1281,0,l),
(1346,0,l),
(915,907,l),
(1045,907,ls),
(1414,907,o),
(1611,1157,o),
(1611,1540,cs),
(1611,1783,o),
(1445,1966,o),
(1169,1966,cs),
(510,1966,l),
(183,0,l),
(245,0,l),
(397,907,l,{
name = hr00;
})
);
},
{
closed = 1;
nodes = (
(563,1909,l),
(1169,1909,ls),
(1431,1909,o),
(1549,1735,o),
(1549,1540,cs),
(1549,1515,o),
(1546,1492,o),
(1543,1467,cs),
(1526,1363,ls),
(1490,1132,o),
(1335,963,o),
(1045,963,cs),
(406,963,l)
);
}
);
width = 1690;
}
);
unicode = 82;
},
{
glyphname = S;
lastChange = "2022-01-21 13:11:03 +0000";
layers = (
{
anchors = (
{
name = bottom;
pos = (758,0);
},
{
name = top;
pos = (1033,1966);
}
);
layerId = "586BE664-8D6A-4867-BE1B-390608DE01EA";
shapes = (
{
closed = 1;
nodes = (
(1253,-34,o),
(1540,245,o),
(1540,648,cs),
(1540,915,o),
(1408,1076,o),
(1129,1146,cs),
(943,1194,ls),
(769,1239,o),
(707,1290,o),
(707,1402,cs),
(707,1560,o),
(808,1661,o),
(1014,1661,cs),
(1183,1661,o),
(1315,1591,o),
(1400,1473,c),
(1673,1723,l),
(1560,1895,o),
(1315,1999,o),
(1033,1999,cs),
(566,1999,o),
(276,1746,o),
(276,1357,cs),
(276,1115,o),
(400,929,o),
(684,865,cs),
(879,819,ls),
(1036,783,o),
(1107,729,o),
(1107,600,cs),
(1107,420,o),
(994,310,o),
(780,310,cs),
(605,310,o),
(411,383,o),
(296,532,c),
(34,268,l),
(152,79,o),
(431,-34,o),
(755,-34,cs,{
name = hr00;
})
);
}
);
width = 1690;
},
{
anchors = (
{
name = bottom;
pos = (758,0);
},
{
name = top;
pos = (1002,1966);
}
);
layerId = "9AAD14F8-FE06-4230-ACE0-3E9D6F8A5A9E";
shapes = (
{
closed = 1;
nodes = (
(1208,-34,o),
(1498,225,o),
(1498,597,cs),
(1498,836,o),
(1380,1000,o),
(1053,1076,cs),
(848,1124,ls),
(639,1171,o),
(529,1250,o),
(529,1431,cs),
(529,1659,o),
(704,1802,o),
(988,1802,cs),
(1211,1802,o),
(1363,1715,o),
(1473,1552,c),
(1642,1676,l),
(1540,1853,o),
(1340,1999,o),
(1000,1999,cs),
(580,1999,o),
(293,1777,o),
(293,1414,cs),
(293,1160,o),
(431,1002,o),
(741,932,cs),
(952,884,ls),
(1180,834,o),
(1262,738,o),
(1262,577,cs),
(1262,327,o),
(1067,166,o),
(760,166,cs),
(524,166,o),
(366,262,o),
(245,451,c),
(70,313,l),
(186,110,o),
(408,-34,o),
(749,-34,cs,{
name = hr00;
})
);
}
);
width = 1690;
},
{
anchors = (
{
name = bottom;
pos = (721,0);
},
{
name = top;
pos = (988,1966);
}
);
layerId = "B042A474-670A-4404-9662-903C467C1F9E";
shapes = (
{
closed = 1;
nodes = (
(1166,-34,o),
(1425,172,o),
(1425,552,cs),
(1425,791,o),
(1293,943,o),
(1011,1008,cs),
(769,1064,ls),
(515,1124,o),
(406,1242,o),
(406,1462,cs),
(406,1780,o),
(625,1943,o),
(969,1943,cs),
(1278,1943,o),
(1433,1875,o),
(1540,1692,c),
(1591,1723,l),
(1490,1901,o),
(1324,1999,o),
(972,1999,cs),
(603,1999,o),
(344,1816,o),
(344,1462,cs),
(344,1222,o),
(470,1073,o),
(749,1008,cs),
(991,952,ls),
(1250,893,o),
(1360,772,o),
(1360,552,cs),
(1360,214,o),
(1140,23,o),
(774,23,cs),
(431,23,o),
(270,135,o),
(152,321,c),
(104,284,l),
(225,93,o),
(408,-34,o),
(772,-34,cs,{
name = hr00;
})
);
}
);
width = 1690;
}
);
unicode = 83;
},
{
glyphname = Scedilla;
lastChange = "2022-01-21 13:11:03 +0000";
layers = (
{
layerId = "586BE664-8D6A-4867-BE1B-390608DE01EA";
shapes = (
{
closed = 1;
nodes = (
(935,-597,o),
(1110,-501,o),
(1110,-310,cs),
(1110,-208,o),
(1028,-146,o),
(924,-146,cs),
(887,-146,o),
(848,-152,o),
(805,-166,c),
(797,-155,l),
(842,-31,l),
(1287,0,o),
(1540,268,o),
(1540,648,cs,{
name = hr01;
}),
(1540,915,o),
(1408,1076,o),
(1129,1146,cs),
(943,1194,ls),
(769,1239,o),
(707,1290,o),
(707,1402,cs),
(707,1560,o),
(808,1661,o),
(1014,1661,cs),
(1183,1661,o),
(1315,1591,o),
(1400,1473,c),
(1673,1723,l),
(1560,1895,o),
(1315,1999,o),
(1033,1999,cs),
(566,1999,o),
(276,1746,o),
(276,1357,cs),
(276,1115,o),
(400,929,o),
(684,865,cs),
(879,819,ls),
(1036,783,o),
(1107,729,o),
(1107,600,cs),
(1107,420,o),
(994,310,o),
(780,310,cs),
(605,310,o),
(411,383,o),
(296,532,c),
(34,268,l),
(138,99,o),
(369,-6,o),
(650,-31,c),
(583,-208,l),
(648,-214,ls),
(794,-228,o),
(839,-268,o),
(839,-315,cs,{
name = hr02;
}),
(839,-372,o),
(780,-397,o),
(698,-397,cs),
(614,-397,o),
(555,-352,o),
(527,-318,c),
(383,-467,l),
(436,-538,o),
(549,-597,o),
(707,-597,cs)
);
}
);
width = 1690;
},
{
layerId = "9AAD14F8-FE06-4230-ACE0-3E9D6F8A5A9E";
shapes = (
{
closed = 1;
nodes = (
(887,-583,o),
(1039,-510,o),
(1039,-335,cs),
(1039,-225,o),
(977,-169,o),
(873,-169,cs),
(850,-169,o),
(808,-172,o),
(769,-180,c),
(763,-172,l),
(811,-31,l),
(1233,-8,o),
(1498,242,o),
(1498,597,cs),
(1498,836,o),
(1380,1000,o),
(1053,1076,cs),
(848,1124,ls),
(639,1171,o),
(529,1250,o),
(529,1431,cs),
(529,1659,o),
(704,1802,o),
(988,1802,cs),
(1211,1802,o),
(1363,1715,o),
(1473,1552,c),
(1642,1676,l),
(1540,1853,o),
(1340,1999,o),
(1000,1999,cs),
(580,1999,o),
(293,1777,o),
(293,1414,cs),
(293,1160,o),
(431,1002,o),
(741,932,cs),
(952,884,ls),
(1180,834,o),
(1262,738,o),
(1262,577,cs),
(1262,327,o),
(1067,166,o),
(760,166,cs),
(524,166,o),
(366,262,o),
(245,451,c),
(70,313,l),
(177,124,o),
(375,-11,o),
(670,-31,c),
(605,-214,l),
(687,-225,ls),
(831,-245,o),
(856,-296,o),
(856,-335,cs),
(856,-397,o),
(797,-431,o),
(715,-431,cs),
(634,-431,o),
(586,-397,o),
(558,-355,c),
(445,-467,l),
(482,-527,o),
(569,-583,o),
(715,-583,cs,{
name = hr00;
})
);
}
);
width = 1690;
},
{
layerId = "B042A474-670A-4404-9662-903C467C1F9E";
shapes = (
{
closed = 1;
nodes = (
(856,-569,o),
(955,-470,o),
(955,-355,cs),
(955,-262,o),
(893,-203,o),
(788,-203,cs),
(766,-203,o),
(732,-206,o),
(707,-211,c),
(701,-206,l),
(774,-34,l),
(1166,-34,o),
(1425,172,o),
(1425,552,cs),
(1425,791,o),
(1293,943,o),
(1011,1008,cs),
(769,1064,ls),
(515,1124,o),
(406,1242,o),
(406,1462,cs),
(406,1780,o),
(625,1943,o),
(969,1943,cs),
(1278,1943,o),
(1433,1875,o),
(1540,1692,c),
(1591,1723,l),
(1490,1901,o),
(1324,1999,o),
(972,1999,cs),
(603,1999,o),
(344,1816,o),
(344,1462,cs),
(344,1222,o),
(470,1073,o),
(749,1008,cs),
(991,952,ls),
(1250,893,o),
(1360,772,o),
(1360,552,cs),
(1360,214,o),
(1140,23,o),
(774,23,cs),
(431,23,o),
(270,135,o),
(152,321,c),
(104,284,l),
(220,101,o),
(391,-23,o),
(724,-34,c),
(639,-237,l),
(746,-242,ls),
(856,-248,o),
(895,-293,o),
(895,-358,cs),
(895,-451,o),
(817,-518,o),
(696,-518,cs),
(617,-518,o),
(558,-490,o),
(521,-442,c),
(482,-479,l),
(515,-527,o),
(591,-569,o),
(696,-569,cs,{
name = hr00;
})
);
}
);
width = 1690;
}
);
unicode = 350;
},
{
glyphname = Germandbls;
lastChange = "2022-01-21 13:11:03 +0000";
layers = (
{
layerId = "586BE664-8D6A-4867-BE1B-390608DE01EA";
shapes = (
{
closed = 1;
nodes = (
(383,0,l),
(659,1650,l),
(1301,1650,l),
(839,1180,l),
(783,850,l),
(1019,850,ls),
(1160,850,o),
(1214,786,o),
(1214,690,cs),
(1214,662,o),
(1211,611,o),
(1197,552,cs),
(1166,417,o),
(1101,296,o),
(941,296,cs,{
name = hr01;
}),
(856,296,o),
(780,321,o),
(724,394,c),
(479,135,l),
(586,23,o),
(777,-34,o),
(935,-34,cs),
(1422,-34,o),
(1630,377,o),
(1630,710,cs),
(1630,1019,o),
(1414,1138,o),
(1231,1143,c),
(1233,1160,l),
(1673,1602,l),
(1732,1966,l,{
name = hr02;
}),
(296,1966,l),
(-31,0,l)
);
}
);
width = 1690;
},
{
layerId = "9AAD14F8-FE06-4230-ACE0-3E9D6F8A5A9E";
shapes = (
{
closed = 1;
nodes = (
(290,0,l),
(586,1763,l),
(1439,1763,l),
(853,1152,l),
(817,935,l),
(1081,935,ls),
(1273,935,o),
(1366,831,o),
(1366,673,cs),
(1366,645,o),
(1363,617,o),
(1343,498,cs),
(1309,296,o),
(1160,163,o),
(952,163,cs,{
name = hr01;
}),
(808,163,o),
(696,228,o),
(628,344,c),
(448,225,l),
(543,56,o),
(721,-34,o),
(952,-34,cs),
(1388,-34,o),
(1605,296,o),
(1605,636,cs),
(1605,960,o),
(1411,1112,o),
(1101,1124,c),
(1101,1135,l),
(1678,1735,l),
(1718,1966,l,{
name = hr02;
}),
(389,1966,l),
(59,0,l)
);
}
);
width = 1690;
},
{
layerId = "B042A474-670A-4404-9662-903C467C1F9E";
shapes = (
{
closed = 1;
nodes = (
(214,0,l),
(532,1909,l),
(1594,1909,l),
(935,1124,l),
(926,1067,l),
(1000,1067,ls),
(1371,1067,o),
(1538,935,o),
(1538,701,cs),
(1538,667,o),
(1532,631,o),
(1507,476,cs),
(1456,172,o),
(1233,23,o),
(957,23,cs,{
name = hr01;
}),
(715,23,o),
(608,113,o),
(527,253,c),
(476,222,l),
(560,73,o),
(690,-34,o),
(952,-34,cs),
(1366,-34,o),
(1597,259,o),
(1597,679,cs),
(1597,972,o),
(1411,1121,o),
(1011,1121,c),
(1011,1132,l),
(1659,1904,l),
(1670,1966,l,{
name = hr02;
}),
(479,1966,l),
(152,0,l)
);
}
);
width = 1690;
}
);
unicode = 7838;
},
{
glyphname = T;
lastChange = "2022-01-21 13:11:03 +0000";
layers = (
{
anchors = (
{
name = bottom;
pos = (727,0);
},
{
name = top;
pos = (1050,1966);
}
);
layerId = "586BE664-8D6A-4867-BE1B-390608DE01EA";
shapes = (
{
closed = 1;
nodes = (
(1828,1966,l),
(273,1966,l),
(217,1622,l),
(786,1622,l),
(515,0,l),
(932,0,l),
(1202,1622,l),
(1771,1622,l,{
name = hr00;
})
);
}
);
width = 1690;
},
{
anchors = (
{
name = bottom;
pos = (727,0);
},
{
name = top;
pos = (1036,1966);
}
);
layerId = "9AAD14F8-FE06-4230-ACE0-3E9D6F8A5A9E";
shapes = (
{
closed = 1;
nodes = (
(1828,1966,l),
(279,1966,l),
(245,1763,l),
(904,1763,l),
(608,0,l),
(839,0,l),
(1135,1763,l),
(1794,1763,l,{
name = hr00;
})
);
}
);
width = 1690;
},
{
anchors = (
{
name = bottom;
pos = (724,0);
},
{
name = top;
pos = (1050,1966);
}
);
layerId = "B042A474-670A-4404-9662-903C467C1F9E";
shapes = (
{
closed = 1;
nodes = (
(1780,1966,l),
(321,1966,l),
(313,1909,l),
(1011,1909,l),
(693,0,l),
(755,0,l),
(1073,1909,l),
(1771,1909,l,{
name = hr00;
})
);
}
);
width = 1690;
}
);
unicode = 84;
},
{
glyphname = Tbar;
lastChange = "2022-01-21 13:11:03 +0000";
layers = (
{
layerId = "586BE664-8D6A-4867-BE1B-390608DE01EA";
shapes = (
{
closed = 1;
nodes = (
(1515,1115,l),
(1118,1115,l),
(1202,1622,l),
(1771,1622,l),
(1828,1966,l),
(273,1966,l),
(217,1622,l),
(786,1622,l),
(701,1115,l),
(304,1115,l),
(251,800,l),
(648,800,l),
(515,0,l),
(932,0,l),
(1064,800,l),
(1462,800,l,{
name = hr00;
})
);
}
);
width = 1690;
},
{
layerId = "9AAD14F8-FE06-4230-ACE0-3E9D6F8A5A9E";
shapes = (
{
closed = 1;
nodes = (
(1509,1126,l),
(1028,1126,l),
(1135,1763,l),
(1794,1763,l),
(1828,1966,l),
(279,1966,l),
(245,1763,l),
(904,1763,l),
(797,1126,l),
(315,1126,l),
(284,952,l),
(769,952,l),
(608,0,l),
(839,0,l),
(1000,952,l),
(1478,952,l,{
name = hr00;
})
);
}
);
width = 1690;
},
{
layerId = "B042A474-670A-4404-9662-903C467C1F9E";
shapes = (
{
closed = 1;
nodes = (
(1473,1081,l),
(935,1081,l),
(1073,1909,l),
(1771,1909,l),
(1780,1966,l),
(321,1966,l),
(313,1909,l),
(1011,1909,l),
(873,1081,l),
(335,1081,l),
(327,1028,l),
(865,1028,l),
(693,0,l),
(755,0,l),
(926,1028,l),
(1464,1028,l,{
name = hr00;
})
);
}
);
width = 1690;
}
);
unicode = 358;
},
{
glyphname = Tcedilla;
lastChange = "2022-01-21 13:11:03 +0000";
layers = (
{
layerId = "586BE664-8D6A-4867-BE1B-390608DE01EA";
shapes = (
{
closed = 1;
nodes = (
(907,-597,o),
(1079,-493,o),
(1079,-321,cs),
(1079,-197,o),
(991,-146,o),
(890,-146,cs),
(856,-146,o),
(817,-152,o),
(774,-166,c),
(766,-155,l),
(822,0,l),
(932,0,l),
(1202,1622,l),
(1771,1622,l),
(1828,1966,l),
(273,1966,l),
(217,1622,l),
(786,1622,l),
(515,0,l),
(631,0,l),
(552,-208,l),
(617,-214,ls),
(772,-228,o),
(808,-273,o),
(808,-315,cs),
(808,-372,o),
(746,-397,o),
(676,-397,cs),
(580,-397,o),
(524,-352,o),
(496,-318,c),
(352,-467,l),
(406,-538,o),
(515,-597,o),
(684,-597,cs,{
name = hr00;
})
);
}
);
width = 1690;
},
{
layerId = "9AAD14F8-FE06-4230-ACE0-3E9D6F8A5A9E";
shapes = (
{
closed = 1;
nodes = (
(859,-583,o),
(1011,-510,o),
(1011,-335,cs),
(1011,-225,o),
(949,-169,o),
(845,-169,cs),
(822,-169,o),
(780,-172,o),
(741,-180,c),
(735,-172,l),
(797,0,l),
(839,0,l),
(1135,1763,l),
(1794,1763,l),
(1828,1966,l),
(279,1966,l),
(245,1763,l),
(904,1763,l),
(608,0,l),
(653,0,l),
(577,-214,l),
(659,-225,ls),
(803,-245,o),
(828,-296,o),
(828,-335,cs),
(828,-397,o),
(769,-431,o),
(687,-431,cs),
(605,-431,o),
(558,-397,o),
(529,-355,c),
(417,-467,l),
(453,-527,o),
(541,-583,o),
(687,-583,cs,{
name = hr00;
})
);
}
);
width = 1690;
},
{
layerId = "B042A474-670A-4404-9662-903C467C1F9E";
shapes = (
{
closed = 1;
nodes = (
(817,-569,o),
(915,-470,o),
(915,-355,cs),
(915,-262,o),
(853,-203,o),
(749,-203,cs),
(727,-203,o),
(693,-206,o),
(667,-211,c),
(662,-206,l),
(746,0,l),
(755,0,l),
(1073,1909,l),
(1771,1909,l),
(1780,1966,l),
(321,1966,l),
(313,1909,l),
(1011,1909,l),
(693,0,l),
(698,0,l),
(600,-237,l),
(707,-242,ls),
(817,-248,o),
(856,-293,o),
(856,-358,cs),
(856,-451,o),
(777,-518,o),
(656,-518,cs),
(577,-518,o),
(518,-490,o),
(482,-442,c),
(442,-479,l),
(476,-527,o),
(552,-569,o),
(656,-569,cs,{
name = hr00;
})
);
}
);
width = 1690;
}
);
unicode = 354;
},
{
glyphname = U;
lastChange = "2022-01-21 13:11:03 +0000";
layers = (
{
anchors = (
{
name = bottom;
pos = (752,0);
},
{
name = bottomright;
pos = (1138,0);
},
{
name = top;
pos = (1045,1966);
}
);
layerId = "586BE664-8D6A-4867-BE1B-390608DE01EA";
shapes = (
{
closed = 1;
nodes = (
(169,819,ls),
(149,701,o),
(138,591,o),
(138,496,cs),
(138,175,o),
(290,-34,o),
(758,-34,cs),
(1324,-34,o),
(1453,242,o),
(1540,766,cs),
(1740,1966,l),
(1326,1966,l),
(1118,718,ls),
(1076,465,o),
(1031,304,o),
(780,304,cs),
(608,304,o),
(546,383,o),
(546,524,cs),
(546,563,o),
(552,631,o),
(569,732,cs),
(774,1966,l),
(360,1966,l,{
name = hr00;
})
);
}
);
width = 1690;
},
{
anchors = (
{
name = bottom;
pos = (721,0);
},
{
name = bottomright;
pos = (1025,0);
},
{
name = top;
pos = (1033,1966);
}
);
layerId = "9AAD14F8-FE06-4230-ACE0-3E9D6F8A5A9E";
shapes = (
{
closed = 1;
nodes = (
(256,910,ls),
(231,758,o),
(206,589,o),
(206,467,cs),
(206,146,o),
(355,-34,o),
(758,-34,cs),
(1273,-34,o),
(1377,237,o),
(1476,819,cs),
(1667,1966,l),
(1436,1966,l),
(1236,772,ls),
(1171,386,o),
(1121,169,o),
(749,169,cs),
(498,169,o),
(434,293,o),
(434,487,cs),
(434,558,o),
(442,636,o),
(476,839,cs),
(665,1966,l),
(434,1966,l,{
name = hr00;
})
);
}
);
width = 1690;
},
{
anchors = (
{
name = bottom;
pos = (721,0);
},
{
name = bottomright;
pos = (980,0);
},
{
name = top;
pos = (1050,1966);
}
);
layerId = "B042A474-670A-4404-9662-903C467C1F9E";
shapes = (
{
closed = 1;
nodes = (
(284,777,ls),
(262,642,o),
(245,518,o),
(245,420,cs),
(245,90,o),
(400,-34,o),
(729,-34,cs),
(1160,-34,o),
(1321,161,o),
(1419,760,cs),
(1619,1966,l),
(1557,1966,l),
(1357,763,ls),
(1264,206,o),
(1129,23,o),
(735,23,cs),
(434,23,o),
(304,124,o),
(304,420,cs),
(304,515,o),
(321,622,o),
(344,763,cs),
(543,1966,l),
(482,1966,l,{
name = hr00;
})
);
}
);
width = 1690;
}
);
unicode = 85;
},
{
glyphname = Uhorn;
lastChange = "2022-01-21 13:11:03 +0000";
layers = (
{
anchors = (
{
name = bottom;
pos = (752,0);
},
{
name = top;
pos = (1042,1966);
}
);
layerId = "586BE664-8D6A-4867-BE1B-390608DE01EA";
shapes = (
{
closed = 1;
nodes = (
(169,819,ls),
(149,701,o),
(138,591,o),
(138,496,cs),
(138,175,o),
(290,-34,o),
(758,-34,cs),
(1324,-34,o),
(1453,242,o),
(1540,763,cs),
(1701,1737,l),
(1735,1752,ls),
(1825,1788,o),
(1864,1875,o),
(1887,1999,c),
(1935,2289,l),
(1588,2289,l),
(1532,1966,l),
(1326,1966,l),
(1118,721,ls),
(1076,465,o),
(1031,304,o),
(780,304,cs),
(608,304,o),
(546,383,o),
(546,524,cs),
(546,563,o),
(552,634,o),
(569,735,cs),
(774,1966,l),
(360,1966,l,{
name = hr00;
})
);
}
);
width = 1690;
},
{
anchors = (
{
name = bottom;
pos = (721,0);
},
{
name = top;
pos = (1033,1966);
}
);
layerId = "9AAD14F8-FE06-4230-ACE0-3E9D6F8A5A9E";
shapes = (
{
closed = 1;
nodes = (
(256,910,ls),
(231,758,o),
(206,589,o),
(206,467,cs),
(206,146,o),
(355,-34,o),
(758,-34,cs),
(1273,-34,o),
(1377,237,o),
(1476,819,cs),
(1642,1819,l),
(1695,1819,ls),
(1833,1819,o),
(1881,1898,o),
(1898,1994,cs),
(1946,2278,l),
(1752,2278,l),
(1701,1966,l),
(1436,1966,l),
(1236,772,ls),
(1171,386,o),
(1121,169,o),
(749,169,cs),
(498,169,o),
(434,293,o),
(434,487,cs),
(434,558,o),
(442,636,o),
(476,839,cs),
(665,1966,l),
(434,1966,l,{
name = hr00;
})
);
}
);
width = 1690;
},
{
anchors = (
{
name = bottom;
pos = (721,0);
},
{
name = top;
pos = (1050,1966);
}
);
layerId = "B042A474-670A-4404-9662-903C467C1F9E";
shapes = (
{
closed = 1;
nodes = (
(284,777,ls),
(262,642,o),
(245,518,o),
(245,420,cs),
(245,90,o),
(400,-34,o),
(729,-34,cs),
(1160,-34,o),
(1321,161,o),
(1419,760,cs),
(1611,1915,l),
(1799,1915,ls),
(1859,1915,o),
(1890,1940,o),
(1898,1997,cs),
(1943,2278,l),
(1884,2278,l),
(1833,1966,l),
(1557,1966,l),
(1357,763,ls),
(1264,206,o),
(1129,23,o),
(735,23,cs),
(434,23,o),
(304,124,o),
(304,420,cs),
(304,515,o),
(321,622,o),
(344,763,cs),
(543,1966,l),
(482,1966,l,{
name = hr00;
})
);
}
);
width = 1690;
}
);
unicode = 431;
},
{
glyphname = Uogonek;
lastChange = "2022-01-21 13:11:03 +0000";
layers = (
{
layerId = "586BE664-8D6A-4867-BE1B-390608DE01EA";
shapes = (
{
closed = 1;
nodes = (
(169,819,ls),
(149,701,o),
(138,591,o),
(138,496,cs),
(138,175,o),
(290,-34,o),
(758,-34,cs),
(786,-34,o),
(805,-34,o),
(839,-28,c),
(845,-45,l),
(642,-121,o),
(549,-234,o),
(549,-358,cs),
(549,-513,o),
(693,-597,o),
(893,-597,cs),
(1053,-597,o),
(1163,-535,o),
(1233,-445,c),
(1081,-318,l),
(1042,-377,o),
(988,-394,o),
(932,-394,cs),
(859,-394,o),
(828,-358,o),
(828,-310,cs),
(828,-253,o),
(873,-104,o),
(1129,25,cs),
(1414,169,o),
(1478,400,o),
(1540,763,cs),
(1740,1966,l),
(1326,1966,l),
(1118,721,ls),
(1076,465,o),
(1031,304,o),
(780,304,cs),
(608,304,o),
(546,383,o),
(546,524,cs),
(546,563,o),
(552,634,o),
(569,735,cs),
(774,1966,l),
(360,1966,l,{
name = hr00;
})
);
}
);
width = 1690;
},
{
layerId = "9AAD14F8-FE06-4230-ACE0-3E9D6F8A5A9E";
shapes = (
{
closed = 1;
nodes = (
(256,910,ls),
(231,758,o),
(206,589,o),
(206,467,cs),
(206,146,o),
(355,-34,o),
(758,-34,cs),
(780,-34,o),
(800,-34,o),
(822,-31,c),
(825,-45,l),
(650,-127,o),
(532,-234,o),
(532,-372,cs),
(532,-524,o),
(665,-583,o),
(808,-583,cs),
(941,-583,o),
(1033,-532,o),
(1084,-479,c),
(977,-358,l),
(924,-406,o),
(867,-431,o),
(819,-431,cs),
(769,-431,o),
(724,-406,o),
(724,-344,cs),
(724,-262,o),
(791,-138,o),
(1064,14,cs),
(1329,161,o),
(1405,400,o),
(1476,819,cs),
(1667,1966,l),
(1436,1966,l),
(1236,772,ls),
(1171,386,o),
(1121,169,o),
(749,169,cs),
(498,169,o),
(434,293,o),
(434,487,cs),
(434,558,o),
(442,636,o),
(476,839,cs),
(665,1966,l),
(434,1966,l,{
name = hr00;
})
);
}
);
width = 1690;
},
{
layerId = "B042A474-670A-4404-9662-903C467C1F9E";
shapes = (
{
closed = 1;
nodes = (
(284,777,ls),
(262,642,o),
(245,518,o),
(245,420,cs),
(245,90,o),
(400,-34,o),
(729,-34,cs),
(777,-34,o),
(822,-31,o),
(865,-25,c),
(867,-31,l),
(614,-166,o),
(574,-298,o),
(574,-383,cs),
(574,-515,o),
(667,-569,o),
(783,-569,cs),
(879,-569,o),
(957,-529,o),
(1000,-479,c),
(963,-448,l),
(929,-482,o),
(873,-518,o),
(786,-518,cs),
(701,-518,o),
(634,-484,o),
(634,-380,cs),
(634,-239,o),
(758,-124,o),
(1025,14,cs),
(1253,132,o),
(1343,296,o),
(1419,760,cs),
(1619,1966,l),
(1557,1966,l),
(1357,763,ls),
(1264,206,o),
(1129,23,o),
(735,23,cs),
(434,23,o),
(304,124,o),
(304,420,cs),
(304,515,o),
(321,622,o),
(344,763,cs),
(543,1966,l),
(482,1966,l,{
name = hr00;
})
);
}
);
width = 1690;
}
);
unicode = 370;
},
{
glyphname = V;
lastChange = "2022-01-21 13:11:03 +0000";
layers = (
{
anchors = (
{
name = bottom;
pos = (724,0);
},
{
name = top;
pos = (1053,1966);
}
);
layerId = "586BE664-8D6A-4867-BE1B-390608DE01EA";
shapes = (
{
closed = 1;
nodes = (
(1861,1966,l),
(1405,1966,l),
(1022,977,l),
(803,400,l),
(777,400,l),
(752,977,l),
(684,1966,l),
(239,1966,l),
(428,0,l),
(1022,0,l,{
name = hr00;
})
);
}
);
width = 1690;
},
{
anchors = (
{
name = bottom;
pos = (718,0);
},
{
name = top;
pos = (1000,1966);
}
);
layerId = "9AAD14F8-FE06-4230-ACE0-3E9D6F8A5A9E";
shapes = (
{
closed = 1;
nodes = (
(1788,1966,l),
(1546,1966,l),
(1104,983,l),
(763,228,l),
(749,228,l),
(650,983,l),
(527,1966,l),
(307,1966,l),
(566,0,l),
(881,0,l,{
name = hr00;
})
);
}
);
width = 1690;
},
{
anchors = (
{
name = bottom;
pos = (724,0);
},
{
name = top;
pos = (1053,1966);
}
);
layerId = "B042A474-670A-4404-9662-903C467C1F9E";
shapes = (
{
closed = 1;
nodes = (
(1740,1966,l),
(1673,1966,l),
(1121,850,l),
(738,73,l),
(729,73,l),
(600,884,l),
(425,1966,l),
(360,1966,l),
(681,0,l),
(766,0,l,{
name = hr00;
})
);
}
);
width = 1690;
}
);
unicode = 86;
},
{
glyphname = W;
lastChange = "2022-01-21 13:11:03 +0000";
layers = (
{
anchors = (
{
name = bottom;
pos = (721,0);
},
{
name = top;
pos = (1053,1966);
}
);
layerId = "586BE664-8D6A-4867-BE1B-390608DE01EA";
shapes = (
{
closed = 1;
nodes = (
(893,1087,l),
(921,1087,l),
(879,0,l),
(1414,0,l),
(1861,1966,l),
(1521,1966,l),
(1259,772,l),
(1183,383,l),
(1157,383,l),
(1174,1538,l),
(794,1538,l),
(436,383,l),
(411,383,l),
(459,788,l),
(594,1966,l),
(237,1966,l),
(28,0,l),
(563,0,l,{
name = hr00;
})
);
}
);
width = 1690;
},
{
anchors = (
{
name = bottom;
pos = (727,0);
},
{
name = top;
pos = (1022,1966);
}
);
layerId = "9AAD14F8-FE06-4230-ACE0-3E9D6F8A5A9E";
shapes = (
{
closed = 1;
nodes = (
(907,1186,l),
(929,1186,l),
(972,0,l),
(1312,0,l),
(1794,1966,l),
(1583,1966,l),
(1315,839,l),
(1171,231,l),
(1149,231,l),
(1090,1453,l),
(825,1453,l),
(366,231,l),
(344,231,l),
(403,859,l),
(507,1966,l),
(301,1966,l),
(130,0,l),
(470,0,l,{
name = hr00;
})
);
}
);
width = 1690;
},
{
anchors = (
{
name = bottom;
pos = (724,0);
},
{
name = top;
pos = (1050,1966);
}
);
layerId = "B042A474-670A-4404-9662-903C467C1F9E";
shapes = (
{
closed = 1;
nodes = (
(932,1278,l),
(941,1278,l),
(1107,0,l),
(1214,0,l),
(1732,1966,l),
(1676,1966,l),
(1428,1036,l),
(1169,62,l),
(1157,62,l),
(988,1363,l),
(910,1363,l),
(307,62,l),
(296,62,l),
(355,938,l),
(425,1966,l),
(369,1966,l),
(234,0,l),
(341,0,l,{
name = hr00;
})
);
}
);
width = 1690;
}
);
unicode = 87;
},
{
glyphname = X;
lastChange = "2022-01-21 13:11:03 +0000";
layers = (
{
anchors = (
{
name = bottom;
pos = (721,0);
},
{
name = top;
pos = (1050,1966);
}
);
layerId = "586BE664-8D6A-4867-BE1B-390608DE01EA";
shapes = (
{
closed = 1;
nodes = (
(1830,1966,l),
(1374,1966,l),
(1155,1653,l),
(957,1338,l),
(935,1338,l),
(842,1653,l),
(732,1966,l),
(265,1966,l),
(628,1017,l),
(-93,0,l),
(366,0,l),
(639,391,l),
(825,701,l),
(850,701,l),
(946,391,l),
(1084,0,l),
(1549,0,l),
(1163,1011,l,{
name = hr00;
})
);
}
);
width = 1690;
},
{
anchors = (
{
name = bottom;
pos = (735,0);
},
{
name = top;
pos = (1062,1966);
}
);
layerId = "9AAD14F8-FE06-4230-ACE0-3E9D6F8A5A9E";
shapes = (
{
closed = 1;
nodes = (
(1811,1966,l),
(1540,1966,l),
(1242,1585,l),
(935,1197,l),
(924,1197,l),
(743,1585,l),
(569,1966,l),
(321,1966,l),
(774,1014,l),
(-45,0,l),
(225,0,l),
(538,397,l),
(870,817,l),
(881,817,l),
(1073,397,l),
(1253,0,l),
(1501,0,l),
(1033,994,l,{
name = hr00;
})
);
}
);
width = 1690;
},
{
anchors = (
{
name = bottom;
pos = (727,0);
},
{
name = top;
pos = (1053,1966);
}
);
layerId = "B042A474-670A-4404-9662-903C467C1F9E";
shapes = (
{
closed = 1;
nodes = (
(1737,1966,l),
(1659,1966,l),
(1284,1512,l),
(907,1056,l),
(898,1056,l),
(707,1436,l),
(442,1966,l),
(375,1966,l),
(859,1002,l),
(23,0,l),
(101,0,l),
(479,456,l),
(887,946,l),
(895,946,l),
(1098,538,l),
(1369,0,l),
(1436,0,l),
(935,1000,l,{
name = hr00;
})
);
}
);
width = 1690;
}
);
unicode = 88;
},
{
glyphname = Y;
lastChange = "2022-01-21 13:11:03 +0000";
layers = (
{
anchors = (
{
name = bottom;
pos = (727,0);
},
{
name = top;
pos = (1033,1966);
}
);
layerId = "586BE664-8D6A-4867-BE1B-390608DE01EA";
shapes = (
{
closed = 1;
nodes = (
(1050,701,l),
(1881,1966,l),
(1416,1966,l),
(1135,1504,l),
(915,1118,l),
(890,1118,l),
(803,1504,l),
(665,1966,l),
(220,1966,l),
(634,693,l),
(518,0,l),
(935,0,l,{
name = hr00;
})
);
}
);
width = 1690;
},
{
anchors = (
{
name = bottom;
pos = (729,0);
},
{
name = top;
pos = (1025,1966);
}
);
layerId = "9AAD14F8-FE06-4230-ACE0-3E9D6F8A5A9E";
shapes = (
{
closed = 1;
nodes = (
(972,786,l),
(1847,1966,l),
(1571,1966,l),
(1202,1450,l),
(879,997,l),
(867,997,l),
(701,1450,l),
(501,1966,l),
(253,1966,l),
(738,766,l),
(608,0,l),
(839,0,l,{
name = hr00;
})
);
}
);
width = 1690;
},
{
anchors = (
{
name = bottom;
pos = (724,0);
},
{
name = top;
pos = (1053,1966);
}
);
layerId = "B042A474-670A-4404-9662-903C467C1F9E";
shapes = (
{
closed = 1;
nodes = (
(893,828,l),
(1816,1966,l),
(1743,1966,l),
(1346,1478,l),
(873,893,l),
(865,893,l),
(529,1588,l),
(349,1966,l),
(284,1966,l),
(831,828,l),
(693,0,l),
(755,0,l,{
name = hr00;
})
);
}
);
width = 1690;
}
);
unicode = 89;
},
{
glyphname = Z;
lastChange = "2022-01-21 13:11:03 +0000";
layers = (
{
anchors = (
{
name = bottom;
pos = (712,0);
},
{
name = top;
pos = (1025,1966);
}
);
layerId = "586BE664-8D6A-4867-BE1B-390608DE01EA";
shapes = (
{
closed = 1;
nodes = (
(574,344,l),
(1664,1599,l),
(1723,1966,l),
(375,1966,l),
(318,1622,l),
(1174,1622,l),
(84,366,l),
(23,0,l),
(1428,0,l),
(1484,344,l,{
name = hr00;
})
);
}
);
width = 1690;
},
{
anchors = (
{
name = bottom;
pos = (724,0);
},
{
name = top;
pos = (1025,1966);
}
);
layerId = "9AAD14F8-FE06-4230-ACE0-3E9D6F8A5A9E";
shapes = (
{
closed = 1;
nodes = (
(313,203,l),
(1681,1757,l),
(1715,1966,l),
(397,1966,l),
(363,1763,l),
(1416,1763,l),
(48,208,l),
(14,0,l),
(1431,0,l),
(1464,203,l,{
name = hr00;
})
);
}
);
width = 1690;
},
{
anchors = (
{
name = bottom;
pos = (724,0);
},
{
name = top;
pos = (1053,1966);
}
);
layerId = "B042A474-670A-4404-9662-903C467C1F9E";
shapes = (
{
closed = 1;
nodes = (
(99,56,l),
(1687,1904,l),
(1698,1966,l),
(406,1966,l),
(397,1909,l),
(1614,1909,l),
(25,62,l),
(14,0,l),
(1433,0,l),
(1442,56,l,{
name = hr00;
})
);
}
);
width = 1690;
}
);
unicode = 90;
},
{
glyphname = a;
lastChange = "2022-01-21 13:11:03 +0000";
layers = (
{
anchors = (
{
name = bottom;
pos = (698,0);
},
{
name = bottomright;
pos = (1504,0);
},
{
name = top;
pos = (918,1453);
}
);
layerId = "586BE664-8D6A-4867-BE1B-390608DE01EA";
shapes = (
{
closed = 1;
nodes = (
(766,-34,o),
(876,124,o),
(986,346,c),
(1000,346,l),
(994,310,ls),
(963,107,o),
(1081,0,o),
(1293,0,cs,{
name = hr01;
}),
(1504,0,l),
(1554,301,l),
(1405,301,l),
(1597,1453,l),
(1186,1453,l),
(1140,1183,l),
(1121,1183,l),
(1079,1374,o),
(983,1487,o),
(763,1487,cs,{
name = hr02;
}),
(355,1487,o),
(107,1104,o),
(107,543,cs),
(107,191,o),
(206,-34,o),
(510,-34,cs)
);
},
{
closed = 1;
nodes = (
(563,284,o),
(524,391,o),
(524,527,cs),
(524,577,o),
(529,622,o),
(535,656,cs),
(563,825,ls),
(600,1045,o),
(687,1169,o),
(893,1169,cs),
(1067,1169,o),
(1124,1081,o),
(1098,929,cs),
(1059,696,ls),
(1039,574,o),
(977,473,o),
(935,420,cs),
(870,338,o),
(791,284,o),
(696,284,cs)
);
}
);
width = 1690;
},
{
anchors = (
{
name = bottom;
pos = (676,0);
},
{
name = bottomright;
pos = (1476,0);
},
{
name = top;
pos = (890,1453);
}
);
layerId = "9AAD14F8-FE06-4230-ACE0-3E9D6F8A5A9E";
shapes = (
{
closed = 1;
nodes = (
(850,-34,o),
(991,115,o),
(1104,344,c),
(1112,344,l),
(1095,239,ls),
(1073,107,o),
(1132,0,o),
(1312,0,cs,{
name = hr01;
}),
(1476,0,l),
(1509,197,l),
(1309,197,l),
(1518,1453,l),
(1298,1453,l),
(1256,1200,l),
(1247,1200,l),
(1186,1388,o),
(1042,1487,o),
(834,1487,cs,{
name = hr02;
}),
(329,1487,o),
(158,918,o),
(158,529,cs),
(158,158,o),
(315,-34,o),
(600,-34,cs)
);
},
{
closed = 1;
nodes = (
(482,161,o),
(380,290,o),
(380,507,cs),
(380,543,o),
(383,583,o),
(391,634,cs),
(425,836,ls),
(470,1107,o),
(625,1293,o),
(895,1293,cs),
(1110,1293,o),
(1253,1177,o),
(1219,974,cs),
(1166,653,ls),
(1143,521,o),
(1084,406,o),
(1011,321,cs),
(912,208,o),
(794,161,o),
(676,161,cs)
);
}
);
width = 1690;
},
{
anchors = (
{
name = bottom;
pos = (662,0);
},
{
name = bottomright;
pos = (1456,0);
},
{
name = top;
pos = (904,1453);
}
);
layerId = "B042A474-670A-4404-9662-903C467C1F9E";
shapes = (
{
closed = 1;
nodes = (
(943,-34,o),
(1095,113,o),
(1205,324,c),
(1214,324,l),
(1174,84,ls),
(1166,28,o),
(1183,0,o),
(1239,0,cs,{
name = hr01;
}),
(1456,0,l),
(1467,54,l),
(1228,54,l),
(1462,1453,l),
(1402,1453,l),
(1360,1191,l),
(1352,1191,l),
(1295,1363,o),
(1138,1487,o),
(881,1487,cs,{
name = hr02;
}),
(470,1487,o),
(200,1081,o),
(200,524,cs),
(200,203,o),
(366,-34,o),
(687,-34,cs)
);
},
{
closed = 1;
nodes = (
(380,20,o),
(256,251,o),
(256,524,cs),
(256,572,o),
(259,620,o),
(268,667,cs),
(290,805,ls),
(349,1160,o),
(560,1433,o),
(881,1433,cs),
(1242,1433,o),
(1357,1194,o),
(1326,1000,cs),
(1256,574,ls),
(1225,389,o),
(1118,234,o),
(1008,135,cs),
(915,54,o),
(811,20,o),
(687,20,cs)
);
}
);
width = 1690;
}
);
unicode = 97;
},
{
glyphname = aogonek;
lastChange = "2022-01-21 13:11:03 +0000";
layers = (
{
anchors = (
{
name = top;
pos = (918,1453);
}
);
layerId = "586BE664-8D6A-4867-BE1B-390608DE01EA";
shapes = (
{
closed = 1;
nodes = (
(1402,-597,o),
(1512,-535,o),
(1583,-445,c),
(1431,-318,l),
(1391,-377,o),
(1338,-394,o),
(1281,-394,cs),
(1208,-394,o),
(1177,-358,o),
(1177,-310,cs),
(1177,-253,o),
(1208,-177,o),
(1504,0,c),
(1554,301,l),
(1405,301,l),
(1597,1453,l),
(1186,1453,l),
(1140,1183,l),
(1121,1183,l),
(1079,1374,o),
(983,1487,o),
(763,1487,cs,{
name = hr01;
}),
(355,1487,o),
(107,1104,o),
(107,543,cs),
(107,191,o),
(206,-34,o),
(510,-34,cs),
(766,-34,o),
(876,124,o),
(986,346,c),
(1000,346,l),
(994,310,ls),
(963,107,o),
(1079,0,o),
(1290,0,c,{
name = hr02;
}),
(1293,-11,l),
(1014,-84,o),
(898,-220,o),
(898,-358,cs),
(898,-513,o),
(1042,-597,o),
(1242,-597,cs)
);
},
{
closed = 1;
nodes = (
(563,284,o),
(524,391,o),
(524,527,cs),
(524,577,o),
(529,622,o),
(535,656,cs),
(563,825,ls),
(600,1045,o),
(687,1169,o),
(893,1169,cs),
(1067,1169,o),
(1124,1081,o),
(1098,929,cs),
(1059,696,ls),
(1039,574,o),
(977,473,o),
(935,420,cs),
(870,338,o),
(791,284,o),
(696,284,cs,{
name = hr03;
})
);
}
);
width = 1690;
},
{
anchors = (
{
name = top;
pos = (890,1453);
}
);
layerId = "9AAD14F8-FE06-4230-ACE0-3E9D6F8A5A9E";
shapes = (
{
closed = 1;
nodes = (
(1352,-583,o),
(1445,-532,o),
(1495,-479,c),
(1388,-358,l),
(1335,-406,o),
(1278,-431,o),
(1231,-431,cs),
(1180,-431,o),
(1135,-406,o),
(1135,-344,cs),
(1135,-284,o),
(1174,-197,o),
(1476,0,c),
(1509,197,l),
(1309,197,l),
(1518,1453,l),
(1298,1453,l),
(1256,1200,l),
(1247,1200,l),
(1186,1388,o),
(1042,1487,o),
(834,1487,cs,{
name = hr01;
}),
(329,1487,o),
(158,918,o),
(158,529,cs),
(158,158,o),
(315,-34,o),
(600,-34,cs),
(850,-34,o),
(991,115,o),
(1104,344,c),
(1112,344,l),
(1095,239,ls),
(1073,110,o),
(1129,6,o),
(1298,0,c,{
name = hr02;
}),
(1298,-14,l),
(1087,-113,o),
(943,-217,o),
(943,-372,cs),
(943,-524,o),
(1076,-583,o),
(1219,-583,cs)
);
},
{
closed = 1;
nodes = (
(482,161,o),
(380,290,o),
(380,507,cs),
(380,543,o),
(383,583,o),
(391,634,cs),
(425,836,ls),
(470,1107,o),
(625,1293,o),
(895,1293,cs),
(1110,1293,o),
(1253,1177,o),
(1219,974,cs),
(1166,653,ls),
(1143,521,o),
(1084,406,o),
(1011,321,cs),
(912,208,o),
(794,161,o),
(676,161,cs,{
name = hr03;
})
);
}
);
width = 1690;
},
{
anchors = (
{
name = top;
pos = (904,1453);
}
);
layerId = "B042A474-670A-4404-9662-903C467C1F9E";
shapes = (
{
closed = 1;
nodes = (
(1295,-569,o),
(1374,-529,o),
(1416,-479,c),
(1380,-448,l),
(1346,-482,o),
(1290,-518,o),
(1200,-518,cs),
(1118,-518,o),
(1050,-476,o),
(1050,-386,cs),
(1050,-242,o),
(1171,-163,o),
(1456,0,c),
(1467,54,l,{
name = hr01;
}),
(1228,54,l),
(1462,1453,l),
(1402,1453,l),
(1360,1191,l),
(1352,1191,l),
(1295,1363,o),
(1138,1487,o),
(881,1487,cs),
(470,1487,o),
(200,1081,o),
(200,524,cs),
(200,203,o),
(366,-34,o),
(687,-34,cs,{
name = hr02;
}),
(943,-34,o),
(1095,113,o),
(1205,324,c,{
name = hr03;
}),
(1214,324,l),
(1174,84,ls),
(1166,28,o),
(1183,0,o),
(1239,0,cs),
(1385,0,l),
(1053,-169,o),
(991,-282,o),
(991,-386,cs),
(991,-513,o),
(1084,-569,o),
(1200,-569,cs)
);
},
{
closed = 1;
nodes = (
(380,20,o),
(256,251,o),
(256,524,cs),
(256,572,o),
(259,620,o),
(268,667,cs),
(290,805,ls),
(349,1160,o),
(560,1433,o),
(881,1433,cs,{
name = hr05;
}),
(1242,1433,o),
(1357,1194,o),
(1326,1000,cs,{
name = hr06;
}),
(1256,574,ls),
(1225,389,o),
(1118,234,o),
(1008,135,cs),
(915,54,o),
(811,20,o),
(687,20,cs,{
name = hr04;
})
);
}
);
width = 1690;
}
);
unicode = 261;
},
{
glyphname = ae;
lastChange = "2022-01-21 13:11:03 +0000";
layers = (
{
anchors = (
{
name = top;
pos = (938,1453);
}
);
layerId = "586BE664-8D6A-4867-BE1B-390608DE01EA";
shapes = (
{
closed = 1;
nodes = (
(496,-34,o),
(625,76,o),
(679,296,c),
(690,296,l),
(721,56,o),
(887,-34,o),
(1093,-34,cs),
(1329,-34,o),
(1476,87,o),
(1580,332,c),
(1324,442,l),
(1276,321,o),
(1219,234,o),
(1118,234,cs),
(1014,234,o),
(960,324,o),
(960,470,cs),
(960,504,o),
(963,555,o),
(972,605,cs),
(977,636,l),
(1574,648,o),
(1692,910,o),
(1692,1110,cs),
(1692,1329,o),
(1549,1487,o),
(1312,1487,cs),
(1129,1487,o),
(997,1394,o),
(921,1264,c),
(912,1264,l),
(890,1431,o),
(752,1487,o),
(586,1487,cs),
(377,1487,o),
(234,1400,o),
(124,1157,c),
(349,1028,l),
(403,1157,o),
(470,1231,o),
(572,1231,cs),
(659,1231,o),
(712,1174,o),
(712,1064,cs),
(712,1039,o),
(710,1011,o),
(704,977,cs),
(684,859,l),
(572,859,ls),
(194,859,o),
(-23,659,o),
(-23,341,cs),
(-23,84,o),
(115,-34,o),
(310,-34,cs,{
name = hr00;
})
);
},
{
closed = 1;
nodes = (
(338,217,o),
(284,256,o),
(284,352,cs),
(284,358,o),
(284,389,o),
(293,442,cs),
(318,580,o),
(417,642,o),
(566,642,cs),
(648,642,l),
(625,504,ls),
(594,315,o),
(524,217,o),
(411,217,cs)
);
},
{
closed = 1;
nodes = (
(1346,1236,o),
(1397,1188,o),
(1397,1098,cs),
(1397,974,o),
(1298,865,o),
(1014,853,c),
(1017,876,l),
(1059,1124,o),
(1146,1236,o),
(1267,1236,cs)
);
}
);
width = 1690;
},
{
anchors = (
{
name = top;
pos = (986,1453);
}
);
layerId = "9AAD14F8-FE06-4230-ACE0-3E9D6F8A5A9E";
shapes = (
{
closed = 1;
nodes = (
(549,-34,o),
(679,101,o),
(735,344,c),
(752,344,l),
(760,101,o),
(910,-34,o),
(1115,-34,cs),
(1349,-34,o),
(1501,146,o),
(1580,321,c),
(1428,397,l),
(1354,256,o),
(1276,141,o),
(1129,141,cs),
(988,141,o),
(910,245,o),
(910,448,cs),
(910,484,o),
(912,546,o),
(921,597,cs),
(932,665,l),
(1509,681,o),
(1678,912,o),
(1678,1149,cs),
(1678,1366,o),
(1535,1487,o),
(1340,1487,cs),
(1160,1487,o),
(1031,1385,o),
(943,1211,c),
(932,1211,l),
(932,1346,o),
(842,1487,o),
(603,1487,cs),
(377,1487,o),
(222,1360,o),
(138,1205,c),
(268,1107,l),
(355,1245,o),
(445,1321,o),
(586,1321,cs),
(727,1321,o),
(794,1245,o),
(794,1093,cs),
(794,1062,o),
(791,1017,o),
(783,966,cs),
(755,808,l),
(580,800,ls),
(231,783,o),
(0,625,o),
(0,327,cs),
(0,90,o),
(146,-34,o),
(341,-34,cs,{
name = hr00;
})
);
},
{
closed = 1;
nodes = (
(268,132,o),
(191,197,o),
(191,310,cs),
(191,329,o),
(191,352,o),
(200,403,cs),
(231,589,o),
(358,639,o),
(577,650,cs),
(729,659,l),
(690,422,ls),
(662,253,o),
(535,132,o),
(389,132,cs)
);
},
{
closed = 1;
nodes = (
(1436,1321,o),
(1492,1256,o),
(1492,1143,cs),
(1492,972,o),
(1366,828,o),
(955,814,c),
(963,865,ls),
(1000,1104,o),
(1126,1321,o),
(1326,1321,cs)
);
}
);
width = 1690;
},
{
anchors = (
{
name = top;
pos = (1028,1453);
}
);
layerId = "B042A474-670A-4404-9662-903C467C1F9E";
shapes = (
{
closed = 1;
nodes = (
(574,-34,o),
(712,124,o),
(780,329,c),
(788,329,l),
(803,84,o),
(918,-34,o),
(1098,-34,cs),
(1315,-34,o),
(1450,124,o),
(1543,324,c),
(1492,346,l),
(1400,144,o),
(1276,20,o),
(1098,20,cs),
(941,20,o),
(836,141,o),
(836,428,cs),
(836,496,o),
(845,574,o),
(862,667,cs),
(867,698,l),
(1422,712,o),
(1659,876,o),
(1659,1200,cs),
(1659,1360,o),
(1557,1487,o),
(1380,1487,cs),
(1202,1487,o),
(1036,1380,o),
(935,1138,c),
(926,1138,l),
(935,1369,o),
(817,1487,o),
(605,1487,cs),
(403,1487,o),
(265,1360,o),
(180,1208,c),
(228,1186,l),
(321,1332,o),
(420,1433,o),
(605,1433,cs),
(766,1433,o),
(876,1363,o),
(876,1138,cs),
(876,1104,o),
(873,1067,o),
(865,1022,cs),
(817,749,l),
(597,738,ls),
(191,718,o),
(11,560,o),
(11,256,cs),
(11,79,o),
(118,-34,o),
(321,-34,cs,{
name = hr00;
})
);
},
{
closed = 1;
nodes = (
(149,20,o),
(70,110,o),
(70,256,cs),
(70,276,o),
(70,304,o),
(82,360,cs),
(127,603,o),
(298,670,o),
(603,687,cs),
(811,698,l),
(772,462,ls),
(732,222,o),
(589,20,o),
(327,20,cs)
);
},
{
closed = 1;
nodes = (
(1509,1433,o),
(1599,1346,o),
(1599,1197,cs),
(1599,881,o),
(1360,758,o),
(876,749,c),
(881,794,ls),
(932,1202,o),
(1140,1433,o),
(1369,1433,cs)
);
}
);
width = 1690;
}
);
unicode = 230;
},
{
glyphname = b;
lastChange = "2022-01-21 13:11:03 +0000";
layers = (
{
anchors = (
{
name = bottom;
pos = (895,0);
}
);
layerId = "586BE664-8D6A-4867-BE1B-390608DE01EA";
shapes = (
{
closed = 1;
nodes = (
(470,0,l),
(515,270,l),
(535,270,l),
(577,79,o),
(687,-34,o),
(915,-34,cs,{
name = hr01;
}),
(1318,-34,o),
(1583,346,o),
(1583,924,cs),
(1583,1264,o),
(1464,1487,o),
(1157,1487,cs),
(910,1487,o),
(780,1329,o),
(670,1107,c),
(656,1107,l),
(817,2084,l,{
name = hr02;
}),
(406,2084,l),
(59,0,l)
);
},
{
closed = 1;
nodes = (
(605,284,o),
(532,372,o),
(558,524,cs),
(597,758,ls),
(617,879,o),
(684,977,o),
(729,1031,cs),
(797,1115,o),
(873,1169,o),
(974,1169,cs),
(1115,1169,o),
(1163,1062,o),
(1166,924,cs),
(1166,876,o),
(1160,831,o),
(1155,797,cs),
(1126,628,ls),
(1090,408,o),
(986,284,o),
(783,284,cs,{
name = hr03;
})
);
}
);
width = 1690;
},
{
anchors = (
{
name = bottom;
pos = (819,0);
}
);
layerId = "9AAD14F8-FE06-4230-ACE0-3E9D6F8A5A9E";
shapes = (
{
closed = 1;
nodes = (
(369,0,l),
(411,253,l),
(420,253,l),
(482,65,o),
(631,-34,o),
(845,-34,cs,{
name = hr01;
}),
(1357,-34,o),
(1532,535,o),
(1532,924,cs),
(1532,1295,o),
(1371,1487,o),
(1079,1487,cs),
(822,1487,o),
(676,1338,o),
(563,1110,c),
(555,1110,l),
(718,2084,l,{
name = hr02;
}),
(498,2084,l),
(149,0,l)
);
},
{
closed = 1;
nodes = (
(560,161,o),
(414,276,o),
(448,479,cs),
(501,800,ls),
(524,935,o),
(589,1050,o),
(662,1132,cs),
(763,1245,o),
(881,1293,o),
(1002,1293,cs),
(1205,1293,o),
(1309,1163,o),
(1309,946,cs),
(1309,910,o),
(1307,870,o),
(1298,819,cs),
(1264,617,ls),
(1219,346,o),
(1056,161,o),
(777,161,cs,{
name = hr03;
})
);
}
);
width = 1690;
},
{
anchors = (
{
name = bottom;
pos = (805,0);
}
);
layerId = "B042A474-670A-4404-9662-903C467C1F9E";
shapes = (
{
closed = 1;
nodes = (
(284,0,l),
(327,262,l),
(335,262,l),
(391,90,o),
(549,-34,o),
(805,-34,cs,{
name = hr01;
}),
(1217,-34,o),
(1487,372,o),
(1487,929,cs),
(1487,1250,o),
(1321,1487,o),
(1000,1487,cs),
(743,1487,o),
(591,1340,o),
(482,1129,c),
(473,1129,l),
(631,2084,l,{
name = hr02;
}),
(572,2084,l),
(225,0,l)
);
},
{
closed = 1;
nodes = (
(445,20,o),
(329,259,o),
(360,453,cs),
(431,879,ls),
(462,1064,o),
(569,1219,o),
(679,1318,cs),
(772,1400,o),
(876,1433,o),
(1000,1433,cs),
(1307,1433,o),
(1431,1202,o),
(1431,929,cs),
(1431,881,o),
(1428,834,o),
(1419,786,cs),
(1397,648,ls),
(1338,293,o),
(1126,20,o),
(805,20,cs,{
name = hr03;
})
);
}
);
width = 1690;
}
);
unicode = 98;
},
{
glyphname = c;
lastChange = "2022-01-21 13:11:03 +0000";
layers = (
{
anchors = (
{
name = bottom;
pos = (777,0);
},
{
name = top;
pos = (955,1453);
}
);
layerId = "586BE664-8D6A-4867-BE1B-390608DE01EA";
shapes = (
{
closed = 1;
nodes = (
(1118,-34,o),
(1309,135,o),
(1501,439,c),
(1245,605,l),
(1039,335,o),
(955,296,o),
(836,296,cs),
(650,296,o),
(580,397,o),
(580,546,cs),
(580,591,o),
(586,645,o),
(591,679,cs),
(620,848,ls),
(653,1050,o),
(772,1157,o),
(932,1157,cs),
(1095,1157,o),
(1155,1081,o),
(1194,960,c),
(1529,1118,l),
(1467,1338,o),
(1298,1487,o),
(966,1487,cs),
(448,1487,o),
(161,1076,o),
(161,580,cs),
(161,191,o),
(375,-34,o),
(769,-34,cs,{
name = hr00;
})
);
}
);
width = 1690;
},
{
anchors = (
{
name = bottom;
pos = (766,0);
},
{
name = top;
pos = (955,1453);
}
);
layerId = "9AAD14F8-FE06-4230-ACE0-3E9D6F8A5A9E";
shapes = (
{
closed = 1;
nodes = (
(1064,-34,o),
(1247,124,o),
(1431,420,c),
(1273,513,l),
(1042,194,o),
(918,158,o),
(788,158,cs),
(577,158,o),
(434,273,o),
(434,521,cs),
(434,558,o),
(436,589,o),
(448,656,cs),
(476,825,ls),
(527,1129,o),
(687,1295,o),
(935,1295,cs),
(1115,1295,o),
(1222,1242,o),
(1278,1064,c),
(1467,1138,l),
(1416,1329,o),
(1267,1487,o),
(960,1487,cs),
(546,1487,o),
(211,1135,o),
(211,580,cs),
(211,217,o),
(400,-34,o),
(760,-34,cs,{
name = hr00;
})
);
}
);
width = 1690;
},
{
anchors = (
{
name = bottom;
pos = (732,0);
},
{
name = top;
pos = (918,1453);
}
);
layerId = "B042A474-670A-4404-9662-903C467C1F9E";
shapes = (
{
closed = 1;
nodes = (
(1017,-34,o),
(1200,138,o),
(1354,391,c),
(1304,414,l),
(1155,175,o),
(988,20,o),
(743,20,cs),
(428,20,o),
(290,265,o),
(290,566,cs),
(290,622,o),
(293,656,o),
(301,712,cs),
(324,850,ls),
(383,1208,o),
(620,1433,o),
(941,1433,cs),
(1138,1433,o),
(1290,1332,o),
(1338,1149,c),
(1391,1163,l),
(1346,1354,o),
(1174,1487,o),
(943,1487,cs),
(529,1487,o),
(234,1152,o),
(234,566,cs),
(234,217,o),
(406,-34,o),
(746,-34,cs,{
name = hr00;
})
);
}
);
width = 1690;
}
);
unicode = 99;
},
{
glyphname = ccedilla;
lastChange = "2022-01-21 13:11:03 +0000";
layers = (
{
layerId = "586BE664-8D6A-4867-BE1B-390608DE01EA";
shapes = (
{
closed = 1;
nodes = (
(448,1487,o),
(161,1076,o),
(161,580,cs),
(161,225,o),
(341,6,o),
(673,-28,c),
(603,-208,l),
(667,-214,ls),
(814,-228,o),
(859,-268,o),
(859,-315,cs),
(859,-372,o),
(800,-397,o),
(718,-397,cs),
(634,-397,o),
(574,-352,o),
(546,-318,c),
(403,-467,l),
(456,-538,o),
(569,-597,o),
(727,-597,cs),
(955,-597,o),
(1129,-501,o),
(1129,-310,cs),
(1129,-208,o),
(1048,-146,o),
(943,-146,cs),
(907,-146,o),
(867,-152,o),
(825,-166,c),
(817,-155,l),
(862,-31,l),
(870,-31,o),
(881,-28,o),
(890,-28,cs),
(1163,8,o),
(1332,172,o),
(1501,439,c),
(1245,605,l),
(1039,335,o),
(955,296,o),
(836,296,cs),
(650,296,o),
(580,397,o),
(580,546,cs),
(580,591,o),
(586,645,o),
(591,679,cs),
(620,848,ls),
(653,1048,o),
(769,1157,o),
(932,1157,cs),
(1095,1157,o),
(1155,1081,o),
(1194,960,c),
(1529,1118,l),
(1467,1338,o),
(1298,1487,o),
(966,1487,cs,{
name = hr00;
})
);
}
);
width = 1690;
},
{
layerId = "9AAD14F8-FE06-4230-ACE0-3E9D6F8A5A9E";
shapes = (
{
closed = 1;
nodes = (
(546,1487,o),
(211,1135,o),
(211,580,cs),
(211,245,o),
(372,6,o),
(681,-28,c),
(614,-214,l),
(696,-225,ls),
(839,-245,o),
(865,-296,o),
(865,-335,cs),
(865,-397,o),
(805,-431,o),
(724,-431,cs),
(642,-431,o),
(594,-397,o),
(566,-355,c),
(453,-467,l),
(490,-527,o),
(577,-583,o),
(724,-583,cs),
(895,-583,o),
(1048,-510,o),
(1048,-335,cs),
(1048,-225,o),
(986,-169,o),
(881,-169,cs),
(859,-169,o),
(817,-172,o),
(777,-180,c),
(772,-172,l),
(822,-31,l),
(831,-31,o),
(839,-28,o),
(848,-28,cs),
(1101,0,o),
(1267,152,o),
(1431,420,c),
(1273,513,l),
(1042,194,o),
(918,158,o),
(788,158,cs),
(577,158,o),
(434,273,o),
(434,521,cs),
(434,558,o),
(436,589,o),
(448,656,cs),
(476,825,ls),
(527,1129,o),
(687,1295,o),
(935,1295,cs),
(1115,1295,o),
(1222,1242,o),
(1278,1064,c),
(1467,1138,l),
(1416,1329,o),
(1267,1487,o),
(960,1487,cs,{
name = hr00;
})
);
}
);
width = 1690;
},
{
layerId = "B042A474-670A-4404-9662-903C467C1F9E";
shapes = (
{
closed = 1;
nodes = (
(529,1487,o),
(234,1152,o),
(234,566,cs),
(234,242,o),
(380,6,o),
(670,-28,c),
(586,-237,l),
(693,-242,ls),
(803,-248,o),
(842,-293,o),
(842,-358,cs),
(842,-451,o),
(763,-518,o),
(642,-518,cs),
(563,-518,o),
(504,-490,o),
(467,-442,c),
(428,-479,l),
(462,-527,o),
(538,-569,o),
(642,-569,cs),
(803,-569,o),
(901,-470,o),
(901,-355,cs),
(901,-262,o),
(839,-203,o),
(735,-203,cs),
(712,-203,o),
(679,-206,o),
(653,-211,c),
(648,-206,l),
(721,-34,l),
(729,-34,o),
(738,-34,o),
(746,-34,cs),
(1017,-34,o),
(1200,138,o),
(1354,391,c),
(1304,414,l),
(1155,175,o),
(988,20,o),
(743,20,cs),
(428,20,o),
(290,265,o),
(290,566,cs),
(290,622,o),
(293,656,o),
(301,712,cs),
(324,850,ls),
(383,1208,o),
(620,1433,o),
(941,1433,cs),
(1138,1433,o),
(1290,1332,o),
(1338,1149,c),
(1391,1163,l),
(1346,1354,o),
(1174,1487,o),
(943,1487,cs,{
name = hr00;
})
);
}
);
width = 1690;
}
);
unicode = 231;
},
{
glyphname = d;
lastChange = "2022-01-21 13:11:03 +0000";
layers = (
{
anchors = (
{
name = bottom;
pos = (558,0);
},
{
name = topright;
pos = (1878,2084);
}
);
layerId = "586BE664-8D6A-4867-BE1B-390608DE01EA";
shapes = (
{
closed = 1;
nodes = (
(1388,0,l),
(1735,2084,l),
(1324,2084,l),
(1174,1183,l),
(1155,1183,l),
(1112,1374,o),
(1002,1487,o),
(774,1487,cs),
(372,1487,o),
(107,1107,o),
(107,529,cs),
(107,189,o),
(225,-34,o),
(532,-34,cs,{
name = hr01;
}),
(780,-34,o),
(910,124,o),
(1019,346,c,{
name = hr02;
}),
(1033,346,l),
(977,0,l)
);
},
{
closed = 1;
nodes = (
(574,284,o),
(527,391,o),
(524,529,cs),
(524,577,o),
(529,622,o),
(535,656,cs),
(563,825,ls),
(600,1045,o),
(704,1169,o),
(907,1169,cs),
(1084,1169,o),
(1157,1081,o),
(1132,929,cs),
(1093,696,ls),
(1073,574,o),
(1005,476,o),
(960,422,cs),
(893,338,o),
(817,284,o),
(715,284,cs,{
name = hr03;
})
);
}
);
width = 1690;
},
{
anchors = (
{
name = bottom;
pos = (639,0);
},
{
name = topright;
pos = (1822,2084);
}
);
layerId = "9AAD14F8-FE06-4230-ACE0-3E9D6F8A5A9E";
shapes = (
{
closed = 1;
nodes = (
(1298,0,l),
(1647,2084,l),
(1428,2084,l),
(1278,1200,l),
(1270,1200,l),
(1208,1388,o),
(1059,1487,o),
(845,1487,cs),
(332,1487,o),
(158,918,o),
(158,529,cs),
(158,158,o),
(318,-34,o),
(611,-34,cs,{
name = hr01;
}),
(867,-34,o),
(1014,115,o),
(1126,344,c,{
name = hr02;
}),
(1135,344,l),
(1079,0,l)
);
},
{
closed = 1;
nodes = (
(484,161,o),
(380,290,o),
(380,507,cs),
(380,543,o),
(383,583,o),
(391,634,cs),
(425,836,ls),
(470,1107,o),
(631,1293,o),
(910,1293,cs),
(1126,1293,o),
(1276,1177,o),
(1242,974,cs),
(1188,653,ls),
(1166,518,o),
(1101,403,o),
(1028,321,cs),
(926,208,o),
(808,161,o),
(687,161,cs,{
name = hr03;
})
);
}
);
width = 1690;
},
{
anchors = (
{
name = bottom;
pos = (687,0);
},
{
name = topright;
pos = (1763,2084);
}
);
layerId = "B042A474-670A-4404-9662-903C467C1F9E";
shapes = (
{
closed = 1;
nodes = (
(1219,0,l),
(1566,2084,l),
(1507,2084,l),
(1360,1191,l),
(1352,1191,l),
(1295,1363,o),
(1138,1487,o),
(881,1487,cs),
(470,1487,o),
(200,1081,o),
(200,524,cs),
(200,203,o),
(366,-34,o),
(687,-34,cs,{
name = hr01;
}),
(943,-34,o),
(1095,113,o),
(1205,324,c,{
name = hr02;
}),
(1214,324,l),
(1160,0,l)
);
},
{
closed = 1;
nodes = (
(380,20,o),
(256,251,o),
(256,524,cs),
(256,572,o),
(259,620,o),
(268,667,cs),
(290,805,ls),
(349,1160,o),
(560,1433,o),
(881,1433,cs),
(1242,1433,o),
(1357,1194,o),
(1326,1000,cs),
(1256,574,ls),
(1225,389,o),
(1118,234,o),
(1008,135,cs),
(915,54,o),
(811,20,o),
(687,20,cs,{
name = hr03;
})
);
}
);
width = 1690;
}
);
unicode = 100;
},
{
glyphname = eth;
lastChange = "2022-01-21 13:11:03 +0000";
layers = (
{
layerId = "586BE664-8D6A-4867-BE1B-390608DE01EA";
shapes = (
{
closed = 1;
nodes = (
(1445,2120,l),
(1177,1977,l),
(1135,2016,o),
(1093,2050,o),
(1050,2084,c),
(422,2084,l),
(574,1997,o),
(715,1898,o),
(831,1791,c),
(574,1656,l),
(690,1487,l),
(977,1642,l),
(1104,1490,o),
(1191,1321,o),
(1214,1149,c),
(1191,1138,l),
(1126,1307,o),
(1002,1408,o),
(788,1408,cs),
(389,1408,o),
(90,1056,o),
(90,574,cs),
(90,200,o),
(315,-34,o),
(718,-34,cs),
(1233,-34,o),
(1599,287,o),
(1599,994,cs),
(1599,1340,o),
(1484,1616,o),
(1318,1825,c),
(1554,1951,l,{
name = hr00;
})
);
},
{
closed = 1;
nodes = (
(603,273,o),
(504,355,o),
(504,515,cs),
(504,541,o),
(507,569,o),
(513,603,cs),
(538,755,ls),
(574,974,o),
(710,1095,o),
(898,1095,cs),
(1059,1095,o),
(1157,1014,o),
(1157,853,cs),
(1157,828,o),
(1155,800,o),
(1149,766,cs),
(1124,614,ls),
(1087,394,o),
(952,273,o),
(763,273,cs)
);
}
);
width = 1690;
},
{
layerId = "9AAD14F8-FE06-4230-ACE0-3E9D6F8A5A9E";
shapes = (
{
closed = 1;
nodes = (
(1408,2120,l),
(1115,1935,l),
(1053,1997,o),
(988,2047,o),
(938,2084,c),
(586,2084,l),
(724,2011,o),
(842,1923,o),
(941,1828,c),
(670,1656,l),
(758,1526,l),
(1050,1709,l),
(1194,1535,o),
(1281,1343,o),
(1315,1169,c),
(1301,1163,l),
(1242,1312,o),
(1079,1419,o),
(893,1419,cs),
(473,1419,o),
(169,1039,o),
(169,558,cs),
(169,203,o),
(389,-34,o),
(721,-34,cs),
(1233,-34,o),
(1518,352,o),
(1518,943,cs),
(1518,1332,o),
(1377,1619,o),
(1219,1816,c),
(1495,1991,l,{
name = hr00;
})
);
},
{
closed = 1;
nodes = (
(538,158,o),
(394,268,o),
(394,496,cs),
(394,527,o),
(397,572,o),
(408,639,cs),
(434,791,ls),
(482,1084,o),
(676,1228,o),
(926,1228,cs),
(1146,1228,o),
(1290,1118,o),
(1290,890,cs),
(1290,859,o),
(1287,814,o),
(1276,746,cs),
(1250,594,ls),
(1202,307,o),
(1011,158,o),
(758,158,cs)
);
}
);
width = 1690;
},
{
layerId = "B042A474-670A-4404-9662-903C467C1F9E";
shapes = (
{
closed = 1;
nodes = (
(1394,2098,l),
(1062,1887,l),
(986,1966,o),
(910,2030,o),
(842,2084,c),
(749,2084,l),
(842,2019,o),
(935,1943,o),
(1017,1859,c),
(701,1659,l),
(729,1619,l),
(1048,1822,l),
(1202,1647,o),
(1324,1431,o),
(1366,1186,c),
(1357,1180,l),
(1278,1340,o),
(1118,1431,o),
(921,1431,cs),
(515,1431,o),
(220,1067,o),
(220,507,cs),
(220,175,o),
(414,-34,o),
(724,-34,cs),
(1135,-34,o),
(1442,298,o),
(1442,929,cs),
(1442,1352,o),
(1276,1647,o),
(1095,1850,c),
(1422,2058,l,{
name = hr00;
})
);
},
{
closed = 1;
nodes = (
(456,20,o),
(276,203,o),
(276,507,cs),
(276,555,o),
(279,611,o),
(287,667,cs),
(310,791,ls),
(377,1160,o),
(622,1377,o),
(929,1377,cs),
(1200,1377,o),
(1380,1194,o),
(1380,890,cs),
(1380,842,o),
(1377,786,o),
(1369,729,cs),
(1346,605,ls),
(1278,237,o),
(1039,20,o),
(727,20,cs)
);
}
);
width = 1690;
}
);
unicode = 240;
},
{
glyphname = dcaron;
lastChange = "2022-01-21 13:11:03 +0000";
layers = (
{
layerId = "586BE664-8D6A-4867-BE1B-390608DE01EA";
shapes = (
{
closed = 1;
nodes = (
(605,-34,o),
(693,93,o),
(780,268,c),
(800,268,l),
(755,0,l,{
name = hr01;
}),
(1146,0,l),
(1495,2084,l),
(1104,2084,l),
(952,1183,l),
(935,1183,l),
(893,1371,o),
(811,1487,o),
(617,1487,cs),
(282,1487,o),
(51,1107,o),
(51,529,cs),
(51,189,o),
(155,-34,o),
(422,-34,cs)
);
},
{
closed = 1;
nodes = (
(515,284,o),
(465,372,o),
(465,484,cs),
(465,552,o),
(470,605,o),
(479,656,cs),
(510,842,ls),
(543,1042,o),
(611,1169,o),
(752,1169,cs),
(879,1169,o),
(938,1084,o),
(912,941,cs),
(853,591,ls),
(834,473,o),
(774,380,o),
(727,335,cs),
(690,304,o),
(662,284,o),
(600,284,cs)
);
},
{
closed = 1;
nodes = (
(1752,1492,l),
(2002,2084,l),
(1639,2084,l),
(1538,1492,l)
);
}
);
width = 1690;
},
{
layerId = "9AAD14F8-FE06-4230-ACE0-3E9D6F8A5A9E";
shapes = (
{
closed = 1;
nodes = (
(788,-34,o),
(932,115,o),
(1039,344,c),
(1048,344,l),
(991,0,l,{
name = hr01;
}),
(1211,0,l),
(1560,2084,l),
(1340,2084,l),
(1194,1200,l),
(1186,1200,l),
(1129,1388,o),
(980,1487,o),
(774,1487,cs),
(282,1487,o),
(113,915,o),
(113,529,cs),
(113,158,o),
(268,-34,o),
(543,-34,cs)
);
},
{
closed = 1;
nodes = (
(434,161,o),
(335,290,o),
(335,510,cs),
(335,546,o),
(338,586,o),
(346,636,cs),
(380,839,ls),
(425,1110,o),
(577,1293,o),
(839,1293,cs),
(1036,1293,o),
(1191,1186,o),
(1155,974,cs),
(1101,656,ls),
(1079,521,o),
(1014,400,o),
(949,324,cs),
(842,197,o),
(727,161,o),
(625,161,cs)
);
},
{
closed = 1;
nodes = (
(1825,1557,l),
(2050,2084,l),
(1763,2084,l),
(1661,1557,l)
);
}
);
width = 1690;
},
{
layerId = "B042A474-670A-4404-9662-903C467C1F9E";
shapes = (
{
closed = 1;
nodes = (
(943,-34,o),
(1095,113,o),
(1205,324,c),
(1214,324,l),
(1160,0,l,{
name = hr01;
}),
(1219,0,l),
(1566,2084,l),
(1507,2084,l),
(1360,1191,l),
(1352,1191,l),
(1295,1363,o),
(1138,1487,o),
(881,1487,cs),
(470,1487,o),
(200,1081,o),
(200,524,cs),
(200,203,o),
(366,-34,o),
(687,-34,cs)
);
},
{
closed = 1;
nodes = (
(380,20,o),
(256,251,o),
(256,524,cs),
(256,572,o),
(259,620,o),
(268,667,cs),
(290,805,ls),
(349,1160,o),
(560,1433,o),
(881,1433,cs),
(1242,1433,o),
(1357,1194,o),
(1326,1000,cs),
(1256,574,ls),
(1225,389,o),
(1118,234,o),
(1008,135,cs),
(915,54,o),
(811,20,o),
(687,20,cs)
);
},
{
closed = 1;
nodes = (
(1732,1588,l),
(1881,2084,l),
(1811,2084,l),
(1684,1588,l)
);
}
);
width = 1690;
}
);
unicode = 271;
},
{
glyphname = dcroat;
lastChange = "2022-01-21 13:11:03 +0000";
layers = (
{
layerId = "586BE664-8D6A-4867-BE1B-390608DE01EA";
shapes = (
{
closed = 1;
nodes = (
(1388,0,l),
(1661,1636,l),
(1814,1636,l),
(1864,1940,l),
(1712,1940,l),
(1737,2084,l),
(1326,2084,l),
(1301,1940,l),
(907,1940,l),
(856,1636,l),
(1250,1636,l),
(1174,1183,l),
(1155,1183,l),
(1112,1374,o),
(1002,1487,o),
(774,1487,c),
(372,1487,o),
(107,1107,o),
(107,529,cs),
(107,189,o),
(225,-34,o),
(532,-34,cs,{
name = hr01;
}),
(780,-34,o),
(910,124,o),
(1019,346,c,{
name = hr02;
}),
(1033,346,l),
(977,0,l)
);
},
{
closed = 1;
nodes = (
(574,284,o),
(527,391,o),
(524,529,cs),
(524,577,o),
(529,622,o),
(535,656,cs),
(563,825,ls),
(600,1045,o),
(704,1169,o),
(907,1169,cs),
(1084,1169,o),
(1157,1081,o),
(1132,929,cs),
(1093,696,ls),
(1073,574,o),
(1005,476,o),
(960,422,cs),
(893,338,o),
(817,284,o),
(715,284,cs,{
name = hr03;
})
);
}
);
width = 1690;
},
{
layerId = "9AAD14F8-FE06-4230-ACE0-3E9D6F8A5A9E";
shapes = (
{
closed = 1;
nodes = (
(1298,0,l),
(1585,1715,l),
(1766,1715,l),
(1794,1884,l),
(1614,1884,l),
(1647,2084,l),
(1428,2084,l),
(1394,1884,l),
(963,1884,l),
(935,1715,l),
(1366,1715,l),
(1278,1200,l),
(1270,1200,l),
(1208,1388,o),
(1059,1487,o),
(845,1487,cs),
(332,1487,o),
(158,918,o),
(158,529,cs),
(158,158,o),
(318,-34,o),
(611,-34,cs,{
name = hr01;
}),
(867,-34,o),
(1014,115,o),
(1126,344,c,{
name = hr02;
}),
(1135,344,l),
(1079,0,l)
);
},
{
closed = 1;
nodes = (
(484,161,o),
(380,290,o),
(380,507,cs),
(380,543,o),
(383,583,o),
(391,634,cs),
(425,836,ls),
(470,1107,o),
(631,1293,o),
(910,1293,cs),
(1126,1293,o),
(1276,1177,o),
(1242,974,cs),
(1188,653,ls),
(1166,518,o),
(1101,403,o),
(1028,321,cs),
(926,208,o),
(808,161,o),
(687,161,cs,{
name = hr03;
})
);
}
);
width = 1690;
},
{
layerId = "B042A474-670A-4404-9662-903C467C1F9E";
shapes = (
{
closed = 1;
nodes = (
(1219,0,l),
(1518,1791,l),
(1718,1791,l),
(1726,1842,l),
(1526,1842,l),
(1566,2084,l),
(1507,2084,l),
(1467,1842,l),
(1000,1842,l),
(991,1791,l),
(1459,1791,l),
(1360,1191,l),
(1352,1191,l),
(1295,1363,o),
(1138,1487,o),
(881,1487,cs),
(470,1487,o),
(200,1081,o),
(200,524,cs),
(200,203,o),
(366,-34,o),
(687,-34,cs,{
name = hr01;
}),
(943,-34,o),
(1095,113,o),
(1205,324,c,{
name = hr02;
}),
(1214,324,l),
(1160,0,l)
);
},
{
closed = 1;
nodes = (
(380,20,o),
(256,251,o),
(256,524,cs),
(256,572,o),
(259,620,o),
(268,667,cs),
(290,805,ls),
(349,1160,o),
(560,1433,o),
(881,1433,cs),
(1242,1433,o),
(1357,1194,o),
(1326,1000,cs),
(1256,574,ls),
(1225,389,o),
(1118,234,o),
(1008,135,cs),
(915,54,o),
(811,20,o),
(687,20,cs,{
name = hr03;
})
);
}
);
width = 1690;
}
);
unicode = 273;
},
{
glyphname = e;
lastChange = "2022-01-21 13:11:03 +0000";
layers = (
{
anchors = (
{
name = bottom;
pos = (828,0);
},
{
name = bottomright;
pos = (1152,0);
},
{
name = top;
pos = (966,1453);
}
);
layerId = "586BE664-8D6A-4867-BE1B-390608DE01EA";
shapes = (
{
closed = 1;
nodes = (
(1163,-34,o),
(1349,146,o),
(1501,363,c),
(1245,529,l),
(1095,338,o),
(1005,282,o),
(845,282,cs),
(648,282,o),
(566,369,o),
(566,524,cs),
(566,538,o),
(566,549,o),
(569,572,c),
(1397,603,o),
(1549,853,o),
(1549,1087,cs),
(1549,1354,o),
(1307,1487,o),
(1014,1487,cs),
(498,1487,o),
(158,1126,o),
(158,586,cs),
(158,200,o),
(363,-34,o),
(791,-34,cs,{
name = hr00;
})
);
},
{
closed = 1;
nodes = (
(1095,1197,o),
(1152,1143,o),
(1152,1050,cs),
(1152,957,o),
(1118,836,o),
(597,808,c),
(605,848,ls),
(659,1098,o),
(794,1197,o),
(972,1197,cs)
);
}
);
width = 1690;
},
{
anchors = (
{
name = bottom;
pos = (791,0);
},
{
name = bottomright;
pos = (1014,0);
},
{
name = top;
pos = (997,1453);
}
);
layerId = "9AAD14F8-FE06-4230-ACE0-3E9D6F8A5A9E";
shapes = (
{
closed = 1;
nodes = (
(1087,-34,o),
(1284,113,o),
(1447,380,c),
(1293,476,l),
(1129,245,o),
(1008,155,o),
(800,155,cs),
(496,155,o),
(436,344,o),
(436,546,cs),
(436,552,o),
(436,583,o),
(439,611,c),
(1366,636,o),
(1498,890,o),
(1498,1095,cs),
(1498,1349,o),
(1290,1487,o),
(1005,1487,cs),
(538,1487,o),
(206,1115,o),
(206,589,cs),
(206,172,o),
(414,-34,o),
(780,-34,cs,{
name = hr00;
})
);
},
{
closed = 1;
nodes = (
(1197,1304,o),
(1273,1205,o),
(1273,1087,cs),
(1273,946,o),
(1166,786,o),
(456,763,c),
(459,791,ls),
(501,1121,o),
(693,1304,o),
(986,1304,cs)
);
}
);
width = 1690;
},
{
anchors = (
{
name = bottom;
pos = (763,0);
},
{
name = bottomright;
pos = (974,0);
},
{
name = top;
pos = (960,1453);
}
);
layerId = "B042A474-670A-4404-9662-903C467C1F9E";
shapes = (
{
closed = 1;
nodes = (
(1028,-34,o),
(1219,101,o),
(1374,397,c),
(1324,422,l),
(1200,172,o),
(1019,20,o),
(769,20,cs),
(420,20,o),
(290,268,o),
(290,577,cs),
(290,580,o),
(290,620,o),
(293,650,c),
(1298,670,o),
(1422,952,o),
(1422,1140,cs),
(1422,1354,o),
(1250,1487,o),
(966,1487,cs),
(532,1487,o),
(234,1076,o),
(234,597,cs),
(234,186,o),
(420,-34,o),
(769,-34,cs,{
name = hr00;
})
);
},
{
closed = 1;
nodes = (
(1247,1433,o),
(1360,1307,o),
(1360,1140,cs),
(1360,935,o),
(1188,718,o),
(298,704,c),
(313,791,ls),
(377,1197,o),
(656,1433,o),
(960,1433,cs)
);
}
);
width = 1690;
}
);
unicode = 101;
},
{
glyphname = eogonek;
lastChange = "2022-01-21 13:11:03 +0000";
layers = (
{
layerId = "586BE664-8D6A-4867-BE1B-390608DE01EA";
shapes = (
{
closed = 1;
nodes = (
(1079,-597,o),
(1188,-535,o),
(1259,-445,c),
(1107,-318,l),
(1067,-377,o),
(1014,-394,o),
(957,-394,cs),
(895,-394,o),
(853,-369,o),
(853,-298,cs),
(853,-217,o),
(918,-115,o),
(1155,34,cs),
(1335,146,o),
(1416,245,o),
(1501,363,c),
(1245,529,l),
(1095,338,o),
(1005,282,o),
(845,282,cs),
(650,282,o),
(566,369,o),
(566,521,cs),
(566,538,o),
(566,555,o),
(569,572,c),
(1397,603,o),
(1549,853,o),
(1549,1087,cs),
(1549,1354,o),
(1307,1487,o),
(1014,1487,cs),
(498,1487,o),
(158,1126,o),
(158,586,cs),
(158,200,o),
(363,-34,o),
(791,-34,cs),
(822,-34,o),
(870,-31,o),
(890,-28,c),
(893,-39,l),
(701,-101,o),
(574,-217,o),
(574,-358,cs),
(574,-513,o),
(718,-597,o),
(918,-597,cs,{
name = hr00;
})
);
},
{
closed = 1;
nodes = (
(1095,1197,o),
(1152,1143,o),
(1152,1050,cs),
(1152,957,o),
(1118,836,o),
(597,808,c),
(605,848,ls),
(659,1098,o),
(794,1197,o),
(972,1197,cs)
);
}
);
width = 1690;
},
{
layerId = "9AAD14F8-FE06-4230-ACE0-3E9D6F8A5A9E";
shapes = (
{
closed = 1;
nodes = (
(1031,-583,o),
(1124,-532,o),
(1174,-479,c),
(1067,-358,l),
(1014,-406,o),
(960,-431,o),
(915,-431,cs),
(862,-431,o),
(814,-403,o),
(814,-335,cs),
(814,-239,o),
(876,-127,o),
(1155,68,cs),
(1267,146,o),
(1363,239,o),
(1447,380,c),
(1293,476,l),
(1129,245,o),
(1008,155,o),
(800,155,cs),
(496,155,o),
(436,344,o),
(436,546,cs),
(436,552,o),
(436,583,o),
(439,611,c),
(1366,636,o),
(1498,890,o),
(1498,1095,cs),
(1498,1349,o),
(1290,1487,o),
(1005,1487,cs),
(538,1487,o),
(206,1115,o),
(206,589,cs),
(206,172,o),
(414,-34,o),
(780,-34,cs),
(825,-34,o),
(870,-31,o),
(910,-25,c),
(912,-37,l),
(735,-121,o),
(622,-225,o),
(622,-372,cs),
(622,-524,o),
(755,-583,o),
(898,-583,cs,{
name = hr00;
})
);
},
{
closed = 1;
nodes = (
(1197,1304,o),
(1273,1205,o),
(1273,1087,cs),
(1273,946,o),
(1166,786,o),
(456,763,c),
(459,791,ls),
(501,1121,o),
(693,1304,o),
(986,1304,cs)
);
}
);
width = 1690;
},
{
layerId = "B042A474-670A-4404-9662-903C467C1F9E";
shapes = (
{
closed = 1;
nodes = (
(941,-569,o),
(1014,-529,o),
(1056,-479,c),
(1019,-448,l),
(986,-482,o),
(935,-518,o),
(850,-518,cs),
(755,-518,o),
(690,-479,o),
(690,-383,cs),
(690,-222,o),
(803,-127,o),
(1073,45,cs),
(1188,118,o),
(1287,231,o),
(1374,397,c),
(1324,422,l),
(1200,172,o),
(1019,20,o),
(769,20,cs),
(420,20,o),
(290,268,o),
(290,577,cs),
(290,580,o),
(290,620,o),
(293,650,c),
(1298,670,o),
(1422,952,o),
(1422,1140,cs),
(1422,1354,o),
(1250,1487,o),
(966,1487,cs),
(532,1487,o),
(234,1076,o),
(234,597,cs),
(234,186,o),
(420,-34,o),
(769,-34,cs),
(822,-34,o),
(876,-25,o),
(926,-8,c),
(929,-14,l),
(667,-161,o),
(631,-290,o),
(631,-389,cs),
(631,-513,o),
(727,-569,o),
(850,-569,cs,{
name = hr00;
})
);
},
{
closed = 1;
nodes = (
(1247,1433,o),
(1360,1307,o),
(1360,1140,cs),
(1360,935,o),
(1188,718,o),
(298,704,c),
(313,791,ls),
(377,1197,o),
(656,1433,o),
(960,1433,cs)
);
}
);
width = 1690;
}
);
unicode = 281;
},
{
glyphname = schwa;
lastChange = "2022-01-21 13:11:03 +0000";
layers = (
{
layerId = "586BE664-8D6A-4867-BE1B-390608DE01EA";
shapes = (
{
closed = 1;
nodes = (
(1191,-34,o),
(1532,327,o),
(1532,867,cs),
(1532,1253,o),
(1326,1487,o),
(898,1487,cs),
(527,1487,o),
(341,1307,o),
(189,1090,c),
(445,924,l),
(594,1115,o),
(684,1171,o),
(845,1171,cs),
(1042,1171,o),
(1124,1084,o),
(1124,929,cs),
(1124,915,o),
(1124,904,o),
(1121,881,c),
(293,850,o),
(141,600,o),
(141,366,cs),
(141,99,o),
(383,-34,o),
(676,-34,cs,{
name = hr00;
})
);
},
{
closed = 1;
nodes = (
(594,256,o),
(538,310,o),
(538,403,cs),
(538,496,o),
(572,617,o),
(1093,645,c),
(1084,605,ls),
(1031,355,o),
(895,256,o),
(718,256,cs)
);
}
);
width = 1690;
},
{
layerId = "9AAD14F8-FE06-4230-ACE0-3E9D6F8A5A9E";
shapes = (
{
closed = 1;
nodes = (
(1152,-34,o),
(1484,338,o),
(1484,865,cs),
(1484,1281,o),
(1276,1487,o),
(910,1487,cs),
(603,1487,o),
(406,1340,o),
(242,1073,c),
(397,977,l),
(560,1208,o),
(681,1298,o),
(890,1298,cs),
(1194,1298,o),
(1253,1110,o),
(1253,907,cs),
(1253,901,o),
(1253,870,o),
(1250,842,c),
(324,817,o),
(191,563,o),
(191,358,cs),
(191,104,o),
(400,-34,o),
(684,-34,cs,{
name = hr00;
})
);
},
{
closed = 1;
nodes = (
(493,149,o),
(417,248,o),
(417,366,cs),
(417,507,o),
(524,667,o),
(1233,690,c),
(1231,662,ls),
(1188,332,o),
(997,149,o),
(704,149,cs)
);
}
);
width = 1690;
},
{
layerId = "B042A474-670A-4404-9662-903C467C1F9E";
shapes = (
{
closed = 1;
nodes = (
(1152,-34,o),
(1450,377,o),
(1450,856,cs),
(1450,1267,o),
(1264,1487,o),
(915,1487,cs),
(656,1487,o),
(465,1352,o),
(310,1056,c),
(360,1031,l),
(484,1281,o),
(665,1433,o),
(915,1433,cs),
(1264,1433,o),
(1394,1186,o),
(1394,876,cs),
(1394,873,o),
(1394,834,o),
(1391,803,c),
(386,783,o),
(262,501,o),
(262,313,cs),
(262,99,o),
(434,-34,o),
(718,-34,cs,{
name = hr00;
})
);
},
{
closed = 1;
nodes = (
(436,20,o),
(324,146,o),
(324,313,cs),
(324,518,o),
(496,735,o),
(1385,749,c),
(1371,662,ls),
(1307,256,o),
(1028,20,o),
(724,20,cs)
);
}
);
width = 1690;
}
);
unicode = 601;
},
{
glyphname = f;
lastChange = "2022-01-21 13:11:03 +0000";
layers = (
{
layerId = "586BE664-8D6A-4867-BE1B-390608DE01EA";
shapes = (
{
closed = 1;
nodes = (
(724,-597,o),
(887,-465,o),
(941,-149,cs),
(1155,1132,l),
(1681,1132,l),
(1735,1453,l),
(1211,1453,l),
(1262,1763,l),
(1785,1763,l),
(1839,2084,l),
(1338,2084,ls),
(1036,2084,o),
(876,1915,o),
(836,1673,cs),
(800,1453,l),
(341,1453,l),
(287,1132,l),
(746,1132,l),
(515,-259,l),
(482,-273,l),
(191,110,l),
(-90,-84,l),
(25,-251,ls),
(172,-459,o),
(282,-597,o),
(487,-597,cs,{
name = hr00;
})
);
}
);
width = 1690;
},
{
layerId = "9AAD14F8-FE06-4230-ACE0-3E9D6F8A5A9E";
shapes = (
{
closed = 1;
nodes = (
(721,-597,o),
(797,-459,o),
(822,-301,cs),
(1084,1264,l),
(1673,1264,l),
(1704,1453,l),
(1115,1453,l),
(1188,1895,l),
(1774,1895,l),
(1805,2084,l),
(1318,2084,ls),
(1101,2084,o),
(977,1946,o),
(946,1754,cs),
(895,1453,l),
(377,1453,l),
(346,1264,l),
(865,1264,l),
(589,-389,l),
(538,-400,l),
(104,62,l),
(-45,-73,l),
(127,-262,ls),
(352,-507,o),
(434,-597,o),
(552,-597,cs,{
name = hr00;
})
);
}
);
width = 1690;
},
{
layerId = "B042A474-670A-4404-9662-903C467C1F9E";
shapes = (
{
closed = 1;
nodes = (
(634,-597,o),
(650,-566,o),
(662,-501,cs),
(980,1400,l),
(1614,1400,l),
(1622,1453,l),
(988,1453,l),
(1084,2030,l),
(1718,2030,l),
(1726,2084,l),
(1110,2084,ls),
(1053,2084,o),
(1028,2061,o),
(1019,2002,cs),
(929,1453,l),
(386,1453,l),
(377,1400,l),
(921,1400,l),
(597,-538,l),
(580,-543,l),
(11,-34,l),
(-28,-73,l),
(501,-549,ls),
(538,-580,o),
(560,-597,o),
(589,-597,cs,{
name = hr00;
})
);
}
);
width = 1690;
}
);
unicode = 102;
},
{
glyphname = g;
lastChange = "2022-01-21 13:11:03 +0000";
layers = (
{
anchors = (
{
name = top;
pos = (932,1453);
}
);
layerId = "586BE664-8D6A-4867-BE1B-390608DE01EA";
shapes = (
{
closed = 1;
nodes = (
(1062,-597,o),
(1332,-369,o),
(1411,101,cs),
(1636,1453,l),
(1225,1453,l),
(1180,1183,l),
(1157,1183,l),
(1118,1374,o),
(1008,1487,o),
(774,1487,cs,{
name = hr01;
}),
(366,1487,o),
(115,1115,o),
(115,586,cs),
(115,262,o),
(239,23,o),
(552,23,cs),
(803,23,o),
(929,180,o),
(1036,403,c),
(1053,403,l),
(1011,152,ls),
(952,-203,o),
(828,-279,o),
(620,-279,cs),
(490,-279,o),
(372,-239,o),
(282,-130,c),
(37,-383,l),
(183,-555,o),
(360,-597,o),
(631,-597,cs)
);
},
{
closed = 1;
nodes = (
(591,344,o),
(538,445,o),
(538,569,cs),
(538,628,o),
(543,673,o),
(549,707,cs),
(569,825,ls),
(603,1028,o),
(707,1169,o),
(915,1169,cs),
(1098,1169,o),
(1163,1073,o),
(1140,938,cs),
(1110,749,ls),
(1087,614,o),
(1017,527,o),
(972,473,cs),
(904,394,o),
(834,344,o),
(732,344,cs)
);
}
);
width = 1690;
},
{
anchors = (
{
name = top;
pos = (924,1453);
}
);
layerId = "9AAD14F8-FE06-4230-ACE0-3E9D6F8A5A9E";
shapes = (
{
closed = 1;
nodes = (
(960,-597,o),
(1225,-428,o),
(1298,0,cs),
(1540,1453,l),
(1321,1453,l),
(1278,1200,l),
(1270,1200,l),
(1208,1388,o),
(1059,1487,o),
(845,1487,cs,{
name = hr01;
}),
(344,1487,o),
(161,941,o),
(161,566,cs),
(161,211,o),
(318,14,o),
(617,14,cs),
(873,14,o),
(1025,158,o),
(1135,391,c),
(1146,391,l),
(1087,42,ls),
(1033,-279,o),
(876,-403,o),
(611,-403,cs),
(434,-403,o),
(315,-346,o),
(239,-251,c),
(87,-397,l),
(191,-527,o),
(363,-597,o),
(597,-597,cs)
);
},
{
closed = 1;
nodes = (
(490,208,o),
(386,335,o),
(386,566,cs),
(386,605,o),
(391,639,o),
(400,690,cs),
(425,842,ls),
(470,1112,o),
(636,1293,o),
(910,1293,cs),
(1126,1293,o),
(1276,1177,o),
(1242,974,cs),
(1197,698,ls),
(1171,541,o),
(1090,428,o),
(1036,369,cs),
(932,253,o),
(814,208,o),
(693,208,cs)
);
}
);
width = 1690;
},
{
anchors = (
{
name = top;
pos = (904,1453);
}
);
layerId = "B042A474-670A-4404-9662-903C467C1F9E";
shapes = (
{
closed = 1;
nodes = (
(929,-597,o),
(1149,-422,o),
(1211,-51,cs),
(1462,1453,l),
(1402,1453,l),
(1360,1191,l),
(1352,1191,l),
(1295,1363,o),
(1138,1487,o),
(881,1487,cs,{
name = hr01;
}),
(470,1487,o),
(200,1081,o),
(200,524,cs),
(200,203,o),
(366,-34,o),
(687,-34,cs),
(943,-34,o),
(1095,113,o),
(1205,324,c),
(1214,324,l),
(1155,-37,ls),
(1095,-394,o),
(893,-543,o),
(583,-543,cs),
(386,-543,o),
(265,-476,o),
(183,-369,c),
(138,-408,l),
(231,-524,o),
(372,-597,o),
(583,-597,cs)
);
},
{
closed = 1;
nodes = (
(380,20,o),
(256,251,o),
(256,524,cs),
(256,572,o),
(259,620,o),
(268,667,cs),
(290,805,ls),
(349,1160,o),
(560,1433,o),
(881,1433,cs),
(1242,1433,o),
(1357,1194,o),
(1326,1000,cs),
(1256,574,ls),
(1225,389,o),
(1118,234,o),
(1008,135,cs),
(915,54,o),
(811,20,o),
(687,20,cs)
);
}
);
width = 1690;
}
);
unicode = 103;
},
{
glyphname = h;
lastChange = "2022-01-21 13:11:03 +0000";
layers = (
{
anchors = (
{
name = bottom;
pos = (732,0);
},
{
name = top;
pos = (600,1966);
}
);
layerId = "586BE664-8D6A-4867-BE1B-390608DE01EA";
shapes = (
{
closed = 1;
nodes = (
(482,0,l),
(608,758,ls),
(628,876,o),
(698,983,o),
(741,1039,cs),
(805,1124,o),
(873,1171,o),
(969,1171,cs),
(1095,1171,o),
(1138,1076,o),
(1138,1000,cs),
(1138,929,o),
(1126,876,o),
(1118,825,cs),
(980,0,l),
(1391,0,l),
(1521,774,ls),
(1543,910,o),
(1552,986,o),
(1552,1067,cs),
(1552,1293,o),
(1439,1487,o),
(1155,1487,cs),
(924,1487,o),
(791,1343,o),
(681,1107,c),
(667,1107,l),
(828,2084,l),
(417,2084,l),
(70,0,l,{
name = hr00;
})
);
}
);
width = 1690;
},
{
anchors = (
{
name = bottom;
pos = (732,0);
},
{
name = top;
pos = (597,1966);
}
);
layerId = "9AAD14F8-FE06-4230-ACE0-3E9D6F8A5A9E";
shapes = (
{
closed = 1;
nodes = (
(386,0,l),
(521,803,ls),
(549,969,o),
(656,1098,o),
(687,1135,cs),
(769,1231,o),
(867,1293,o),
(994,1293,cs),
(1157,1293,o),
(1236,1186,o),
(1236,1014,cs),
(1236,983,o),
(1233,926,o),
(1222,859,cs),
(1079,0,l),
(1298,0,l),
(1445,879,ls),
(1456,943,o),
(1462,1011,o),
(1462,1067,cs),
(1462,1332,o),
(1309,1487,o),
(1067,1487,cs),
(834,1487,o),
(690,1340,o),
(583,1110,c),
(572,1110,l),
(735,2084,l),
(515,2084,l),
(166,0,l,{
name = hr00;
})
);
}
);
width = 1690;
},
{
anchors = (
{
name = bottom;
pos = (738,0);
},
{
name = top;
pos = (605,1966);
}
);
layerId = "B042A474-670A-4404-9662-903C467C1F9E";
shapes = (
{
closed = 1;
nodes = (
(307,0,l),
(453,879,ls),
(482,1042,o),
(569,1177,o),
(628,1250,cs),
(735,1385,o),
(873,1433,o),
(1005,1433,cs),
(1225,1433,o),
(1343,1318,o),
(1343,1087,cs),
(1343,1033,o),
(1338,974,o),
(1329,926,cs),
(1174,0,l),
(1233,0,l),
(1388,929,ls),
(1397,983,o),
(1402,1036,o),
(1402,1090,cs),
(1402,1340,o),
(1264,1487,o),
(1014,1487,cs),
(766,1487,o),
(614,1352,o),
(504,1132,c),
(496,1132,l),
(653,2084,l),
(594,2084,l),
(248,0,l,{
name = hr00;
})
);
}
);
width = 1690;
}
);
unicode = 104;
},
{
glyphname = hbar;
lastChange = "2022-01-21 13:11:03 +0000";
layers = (
{
layerId = "586BE664-8D6A-4867-BE1B-390608DE01EA";
shapes = (
{
closed = 1;
nodes = (
(482,0,l),
(608,758,ls),
(628,876,o),
(698,983,o),
(741,1039,cs),
(805,1124,o),
(873,1171,o),
(969,1171,cs),
(1095,1171,o),
(1138,1076,o),
(1138,1000,cs),
(1138,929,o),
(1126,873,o),
(1118,822,cs),
(980,0,l),
(1391,0,l),
(1521,774,ls),
(1543,910,o),
(1552,986,o),
(1552,1067,cs),
(1552,1293,o),
(1439,1487,o),
(1155,1487,cs),
(924,1487,o),
(791,1343,o),
(681,1107,c),
(667,1107,l),
(755,1636,l),
(1135,1636,l),
(1186,1940,l),
(805,1940,l),
(828,2084,l),
(417,2084,l),
(394,1940,l),
(228,1940,l),
(177,1636,l),
(344,1636,l),
(70,0,l,{
name = hr00;
})
);
}
);
width = 1690;
},
{
layerId = "9AAD14F8-FE06-4230-ACE0-3E9D6F8A5A9E";
shapes = (
{
closed = 1;
nodes = (
(386,0,l),
(521,803,ls),
(549,969,o),
(656,1098,o),
(687,1135,cs),
(769,1231,o),
(867,1293,o),
(994,1293,cs),
(1157,1293,o),
(1236,1186,o),
(1236,1014,cs),
(1236,983,o),
(1233,926,o),
(1222,859,cs),
(1079,0,l),
(1298,0,l),
(1445,879,ls),
(1456,943,o),
(1462,1011,o),
(1462,1067,cs),
(1462,1332,o),
(1309,1487,o),
(1067,1487,cs),
(834,1487,o),
(690,1340,o),
(583,1110,c),
(572,1110,l),
(673,1715,l),
(1098,1715,l),
(1126,1884,l),
(701,1884,l),
(735,2084,l),
(515,2084,l),
(482,1884,l),
(298,1884,l),
(270,1715,l),
(453,1715,l),
(166,0,l,{
name = hr00;
})
);
}
);
width = 1690;
},
{
layerId = "B042A474-670A-4404-9662-903C467C1F9E";
shapes = (
{
closed = 1;
nodes = (
(307,0,l),
(453,879,ls),
(482,1042,o),
(569,1177,o),
(628,1250,cs),
(735,1385,o),
(873,1433,o),
(1005,1433,cs),
(1225,1433,o),
(1343,1318,o),
(1343,1087,cs),
(1343,1033,o),
(1338,974,o),
(1329,926,cs),
(1174,0,l),
(1233,0,l),
(1388,929,ls),
(1397,983,o),
(1402,1036,o),
(1402,1090,cs),
(1402,1340,o),
(1264,1487,o),
(1014,1487,cs),
(766,1487,o),
(614,1352,o),
(504,1132,c),
(496,1132,l),
(605,1791,l),
(1070,1791,l),
(1079,1842,l),
(614,1842,l),
(653,2084,l),
(594,2084,l),
(555,1842,l),
(352,1842,l),
(344,1791,l),
(546,1791,l),
(248,0,l,{
name = hr00;
})
);
}
);
width = 1690;
}
);
unicode = 295;
},
{
glyphname = i;
lastChange = "2022-01-21 13:11:03 +0000";
layers = (
{
anchors = (
{
name = bottom;
pos = (834,0);
},
{
name = bottomright;
pos = (1312,0);
}
);
layerId = "586BE664-8D6A-4867-BE1B-390608DE01EA";
shapes = (
{
closed = 1;
nodes = (
(1124,1645,o),
(1200,1712,o),
(1219,1830,cs),
(1231,1898,o),
(1233,1923,o),
(1233,1943,cs),
(1233,2042,o),
(1171,2115,o),
(1002,2115,cs),
(834,2115,o),
(758,2047,o),
(738,1929,cs),
(727,1861,o),
(724,1836,o),
(724,1816,cs),
(724,1718,o),
(786,1645,o),
(955,1645,cs)
);
},
{
closed = 1;
nodes = (
(1033,-34,o),
(1191,76,o),
(1380,290,cs),
(1552,487,l),
(1326,687,l),
(932,284,l),
(884,298,l,{
name = hr01;
}),
(1101,1453,l),
(245,1453,l),
(191,1132,l),
(631,1132,l),
(518,529,ls),
(496,414,o),
(490,366,o),
(490,304,cs),
(490,99,o),
(608,-34,o),
(839,-34,cs)
);
}
);
width = 1690;
},
{
anchors = (
{
name = bottom;
pos = (743,0);
},
{
name = bottomright;
pos = (907,0);
}
);
layerId = "9AAD14F8-FE06-4230-ACE0-3E9D6F8A5A9E";
shapes = (
{
closed = 1;
nodes = (
(1070,1777,o),
(1129,1828,o),
(1143,1912,cs),
(1149,1946,o),
(1155,1971,o),
(1155,1994,cs),
(1155,2053,o),
(1112,2106,o),
(991,2106,cs),
(879,2106,o),
(819,2056,o),
(805,1971,cs),
(800,1937,o),
(794,1912,o),
(794,1890,cs),
(794,1830,o),
(836,1777,o),
(957,1777,cs,{
name = hr00;
})
);
},
{
closed = 1;
nodes = (
(893,-34,o),
(997,34,o),
(1262,279,cs),
(1518,515,l),
(1385,639,l),
(831,161,l),
(766,186,l),
(1011,1453,l),
(262,1453,l),
(231,1264,l),
(755,1264,l),
(563,273,ls),
(558,239,o),
(549,197,o),
(549,161,cs),
(549,48,o),
(625,-34,o),
(766,-34,cs)
);
}
);
width = 1690;
},
{
anchors = (
{
name = bottom;
pos = (625,0);
},
{
name = bottomright;
pos = (704,0);
}
);
layerId = "B042A474-670A-4404-9662-903C467C1F9E";
shapes = (
{
closed = 1;
nodes = (
(1036,1946,o),
(1062,1968,o),
(1070,2008,cs),
(1073,2025,o),
(1076,2036,o),
(1076,2047,cs),
(1076,2073,o),
(1059,2098,o),
(1002,2098,cs),
(952,2098,o),
(926,2075,o),
(918,2036,cs),
(915,2019,o),
(912,2008,o),
(912,1997,cs),
(912,1971,o),
(929,1946,o),
(986,1946,cs,{
name = hr00;
})
);
},
{
closed = 1;
nodes = (
(662,-34,o),
(696,-6,o),
(743,25,cs),
(1428,490,l),
(1397,532,l),
(650,28,l),
(636,37,l),
(912,1453,l),
(265,1453,l),
(256,1400,l),
(842,1400,l),
(594,118,ls),
(580,48,o),
(577,31,o),
(577,20,cs),
(577,-11,o),
(594,-34,o),
(628,-34,cs)
);
}
);
width = 1690;
}
);
unicode = 105;
},
{
glyphname = dotlessi;
lastChange = "2022-01-21 13:11:03 +0000";
layers = (
{
anchors = (
{
name = bottom;
pos = (822,0);
},
{
name = bottomright;
pos = (1107,0);
},
{
name = top;
pos = (895,1453);
}
);
layerId = "586BE664-8D6A-4867-BE1B-390608DE01EA";
shapes = (
{
closed = 1;
nodes = (
(1033,-34,o),
(1191,76,o),
(1380,290,cs),
(1552,487,l),
(1326,687,l),
(932,284,l),
(884,298,l),
(1101,1453,l),
(245,1453,l),
(191,1132,l),
(631,1132,l),
(518,529,ls),
(496,414,o),
(490,366,o),
(490,304,cs),
(490,99,o),
(608,-34,o),
(839,-34,cs,{
name = hr00;
})
);
}
);
width = 1690;
},
{
anchors = (
{
name = bottom;
pos = (743,0);
},
{
name = bottomright;
pos = (907,0);
},
{
name = top;
pos = (890,1453);
}
);
layerId = "9AAD14F8-FE06-4230-ACE0-3E9D6F8A5A9E";
shapes = (
{
closed = 1;
nodes = (
(893,-34,o),
(997,34,o),
(1262,279,cs),
(1518,515,l),
(1385,639,l),
(831,161,l),
(766,186,l),
(1011,1453,l),
(262,1453,l),
(231,1264,l),
(755,1264,l),
(563,273,ls),
(558,239,o),
(549,197,o),
(549,161,cs),
(549,48,o),
(625,-34,o),
(766,-34,cs,{
name = hr00;
})
);
}
);
width = 1690;
},
{
anchors = (
{
name = bottom;
pos = (625,0);
},
{
name = bottomright;
pos = (704,0);
},
{
name = top;
pos = (881,1453);
}
);
layerId = "B042A474-670A-4404-9662-903C467C1F9E";
shapes = (
{
closed = 1;
nodes = (
(662,-34,o),
(696,-6,o),
(743,25,cs),
(1428,490,l),
(1397,532,l),
(650,28,l),
(636,37,l),
(912,1453,l),
(265,1453,l),
(256,1400,l),
(842,1400,l),
(594,118,ls),
(580,48,o),
(577,31,o),
(577,20,cs),
(577,-11,o),
(594,-34,o),
(628,-34,cs,{
name = hr00;
})
);
}
);
width = 1690;
}
);
unicode = 305;
},
{
glyphname = ij;
lastChange = "2022-01-21 13:11:03 +0000";
layers = (
{
layerId = "586BE664-8D6A-4867-BE1B-390608DE01EA";
shapes = (
{
closed = 1;
nodes = (
(496,0,l),
(738,1453,l),
(327,1453,l),
(84,0,l,{
name = hr00;
})
);
},
{
closed = 1;
nodes = (
(1121,-597,o),
(1276,-428,o),
(1329,-104,cs),
(1588,1453,l),
(1177,1453,l),
(890,-270,l),
(853,-284,l),
(620,-17,l),
(344,-220,l),
(425,-335,ls),
(527,-476,o),
(665,-597,o),
(850,-597,cs)
);
},
{
closed = 1;
nodes = (
(769,1645,o),
(836,1721,o),
(853,1830,cs),
(867,1915,o),
(867,1923,o),
(867,1943,cs),
(867,2042,o),
(805,2115,o),
(636,2115,cs),
(456,2115,o),
(389,2039,o),
(372,1929,cs),
(358,1844,o),
(358,1836,o),
(358,1816,cs),
(358,1718,o),
(420,1645,o),
(589,1645,cs)
);
},
{
closed = 1;
nodes = (
(1605,1645,o),
(1673,1721,o),
(1690,1830,cs),
(1704,1915,o),
(1704,1923,o),
(1704,1943,cs),
(1704,2042,o),
(1642,2115,o),
(1473,2115,cs),
(1293,2115,o),
(1225,2039,o),
(1208,1929,cs),
(1194,1844,o),
(1194,1836,o),
(1194,1816,cs),
(1194,1718,o),
(1256,1645,o),
(1425,1645,cs)
);
}
);
width = 1690;
},
{
layerId = "9AAD14F8-FE06-4230-ACE0-3E9D6F8A5A9E";
shapes = (
{
closed = 1;
nodes = (
(397,0,l),
(639,1453,l),
(420,1453,l),
(177,0,l,{
name = hr00;
})
);
},
{
closed = 1;
nodes = (
(1112,-597,o),
(1188,-459,o),
(1214,-301,cs),
(1507,1453,l),
(1287,1453,l),
(980,-389,l),
(929,-400,l),
(636,-90,l),
(487,-225,l),
(586,-332,ls),
(741,-498,o),
(825,-597,o),
(943,-597,cs)
);
},
{
closed = 1;
nodes = (
(704,1777,o),
(763,1828,o),
(777,1912,cs),
(783,1946,o),
(788,1971,o),
(788,1994,cs),
(788,2053,o),
(746,2106,o),
(625,2106,cs),
(513,2106,o),
(453,2056,o),
(439,1971,cs),
(434,1937,o),
(428,1912,o),
(428,1890,cs),
(428,1830,o),
(470,1777,o),
(591,1777,cs)
);
},
{
closed = 1;
nodes = (
(1571,1777,o),
(1630,1828,o),
(1645,1912,cs),
(1650,1946,o),
(1656,1971,o),
(1656,1994,cs),
(1656,2053,o),
(1614,2106,o),
(1492,2106,cs),
(1380,2106,o),
(1321,2056,o),
(1307,1971,cs),
(1301,1937,o),
(1295,1912,o),
(1295,1890,cs),
(1295,1830,o),
(1338,1777,o),
(1459,1777,cs)
);
}
);
width = 1690;
},
{
layerId = "B042A474-670A-4404-9662-903C467C1F9E";
shapes = (
{
closed = 1;
nodes = (
(310,0,l),
(552,1453,l),
(493,1453,l),
(251,0,l,{
name = hr00;
})
);
},
{
closed = 1;
nodes = (
(1087,-597,o),
(1104,-566,o),
(1115,-501,cs),
(1439,1453,l),
(1380,1453,l),
(1050,-535,l),
(1033,-541,l),
(586,-144,l),
(549,-183,l),
(955,-549,ls),
(991,-580,o),
(1014,-597,o),
(1042,-597,cs)
);
},
{
closed = 1;
nodes = (
(659,1946,o),
(684,1968,o),
(693,2008,cs),
(696,2025,o),
(698,2036,o),
(698,2047,cs),
(698,2073,o),
(681,2098,o),
(625,2098,cs),
(574,2098,o),
(549,2075,o),
(541,2036,cs),
(538,2019,o),
(535,2008,o),
(535,1997,cs),
(535,1971,o),
(552,1946,o),
(608,1946,cs)
);
},
{
closed = 1;
nodes = (
(1546,1946,o),
(1571,1968,o),
(1580,2008,cs),
(1583,2025,o),
(1585,2036,o),
(1585,2047,cs),
(1585,2073,o),
(1569,2098,o),
(1512,2098,cs),
(1462,2098,o),
(1436,2075,o),
(1428,2036,cs),
(1425,2019,o),
(1422,2008,o),
(1422,1997,cs),
(1422,1971,o),
(1439,1946,o),
(1495,1946,cs)
);
}
);
width = 1690;
}
);
unicode = 307;
},
{
glyphname = iogonek;
lastChange = "2022-01-21 13:11:03 +0000";
layers = (
{
layerId = "586BE664-8D6A-4867-BE1B-390608DE01EA";
shapes = (
{
closed = 1;
nodes = (
(1107,-597,o),
(1217,-535,o),
(1287,-445,c),
(1135,-318,l),
(1095,-377,o),
(1042,-394,o),
(986,-394,cs),
(918,-394,o),
(881,-360,o),
(881,-307,cs),
(881,-200,o),
(972,-118,o),
(1138,56,cs),
(1552,487,l),
(1326,687,l),
(932,284,l),
(884,298,l,{
name = hr01;
}),
(1101,1453,l),
(245,1453,l),
(191,1132,l),
(631,1132,l),
(518,529,ls),
(496,414,o),
(490,366,o),
(490,304,cs),
(490,99,o),
(608,-34,o),
(839,-34,cs),
(862,-34,o),
(865,-34,o),
(887,-31,c),
(893,-42,l),
(729,-121,o),
(603,-211,o),
(603,-358,cs,{
name = hr02;
}),
(603,-513,o),
(746,-597,o),
(946,-597,cs)
);
},
{
closed = 1;
nodes = (
(1135,1645,o),
(1202,1721,o),
(1219,1830,cs),
(1233,1915,o),
(1233,1923,o),
(1233,1943,cs,{
name = hr03;
}),
(1233,2042,o),
(1169,2115,o),
(1002,2115,cs),
(822,2115,o),
(752,2039,o),
(735,1926,cs),
(724,1847,o),
(724,1836,o),
(724,1819,cs),
(724,1718,o),
(788,1645,o),
(952,1645,cs)
);
}
);
width = 1690;
},
{
layerId = "9AAD14F8-FE06-4230-ACE0-3E9D6F8A5A9E";
shapes = (
{
closed = 1;
nodes = (
(876,-583,o),
(969,-532,o),
(1019,-479,c),
(912,-358,l),
(859,-406,o),
(803,-431,o),
(755,-431,cs),
(704,-431,o),
(659,-406,o),
(659,-344,cs),
(659,-276,o),
(710,-191,o),
(997,59,cs),
(1518,515,l),
(1385,639,l),
(831,161,l),
(766,186,l,{
name = hr01;
}),
(1011,1453,l),
(262,1453,l),
(231,1264,l),
(755,1264,l),
(563,273,ls),
(558,239,o),
(549,197,o),
(549,161,cs),
(549,68,o),
(603,-28,o),
(712,-28,cs),
(727,-28,o),
(741,-28,o),
(755,-28,c),
(758,-42,l),
(589,-132,o),
(467,-228,o),
(467,-372,cs,{
name = hr02;
}),
(467,-524,o),
(600,-583,o),
(743,-583,cs)
);
},
{
closed = 1;
nodes = (
(1070,1777,o),
(1129,1828,o),
(1143,1912,cs),
(1149,1946,o),
(1155,1971,o),
(1155,1994,cs),
(1155,2053,o),
(1112,2106,o),
(991,2106,cs),
(879,2106,o),
(819,2056,o),
(805,1971,cs),
(800,1937,o),
(794,1912,o),
(794,1890,cs),
(794,1830,o),
(836,1777,o),
(957,1777,cs)
);
}
);
width = 1690;
},
{
layerId = "B042A474-670A-4404-9662-903C467C1F9E";
shapes = (
{
closed = 1;
nodes = (
(597,-569,o),
(676,-529,o),
(718,-479,c),
(681,-448,l),
(648,-482,o),
(591,-518,o),
(501,-518,cs),
(420,-518,o),
(352,-470,o),
(352,-377,cs),
(352,-228,o),
(465,-158,o),
(721,14,cs),
(1428,490,l),
(1397,532,l),
(650,28,l),
(636,37,l),
(912,1453,l),
(265,1453,l),
(256,1400,l),
(842,1400,l),
(594,118,ls),
(577,37,o),
(577,25,o),
(577,11,cs),
(577,0,o),
(583,-11,o),
(591,-17,cs),
(594,-20,o),
(600,-23,o),
(608,-23,c),
(611,-23,l),
(363,-161,o),
(293,-262,o),
(293,-377,cs),
(293,-507,o),
(386,-569,o),
(501,-569,cs,{
name = hr00;
})
);
},
{
closed = 1;
nodes = (
(1036,1946,o),
(1062,1968,o),
(1070,2008,cs),
(1073,2025,o),
(1076,2036,o),
(1076,2047,cs),
(1076,2073,o),
(1059,2098,o),
(1002,2098,cs),
(952,2098,o),
(926,2075,o),
(918,2036,cs),
(915,2019,o),
(912,2008,o),
(912,1997,cs),
(912,1971,o),
(929,1946,o),
(986,1946,cs)
);
}
);
width = 1690;
}
);
unicode = 303;
},
{
glyphname = j;
lastChange = "2022-01-21 13:11:03 +0000";
layers = (
{
layerId = "586BE664-8D6A-4867-BE1B-390608DE01EA";
shapes = (
{
closed = 1;
nodes = (
(879,-597,o),
(1028,-456,o),
(1087,-104,cs),
(1346,1453,l),
(403,1453,l),
(349,1132,l),
(881,1132,l),
(648,-270,l),
(611,-284,l),
(293,152,l),
(11,-42,l),
(101,-183,ls),
(273,-451,o),
(386,-597,o),
(608,-597,cs,{
name = hr00;
})
);
},
{
closed = 1;
nodes = (
(1357,1645,o),
(1433,1712,o),
(1453,1830,cs),
(1464,1898,o),
(1467,1923,o),
(1467,1943,cs),
(1467,2042,o),
(1405,2115,o),
(1236,2115,cs),
(1067,2115,o),
(991,2047,o),
(972,1929,cs),
(960,1861,o),
(957,1836,o),
(957,1816,cs),
(957,1718,o),
(1019,1645,o),
(1188,1645,cs)
);
}
);
width = 1690;
},
{
layerId = "9AAD14F8-FE06-4230-ACE0-3E9D6F8A5A9E";
shapes = (
{
closed = 1;
nodes = (
(941,-597,o),
(1017,-456,o),
(1042,-301,cs),
(1335,1453,l),
(515,1453,l),
(484,1264,l),
(1084,1264,l),
(808,-389,l),
(758,-400,l),
(313,73,l),
(163,-62,l),
(346,-262,ls),
(589,-527,o),
(659,-597,o),
(774,-597,cs,{
name = hr00;
})
);
},
{
closed = 1;
nodes = (
(1400,1777,o),
(1459,1828,o),
(1473,1912,cs),
(1478,1946,o),
(1484,1971,o),
(1484,1994,cs),
(1484,2053,o),
(1442,2106,o),
(1321,2106,cs),
(1208,2106,o),
(1149,2056,o),
(1135,1971,cs),
(1129,1937,o),
(1124,1912,o),
(1124,1890,cs),
(1124,1830,o),
(1166,1777,o),
(1287,1777,cs)
);
}
);
width = 1690;
},
{
layerId = "B042A474-670A-4404-9662-903C467C1F9E";
shapes = (
{
closed = 1;
nodes = (
(972,-597,o),
(988,-566,o),
(1000,-501,cs),
(1324,1453,l),
(391,1453,l),
(383,1400,l),
(1256,1400,l),
(935,-535,l),
(918,-541,l),
(349,-34,l),
(310,-73,l),
(839,-549,ls),
(876,-580,o),
(898,-597,o),
(926,-597,cs,{
name = hr00;
})
);
},
{
closed = 1;
nodes = (
(1422,1946,o),
(1447,1968,o),
(1456,2008,cs),
(1459,2025,o),
(1462,2036,o),
(1462,2047,cs),
(1462,2073,o),
(1445,2098,o),
(1388,2098,cs),
(1338,2098,o),
(1312,2075,o),
(1304,2036,cs),
(1301,2019,o),
(1298,2008,o),
(1298,1997,cs),
(1298,1971,o),
(1315,1946,o),
(1371,1946,cs)
);
}
);
width = 1690;
}
);
unicode = 106;
},
{
glyphname = dotlessj;
lastChange = "2022-01-21 13:11:03 +0000";
layers = (
{
anchors = (
{
name = top;
pos = (1140,1453);
}
);
layerId = "586BE664-8D6A-4867-BE1B-390608DE01EA";
shapes = (
{
closed = 1;
nodes = (
(879,-597,o),
(1028,-456,o),
(1087,-104,cs),
(1346,1453,l),
(403,1453,l),
(349,1132,l),
(881,1132,l),
(648,-270,l),
(611,-284,l),
(293,152,l),
(11,-42,l),
(101,-183,ls),
(273,-451,o),
(386,-597,o),
(608,-597,cs,{
name = hr00;
})
);
}
);
width = 1690;
},
{
anchors = (
{
name = top;
pos = (1225,1453);
}
);
layerId = "9AAD14F8-FE06-4230-ACE0-3E9D6F8A5A9E";
shapes = (
{
closed = 1;
nodes = (
(941,-597,o),
(1017,-456,o),
(1042,-301,cs),
(1335,1453,l),
(515,1453,l),
(484,1264,l),
(1084,1264,l),
(808,-389,l),
(758,-400,l),
(313,73,l),
(163,-62,l),
(346,-262,ls),
(589,-527,o),
(659,-597,o),
(774,-597,cs,{
name = hr00;
})
);
}
);
width = 1690;
},
{
anchors = (
{
name = top;
pos = (1295,1453);
}
);
layerId = "B042A474-670A-4404-9662-903C467C1F9E";
shapes = (
{
closed = 1;
nodes = (
(972,-597,o),
(988,-566,o),
(1000,-501,cs),
(1324,1453,l),
(391,1453,l),
(383,1400,l),
(1256,1400,l),
(935,-535,l),
(918,-541,l),
(349,-34,l),
(310,-73,l),
(839,-549,ls),
(876,-580,o),
(898,-597,o),
(926,-597,cs,{
name = hr00;
})
);
}
);
width = 1690;
}
);
unicode = 567;
},
{
glyphname = k;
lastChange = "2022-01-21 13:11:03 +0000";
layers = (
{
anchors = (
{
name = bottom;
pos = (698,0);
}
);
layerId = "586BE664-8D6A-4867-BE1B-390608DE01EA";
shapes = (
{
closed = 1;
nodes = (
(479,0,l),
(605,758,ls),
(628,893,o),
(679,974,o),
(735,1045,cs),
(819,1152,o),
(890,1180,o),
(960,1180,cs),
(1081,1180,o),
(1149,1112,o),
(1149,1017,cs),
(1149,836,o),
(969,738,o),
(634,639,c),
(774,253,ls),
(839,73,o),
(932,-34,o),
(1110,-34,cs,{
name = hr01;
}),
(1259,-34,o),
(1383,39,o),
(1504,169,cs),
(1650,327,l),
(1453,521,l),
(1222,296,l),
(1180,304,l),
(1062,614,l),
(1385,712,o),
(1560,876,o),
(1560,1143,cs),
(1560,1335,o),
(1422,1487,o),
(1183,1487,cs),
(935,1487,o),
(780,1324,o),
(681,1107,c),
(665,1107,l),
(825,2084,l,{
name = hr02;
}),
(414,2084,l),
(68,0,l)
);
}
);
width = 1690;
},
{
anchors = (
{
name = bottom;
pos = (707,0);
}
);
layerId = "9AAD14F8-FE06-4230-ACE0-3E9D6F8A5A9E";
shapes = (
{
closed = 1;
nodes = (
(386,0,l),
(521,803,ls),
(541,924,o),
(600,1031,o),
(681,1132,cs),
(760,1228,o),
(856,1298,o),
(1000,1298,cs),
(1152,1298,o),
(1236,1219,o),
(1236,1087,cs),
(1236,915,o),
(1093,755,o),
(622,639,c),
(850,144,ls),
(910,14,o),
(972,-34,o),
(1067,-34,cs,{
name = hr01;
}),
(1174,-34,o),
(1259,28,o),
(1405,175,cs),
(1605,375,l),
(1484,501,l),
(1110,158,l),
(1073,163,l),
(873,600,l),
(1366,721,o),
(1462,955,o),
(1462,1129,cs),
(1462,1346,o),
(1312,1487,o),
(1081,1487,cs),
(839,1487,o),
(687,1332,o),
(583,1110,c),
(572,1110,l),
(735,2084,l,{
name = hr02;
}),
(515,2084,l),
(166,0,l)
);
}
);
width = 1690;
},
{
anchors = (
{
name = bottom;
pos = (656,0);
}
);
layerId = "B042A474-670A-4404-9662-903C467C1F9E";
shapes = (
{
closed = 1;
nodes = (
(282,0,l),
(428,879,ls),
(456,1039,o),
(538,1197,o),
(667,1307,cs),
(769,1394,o),
(898,1433,o),
(1036,1433,cs),
(1273,1433,o),
(1363,1321,o),
(1363,1157,cs),
(1363,957,o),
(1208,780,o),
(650,650,c),
(1000,37,ls),
(1028,-11,o),
(1042,-34,o),
(1076,-34,cs,{
name = hr01;
}),
(1112,-34,o),
(1135,-8,o),
(1222,73,cs),
(1616,445,l),
(1583,482,l),
(1087,25,l),
(1073,25,l),
(729,625,l),
(1295,755,o),
(1425,969,o),
(1425,1157,cs),
(1425,1346,o),
(1307,1487,o),
(1039,1487,cs),
(819,1487,o),
(614,1391,o),
(479,1132,c),
(470,1132,l),
(628,2084,l,{
name = hr02;
}),
(569,2084,l),
(222,0,l)
);
}
);
width = 1690;
}
);
unicode = 107;
},
{
glyphname = kgreenlandic;
lastChange = "2022-01-21 13:11:03 +0000";
layers = (
{
layerId = "586BE664-8D6A-4867-BE1B-390608DE01EA";
shapes = (
{
closed = 1;
nodes = (
(1518,0,l),
(1056,848,l),
(1704,1453,l),
(1231,1453,l),
(873,1118,l),
(642,887,l),
(620,887,l),
(712,1453,l),
(304,1453,l),
(62,0,l),
(470,0,l),
(543,442,l),
(738,617,l),
(1053,0,l,{
name = hr00;
})
);
}
);
width = 1690;
},
{
layerId = "9AAD14F8-FE06-4230-ACE0-3E9D6F8A5A9E";
shapes = (
{
closed = 1;
nodes = (
(1512,0,l),
(1008,865,l),
(1664,1453,l),
(1380,1453,l),
(859,988,l),
(552,715,l),
(538,715,l),
(659,1453,l),
(439,1453,l),
(200,0,l),
(420,0,l),
(496,442,l),
(834,729,l),
(1259,0,l,{
name = hr00;
})
);
}
);
width = 1690;
},
{
layerId = "B042A474-670A-4404-9662-903C467C1F9E";
shapes = (
{
closed = 1;
nodes = (
(1459,0,l),
(862,859,l),
(1622,1453,l),
(1535,1453,l),
(819,893,l),
(436,591,l),
(428,591,l),
(572,1453,l),
(513,1453,l),
(270,0,l),
(329,0,l),
(414,510,l),
(817,822,l),
(1388,0,l,{
name = hr00;
})
);
}
);
width = 1690;
}
);
unicode = 312;
},
{
glyphname = l;
lastChange = "2022-01-21 13:11:03 +0000";
layers = (
{
anchors = (
{
name = bottom;
pos = (760,0);
},
{
name = top;
pos = (918,1966);
},
{
name = topright;
pos = (1324,2084);
}
);
layerId = "586BE664-8D6A-4867-BE1B-390608DE01EA";
shapes = (
{
closed = 1;
nodes = (
(955,-34,o),
(1112,76,o),
(1301,290,cs),
(1473,487,l),
(1247,687,l),
(853,284,l),
(811,298,l),
(1140,2084,l),
(298,2084,l),
(245,1763,l),
(673,1763,l),
(445,529,ls),
(422,414,o),
(417,366,o),
(417,304,cs),
(417,99,o),
(529,-34,o),
(760,-34,cs,{
name = hr00;
})
);
}
);
width = 1690;
},
{
anchors = (
{
name = bottom;
pos = (698,0);
},
{
name = top;
pos = (935,1966);
},
{
name = topright;
pos = (1312,2084);
}
);
layerId = "9AAD14F8-FE06-4230-ACE0-3E9D6F8A5A9E";
shapes = (
{
closed = 1;
nodes = (
(814,-34,o),
(915,14,o),
(1188,262,cs),
(1481,527,l),
(1354,650,l),
(777,161,l),
(707,183,l),
(1073,2084,l),
(332,2084,l),
(301,1895,l),
(814,1895,l),
(498,256,ls),
(493,231,o),
(490,191,o),
(490,166,cs),
(490,51,o),
(549,-34,o),
(701,-34,cs,{
name = hr00;
})
);
}
);
width = 1690;
},
{
anchors = (
{
name = bottom;
pos = (608,0);
},
{
name = top;
pos = (955,1966);
},
{
name = topright;
pos = (1301,2084);
}
);
layerId = "B042A474-670A-4404-9662-903C467C1F9E";
shapes = (
{
closed = 1;
nodes = (
(636,-34,o),
(670,-8,o),
(718,25,cs),
(1402,490,l),
(1371,532,l),
(625,28,l),
(611,37,l),
(1008,2084,l),
(360,2084,l),
(352,2030,l),
(938,2030,l),
(566,118,ls),
(555,59,o),
(552,31,o),
(552,20,cs),
(552,-11,o),
(569,-34,o),
(603,-34,cs,{
name = hr00;
})
);
}
);
width = 1690;
}
);
unicode = 108;
},
{
glyphname = lslash;
lastChange = "2022-01-21 13:11:03 +0000";
layers = (
{
layerId = "586BE664-8D6A-4867-BE1B-390608DE01EA";
shapes = (
{
closed = 1;
nodes = (
(955,-34,o),
(1112,76,o),
(1301,290,cs),
(1473,487,l),
(1247,687,l),
(853,284,l),
(811,298,l),
(926,921,l),
(1346,1048,l),
(1397,1349,l),
(983,1225,l),
(1140,2084,l),
(298,2084,l),
(245,1763,l),
(673,1763,l),
(552,1101,l),
(194,994,l),
(144,693,l),
(496,800,l),
(445,529,ls),
(422,414,o),
(417,366,o),
(417,304,cs),
(417,99,o),
(529,-34,o),
(760,-34,cs,{
name = hr00;
})
);
}
);
width = 1690;
},
{
layerId = "9AAD14F8-FE06-4230-ACE0-3E9D6F8A5A9E";
shapes = (
{
closed = 1;
nodes = (
(814,-34,o),
(915,14,o),
(1188,262,cs),
(1481,527,l),
(1354,650,l),
(777,161,l),
(707,183,l),
(842,879,l),
(1284,1014,l),
(1315,1208,l),
(879,1076,l),
(1073,2084,l),
(332,2084,l),
(301,1895,l),
(814,1895,l),
(642,1005,l),
(200,870,l),
(166,676,l),
(605,808,l),
(498,256,ls),
(493,231,o),
(490,191,o),
(490,166,cs),
(490,51,o),
(549,-34,o),
(701,-34,cs,{
name = hr00;
})
);
}
);
width = 1690;
},
{
layerId = "B042A474-670A-4404-9662-903C467C1F9E";
shapes = (
{
closed = 1;
nodes = (
(636,-34,o),
(670,-8,o),
(718,25,cs),
(1402,490,l),
(1371,532,l),
(625,28,l),
(611,37,l),
(783,921,l),
(1284,1076,l),
(1293,1132,l),
(794,980,l),
(1008,2084,l),
(360,2084,l),
(352,2030,l),
(938,2030,l),
(729,963,l),
(256,817,l),
(248,760,l),
(718,904,l),
(566,118,ls),
(555,59,o),
(552,31,o),
(552,20,cs),
(552,-11,o),
(569,-34,o),
(603,-34,cs,{
name = hr00;
})
);
}
);
width = 1690;
}
);
unicode = 322;
},
{
glyphname = m;
lastChange = "2022-01-21 13:11:03 +0000";
layers = (
{
anchors = (
{
name = bottom;
pos = (724,0);
},
{
name = top;
pos = (1000,1453);
}
);
layerId = "586BE664-8D6A-4867-BE1B-390608DE01EA";
shapes = (
{
closed = 1;
nodes = (
(451,912,ls),
(459,963,o),
(479,1031,o),
(518,1095,cs),
(563,1169,o),
(605,1186,o),
(648,1186,cs),
(701,1186,o),
(729,1149,o),
(729,1079,cs),
(729,1039,o),
(724,994,o),
(718,960,cs),
(558,0,l),
(890,0,l),
(1036,879,ls),
(1053,980,o),
(1073,1039,o),
(1107,1095,cs),
(1149,1166,o),
(1191,1186,o),
(1239,1186,cs),
(1290,1186,o),
(1321,1143,o),
(1321,1076,cs),
(1321,1039,o),
(1315,994,o),
(1309,960,cs),
(1149,0,l),
(1481,0,l),
(1647,1002,ls),
(1659,1070,o),
(1667,1152,o),
(1667,1217,cs),
(1667,1394,o),
(1585,1487,o),
(1419,1487,cs),
(1242,1487,o),
(1140,1363,o),
(1070,1200,c),
(1056,1200,l),
(1076,1391,o),
(986,1487,o),
(836,1487,cs),
(684,1487,o),
(580,1369,o),
(515,1200,c),
(498,1200,l),
(541,1453,l,{
name = hr01;
}),
(208,1453,l),
(-34,0,l),
(298,0,l)
);
}
);
width = 1690;
},
{
anchors = (
{
name = bottom;
pos = (724,0);
},
{
name = top;
pos = (991,1453);
}
);
layerId = "9AAD14F8-FE06-4230-ACE0-3E9D6F8A5A9E";
shapes = (
{
closed = 1;
nodes = (
(394,941,ls),
(408,1025,o),
(442,1118,o),
(496,1194,cs),
(541,1259,o),
(605,1307,o),
(684,1307,cs),
(763,1307,o),
(803,1259,o),
(803,1140,cs),
(803,1095,o),
(797,1042,o),
(786,974,cs),
(622,0,l),
(825,0,l),
(983,941,ls),
(997,1025,o),
(1031,1121,o),
(1084,1194,cs),
(1132,1259,o),
(1188,1307,o),
(1267,1307,cs),
(1352,1307,o),
(1391,1253,o),
(1391,1149,cs),
(1391,1110,o),
(1383,1042,o),
(1371,974,cs),
(1208,0,l),
(1411,0,l),
(1580,1011,ls),
(1591,1079,o),
(1599,1155,o),
(1599,1208,cs),
(1599,1385,o),
(1512,1487,o),
(1352,1487,cs),
(1183,1487,o),
(1073,1377,o),
(1000,1211,c),
(991,1211,l),
(1002,1369,o),
(932,1487,o),
(769,1487,cs),
(608,1487,o),
(521,1371,o),
(453,1225,c),
(442,1225,l),
(479,1453,l,{
name = hr01;
}),
(276,1453,l),
(34,0,l),
(237,0,l)
);
}
);
width = 1690;
},
{
anchors = (
{
name = bottom;
pos = (758,0);
},
{
name = top;
pos = (1011,1453);
}
);
layerId = "B042A474-670A-4404-9662-903C467C1F9E";
shapes = (
{
closed = 1;
nodes = (
(346,1014,ls),
(369,1143,o),
(434,1242,o),
(490,1312,cs),
(549,1385,o),
(622,1433,o),
(729,1433,cs),
(853,1433,o),
(926,1366,o),
(926,1233,cs),
(926,1191,o),
(918,1138,o),
(910,1081,cs),
(729,0,l),
(788,0,l),
(960,1031,ls),
(980,1143,o),
(1033,1242,o),
(1090,1307,cs),
(1169,1397,o),
(1242,1433,o),
(1335,1433,cs),
(1467,1433,o),
(1535,1346,o),
(1535,1214,cs),
(1535,1177,o),
(1529,1129,o),
(1521,1081,cs),
(1340,0,l),
(1400,0,l),
(1583,1098,ls),
(1588,1138,o),
(1594,1180,o),
(1594,1214,cs),
(1594,1371,o),
(1501,1487,o),
(1343,1487,cs),
(1177,1487,o),
(1053,1363,o),
(986,1219,c),
(977,1219,l),
(988,1388,o),
(898,1487,o),
(738,1487,cs),
(563,1487,o),
(453,1354,o),
(391,1233,c),
(383,1233,l),
(420,1453,l,{
name = hr01;
}),
(360,1453,l),
(118,0,l),
(177,0,l)
);
}
);
width = 1690;
}
);
unicode = 109;
},
{
glyphname = n;
lastChange = "2022-01-21 13:11:03 +0000";
layers = (
{
anchors = (
{
name = bottom;
pos = (735,0);
},
{
name = top;
pos = (935,1453);
}
);
layerId = "586BE664-8D6A-4867-BE1B-390608DE01EA";
shapes = (
{
closed = 1;
nodes = (
(608,758,ls),
(628,876,o),
(698,983,o),
(741,1039,cs),
(805,1124,o),
(873,1171,o),
(969,1171,cs),
(1095,1171,o),
(1138,1076,o),
(1138,1000,cs),
(1138,929,o),
(1126,876,o),
(1118,825,cs),
(980,0,l),
(1391,0,l),
(1521,774,ls),
(1543,910,o),
(1552,986,o),
(1552,1067,cs),
(1552,1293,o),
(1439,1487,o),
(1155,1487,cs),
(924,1487,o),
(791,1343,o),
(681,1107,c),
(667,1107,l),
(724,1453,l,{
name = hr01;
}),
(313,1453,l),
(70,0,l),
(482,0,l)
);
}
);
width = 1690;
},
{
anchors = (
{
name = bottom;
pos = (712,0);
},
{
name = top;
pos = (949,1453);
}
);
layerId = "9AAD14F8-FE06-4230-ACE0-3E9D6F8A5A9E";
shapes = (
{
closed = 1;
nodes = (
(521,803,ls),
(549,969,o),
(656,1098,o),
(687,1135,cs),
(769,1231,o),
(867,1293,o),
(994,1293,cs),
(1157,1293,o),
(1236,1186,o),
(1236,1014,cs),
(1236,983,o),
(1233,926,o),
(1222,859,cs),
(1079,0,l),
(1298,0,l),
(1445,879,ls),
(1456,943,o),
(1462,1011,o),
(1462,1067,cs),
(1462,1332,o),
(1309,1487,o),
(1067,1487,cs),
(834,1487,o),
(690,1340,o),
(583,1110,c),
(572,1110,l),
(628,1453,l,{
name = hr01;
}),
(408,1453,l),
(166,0,l),
(386,0,l)
);
}
);
width = 1690;
},
{
anchors = (
{
name = bottom;
pos = (738,0);
},
{
name = top;
pos = (983,1453);
}
);
layerId = "B042A474-670A-4404-9662-903C467C1F9E";
shapes = (
{
closed = 1;
nodes = (
(453,879,ls),
(482,1042,o),
(569,1177,o),
(628,1250,cs),
(735,1385,o),
(873,1433,o),
(1005,1433,cs),
(1225,1433,o),
(1343,1318,o),
(1343,1087,cs),
(1343,1033,o),
(1338,974,o),
(1329,926,cs),
(1174,0,l),
(1233,0,l),
(1388,929,ls),
(1397,983,o),
(1402,1036,o),
(1402,1090,cs),
(1402,1340,o),
(1264,1487,o),
(1014,1487,cs),
(766,1487,o),
(614,1352,o),
(504,1132,c),
(496,1132,l),
(549,1453,l,{
name = hr01;
}),
(490,1453,l),
(248,0,l),
(307,0,l)
);
}
);
width = 1690;
}
);
unicode = 110;
},
{
glyphname = napostrophe;
lastChange = "2022-01-21 13:11:03 +0000";
layers = (
{
layerId = "586BE664-8D6A-4867-BE1B-390608DE01EA";
shapes = (
{
closed = 1;
nodes = (
(620,0,l),
(755,805,ls),
(774,924,o),
(839,1025,o),
(881,1070,c),
(941,1140,o),
(994,1169,o),
(1076,1169,cs),
(1183,1169,o),
(1217,1084,o),
(1217,1017,cs),
(1217,946,o),
(1211,893,o),
(1200,825,cs),
(1062,0,l),
(1456,0,l),
(1588,791,ls),
(1611,926,o),
(1616,1008,o),
(1616,1093,cs),
(1616,1304,o),
(1515,1487,o),
(1256,1487,cs),
(1042,1487,o),
(924,1357,o),
(825,1149,c),
(811,1149,l),
(862,1453,l,{
name = hr01;
}),
(467,1453,l),
(225,0,l)
);
},
{
closed = 1;
nodes = (
(366,1492,l),
(625,2084,l),
(262,2084,l),
(161,1492,l)
);
}
);
width = 1690;
},
{
layerId = "9AAD14F8-FE06-4230-ACE0-3E9D6F8A5A9E";
shapes = (
{
closed = 1;
nodes = (
(386,0,l),
(518,803,ls),
(546,969,o),
(653,1098,o),
(684,1135,cs),
(766,1231,o),
(865,1293,o),
(991,1293,cs),
(1155,1293,o),
(1236,1186,o),
(1236,1014,cs),
(1236,983,o),
(1233,932,o),
(1222,867,cs),
(1079,0,l),
(1298,0,l),
(1445,887,ls),
(1456,963,o),
(1462,1017,o),
(1462,1067,cs),
(1462,1332,o),
(1307,1487,o),
(1064,1487,cs),
(831,1487,o),
(687,1340,o),
(580,1110,c),
(569,1110,l),
(625,1453,l,{
name = hr01;
}),
(406,1453,l),
(166,0,l)
);
},
{
closed = 1;
nodes = (
(293,1566,l),
(524,2084,l),
(268,2084,l),
(146,1566,l)
);
}
);
width = 1690;
},
{
layerId = "B042A474-670A-4404-9662-903C467C1F9E";
shapes = (
{
closed = 1;
nodes = (
(307,0,l),
(453,879,ls),
(482,1042,o),
(569,1177,o),
(628,1250,cs),
(735,1385,o),
(873,1433,o),
(1005,1433,cs),
(1225,1433,o),
(1343,1318,o),
(1343,1087,cs),
(1343,1033,o),
(1338,974,o),
(1329,926,cs),
(1174,0,l),
(1233,0,l),
(1388,929,ls),
(1397,983,o),
(1402,1036,o),
(1402,1090,cs),
(1402,1340,o),
(1264,1487,o),
(1014,1487,cs),
(766,1487,o),
(614,1352,o),
(504,1132,c),
(496,1132,l),
(549,1453,l,{
name = hr01;
}),
(490,1453,l),
(248,0,l)
);
},
{
closed = 1;
nodes = (
(169,1380,l),
(504,2084,l),
(386,2084,l),
(118,1380,l)
);
}
);
width = 1690;
}
);
unicode = 329;
},
{
glyphname = eng;
lastChange = "2022-01-21 13:11:03 +0000";
layers = (
{
layerId = "586BE664-8D6A-4867-BE1B-390608DE01EA";
shapes = (
{
closed = 1;
nodes = (
(1166,-597,o),
(1321,-428,o),
(1374,-104,c),
(1521,774,ls),
(1543,910,o),
(1552,986,o),
(1552,1067,cs),
(1552,1293,o),
(1439,1487,o),
(1155,1487,cs),
(924,1487,o),
(791,1343,o),
(681,1107,c),
(667,1107,l),
(724,1453,l,{
name = hr01;
}),
(313,1453,l),
(70,0,l),
(482,0,l),
(608,758,ls),
(628,876,o),
(698,983,o),
(741,1039,cs),
(805,1124,o),
(873,1171,o),
(969,1171,cs,{
name = hr02;
}),
(1095,1171,o),
(1138,1076,o),
(1138,1000,cs),
(1138,929,o),
(1126,876,o),
(1118,825,cs),
(935,-270,l),
(898,-284,l),
(698,-56,l),
(436,-251,l),
(487,-324,ls),
(586,-467,o),
(707,-597,o),
(895,-597,cs)
);
}
);
width = 1690;
},
{
layerId = "9AAD14F8-FE06-4230-ACE0-3E9D6F8A5A9E";
shapes = (
{
closed = 1;
nodes = (
(1146,-597,o),
(1222,-459,o),
(1247,-301,cs),
(1445,879,ls),
(1456,943,o),
(1462,1011,o),
(1462,1067,cs),
(1462,1332,o),
(1309,1487,o),
(1067,1487,cs),
(834,1487,o),
(690,1340,o),
(583,1110,c),
(572,1110,l),
(628,1453,l,{
name = hr01;
}),
(408,1453,l),
(166,0,l),
(386,0,l),
(521,803,ls),
(549,969,o),
(656,1098,o),
(687,1135,cs),
(769,1231,o),
(867,1293,o),
(994,1293,cs,{
name = hr02;
}),
(1157,1293,o),
(1236,1186,o),
(1236,1014,cs),
(1236,983,o),
(1233,926,o),
(1222,859,cs),
(1014,-389,l),
(963,-400,l),
(670,-90,l),
(521,-225,l),
(620,-332,ls),
(774,-498,o),
(859,-597,o),
(977,-597,cs)
);
}
);
width = 1690;
},
{
layerId = "B042A474-670A-4404-9662-903C467C1F9E";
shapes = (
{
closed = 1;
nodes = (
(1121,-597,o),
(1138,-566,o),
(1149,-501,cs),
(1388,929,ls),
(1397,983,o),
(1402,1036,o),
(1402,1090,cs),
(1402,1340,o),
(1264,1487,o),
(1014,1487,cs),
(766,1487,o),
(614,1352,o),
(504,1132,c),
(496,1132,l),
(549,1453,l,{
name = hr01;
}),
(490,1453,l),
(248,0,l),
(307,0,l),
(453,879,ls),
(482,1042,o),
(569,1177,o),
(628,1250,cs),
(735,1385,o),
(873,1433,o),
(1005,1433,cs,{
name = hr02;
}),
(1225,1433,o),
(1343,1318,o),
(1343,1087,cs),
(1343,1033,o),
(1338,974,o),
(1329,926,cs),
(1084,-535,l),
(1067,-541,l),
(603,-130,l),
(566,-169,l),
(988,-549,ls),
(1025,-583,o),
(1048,-597,o),
(1076,-597,cs)
);
}
);
width = 1690;
}
);
unicode = 331;
},
{
glyphname = o;
lastChange = "2022-01-21 13:11:03 +0000";
layers = (
{
anchors = (
{
name = bottom;
pos = (729,0);
},
{
name = top;
pos = (966,1453);
}
);
layerId = "586BE664-8D6A-4867-BE1B-390608DE01EA";
shapes = (
{
closed = 1;
nodes = (
(1233,-34,o),
(1569,307,o),
(1569,862,cs),
(1569,1245,o),
(1338,1487,o),
(943,1487,cs),
(456,1487,o),
(121,1146,o),
(121,591,cs),
(121,208,o),
(352,-34,o),
(746,-34,cs,{
name = hr00;
})
);
},
{
closed = 1;
nodes = (
(625,273,o),
(529,358,o),
(529,529,cs),
(529,563,o),
(538,611,o),
(543,645,cs),
(580,865,ls),
(614,1067,o),
(732,1180,o),
(912,1180,cs),
(1064,1180,o),
(1160,1095,o),
(1160,924,cs),
(1160,890,o),
(1152,842,o),
(1146,808,cs),
(1110,589,ls),
(1076,386,o),
(957,273,o),
(777,273,cs)
);
}
);
width = 1690;
},
{
anchors = (
{
name = bottom;
pos = (724,0);
},
{
name = top;
pos = (966,1453);
}
);
layerId = "9AAD14F8-FE06-4230-ACE0-3E9D6F8A5A9E";
shapes = (
{
closed = 1;
nodes = (
(1174,-34,o),
(1509,318,o),
(1509,873,cs),
(1509,1236,o),
(1318,1487,o),
(941,1487,cs),
(515,1487,o),
(180,1135,o),
(180,580,cs),
(180,217,o),
(375,-34,o),
(746,-34,cs,{
name = hr00;
})
);
},
{
closed = 1;
nodes = (
(541,158,o),
(403,270,o),
(403,515,cs),
(403,549,o),
(406,591,o),
(417,659,cs),
(445,828,ls),
(493,1115,o),
(659,1295,o),
(932,1295,cs),
(1149,1295,o),
(1287,1183,o),
(1287,938,cs),
(1287,904,o),
(1284,862,o),
(1273,794,cs),
(1245,625,ls),
(1197,338,o),
(1031,158,o),
(758,158,cs)
);
}
);
width = 1690;
},
{
anchors = (
{
name = bottom;
pos = (749,0);
},
{
name = top;
pos = (938,1453);
}
);
layerId = "B042A474-670A-4404-9662-903C467C1F9E";
shapes = (
{
closed = 1;
nodes = (
(1183,-34,o),
(1459,332,o),
(1459,943,cs),
(1459,1253,o),
(1276,1487,o),
(941,1487,cs),
(507,1487,o),
(231,1121,o),
(231,510,cs),
(231,200,o),
(414,-34,o),
(749,-34,cs,{
name = hr00;
})
);
},
{
closed = 1;
nodes = (
(425,20,o),
(287,242,o),
(287,515,cs),
(287,586,o),
(290,614,o),
(298,667,cs),
(321,805,ls),
(386,1197,o),
(600,1433,o),
(935,1433,cs),
(1264,1433,o),
(1402,1211,o),
(1402,938,cs),
(1402,867,o),
(1400,839,o),
(1391,786,cs),
(1369,648,ls),
(1304,256,o),
(1090,20,o),
(755,20,cs)
);
}
);
width = 1690;
}
);
unicode = 111;
},
{
glyphname = ohorn;
lastChange = "2022-01-21 13:11:03 +0000";
layers = (
{
anchors = (
{
name = bottom;
pos = (729,0);
},
{
name = top;
pos = (966,1453);
}
);
layerId = "586BE664-8D6A-4867-BE1B-390608DE01EA";
shapes = (
{
closed = 1;
nodes = (
(1233,-34,o),
(1569,307,o),
(1569,862,cs),
(1569,1017,o),
(1535,1124,o),
(1462,1219,c),
(1529,1225,l),
(1673,1247,o),
(1726,1335,o),
(1754,1487,cs,{
name = hr01;
}),
(1802,1777,l),
(1456,1777,l),
(1400,1453,l,{
name = hr02;
}),
(1177,1453,l),
(1107,1476,o),
(1028,1487,o),
(943,1487,cs,{
name = hr03;
}),
(456,1487,o),
(121,1146,o),
(121,591,cs),
(121,208,o),
(352,-34,o),
(746,-34,cs)
);
},
{
closed = 1;
nodes = (
(625,273,o),
(529,358,o),
(529,529,cs),
(529,563,o),
(538,611,o),
(543,645,cs),
(580,865,ls),
(614,1067,o),
(732,1180,o),
(912,1180,cs),
(1064,1180,o),
(1160,1095,o),
(1160,924,cs),
(1160,890,o),
(1152,842,o),
(1146,808,cs),
(1110,589,ls),
(1076,386,o),
(957,273,o),
(777,273,cs)
);
}
);
width = 1690;
},
{
anchors = (
{
name = bottom;
pos = (724,0);
},
{
name = top;
pos = (966,1453);
}
);
layerId = "9AAD14F8-FE06-4230-ACE0-3E9D6F8A5A9E";
shapes = (
{
closed = 1;
nodes = (
(1174,-34,o),
(1509,318,o),
(1509,873,cs),
(1509,1059,o),
(1462,1211,o),
(1357,1318,c,{
name = hr02;
}),
(1431,1318,ls),
(1569,1318,o),
(1619,1385,o),
(1636,1481,cs),
(1684,1766,l),
(1490,1766,l),
(1439,1453,l),
(1157,1453,l),
(1095,1476,o),
(1022,1487,o),
(941,1487,cs,{
name = hr01;
}),
(515,1487,o),
(180,1135,o),
(180,580,cs),
(180,217,o),
(375,-34,o),
(746,-34,cs)
);
},
{
closed = 1;
nodes = (
(541,158,o),
(403,270,o),
(403,515,cs),
(403,549,o),
(406,591,o),
(417,659,cs),
(445,828,ls),
(493,1115,o),
(659,1295,o),
(932,1295,cs,{
name = hr03;
}),
(1149,1295,o),
(1287,1183,o),
(1287,938,cs),
(1287,904,o),
(1284,862,o),
(1273,794,cs),
(1245,625,ls),
(1197,338,o),
(1031,158,o),
(758,158,cs)
);
}
);
width = 1690;
},
{
anchors = (
{
name = bottom;
pos = (749,0);
},
{
name = top;
pos = (938,1453);
}
);
layerId = "B042A474-670A-4404-9662-903C467C1F9E";
shapes = (
{
closed = 1;
nodes = (
(1183,-34,o),
(1459,332,o),
(1459,943,cs),
(1459,1140,o),
(1383,1307,o),
(1242,1402,c,{
name = hr02;
}),
(1436,1402,ls),
(1495,1402,o),
(1526,1428,o),
(1535,1484,cs),
(1580,1766,l),
(1521,1766,l),
(1470,1453,l),
(1143,1453,l),
(1084,1476,o),
(1017,1487,o),
(941,1487,cs,{
name = hr01;
}),
(507,1487,o),
(231,1121,o),
(231,510,cs),
(231,200,o),
(414,-34,o),
(749,-34,cs)
);
},
{
closed = 1;
nodes = (
(425,20,o),
(287,242,o),
(287,515,cs),
(287,586,o),
(290,614,o),
(298,667,cs),
(321,805,ls),
(386,1197,o),
(600,1433,o),
(935,1433,cs,{
name = hr03;
}),
(1264,1433,o),
(1402,1211,o),
(1402,938,cs),
(1402,867,o),
(1400,839,o),
(1391,786,cs),
(1369,648,ls),
(1304,256,o),
(1090,20,o),
(755,20,cs)
);
}
);
width = 1690;
}
);
unicode = 417;
},
{
glyphname = oslash;
lastChange = "2022-01-21 13:11:03 +0000";
layers = (
{
anchors = (
{
name = top;
pos = (845,1453);
}
);
layerId = "586BE664-8D6A-4867-BE1B-390608DE01EA";
shapes = (
{
closed = 1;
nodes = (
(369,68,l),
(470,0,o),
(597,-34,o),
(746,-34,cs),
(1233,-34,o),
(1569,307,o),
(1569,862,cs),
(1569,988,o),
(1543,1101,o),
(1495,1194,c),
(1740,1445,l),
(1549,1616,l),
(1321,1385,l),
(1219,1453,o),
(1093,1487,o),
(943,1487,cs),
(456,1487,o),
(121,1146,o),
(121,591,cs),
(121,465,o),
(146,352,o),
(194,259,c),
(-51,8,l),
(141,-163,l,{
name = hr00;
})
);
},
{
closed = 1;
nodes = (
(977,1180,o),
(1033,1163,o),
(1073,1135,c),
(532,574,l),
(532,577,o),
(535,589,o),
(535,600,cs),
(538,617,o),
(541,636,o),
(543,645,cs),
(580,865,ls),
(614,1067,o),
(732,1180,o),
(912,1180,cs)
);
},
{
closed = 1;
nodes = (
(712,273,o),
(656,290,o),
(617,318,c),
(1157,879,l),
(1157,876,o),
(1157,867,o),
(1155,859,cs),
(1152,842,o),
(1149,819,o),
(1146,808,cs),
(1110,589,ls),
(1076,386,o),
(960,273,o),
(777,273,cs)
);
}
);
width = 1690;
},
{
anchors = (
{
name = top;
pos = (966,1453);
}
);
layerId = "9AAD14F8-FE06-4230-ACE0-3E9D6F8A5A9E";
shapes = (
{
closed = 1;
nodes = (
(346,113,l),
(442,20,o),
(574,-34,o),
(746,-34,cs),
(1174,-34,o),
(1509,318,o),
(1509,873,cs),
(1509,1005,o),
(1481,1121,o),
(1433,1214,c),
(1667,1453,l),
(1546,1549,l),
(1343,1340,l),
(1247,1433,o),
(1115,1487,o),
(943,1487,cs),
(515,1487,o),
(180,1135,o),
(180,580,cs),
(180,448,o),
(208,332,o),
(256,239,c),
(23,0,l),
(144,-96,l,{
name = hr00;
})
);
},
{
closed = 1;
nodes = (
(1045,1295,o),
(1138,1264,o),
(1200,1200,c),
(417,394,l),
(406,431,o),
(403,470,o),
(403,515,cs),
(403,549,o),
(406,591,o),
(417,659,cs),
(445,828,ls),
(493,1115,o),
(659,1295,o),
(932,1295,cs)
);
},
{
closed = 1;
nodes = (
(645,158,o),
(552,189,o),
(490,253,c),
(1273,1059,l),
(1284,1022,o),
(1287,983,o),
(1287,938,cs),
(1287,904,o),
(1284,862,o),
(1273,794,cs),
(1245,625,ls),
(1197,338,o),
(1031,158,o),
(758,158,cs)
);
}
);
width = 1690;
},
{
anchors = (
{
name = top;
pos = (938,1453);
}
);
layerId = "B042A474-670A-4404-9662-903C467C1F9E";
shapes = (
{
closed = 1;
nodes = (
(341,152,l),
(428,39,o),
(563,-34,o),
(749,-34,cs),
(1183,-34,o),
(1459,332,o),
(1459,943,cs),
(1459,1064,o),
(1428,1171,o),
(1377,1259,c),
(1597,1492,l),
(1560,1526,l),
(1349,1301,l),
(1262,1414,o),
(1126,1487,o),
(941,1487,cs),
(507,1487,o),
(231,1121,o),
(231,510,cs),
(231,389,o),
(262,282,o),
(313,194,c),
(93,-39,l),
(130,-73,l,{
name = hr00;
})
);
},
{
closed = 1;
nodes = (
(1115,1433,o),
(1239,1369,o),
(1312,1262,c),
(349,234,l),
(307,315,o),
(287,411,o),
(287,515,cs),
(287,586,o),
(290,614,o),
(298,667,cs),
(321,805,ls),
(386,1197,o),
(600,1433,o),
(935,1433,cs)
);
},
{
closed = 1;
nodes = (
(574,20,o),
(451,84,o),
(377,191,c),
(1340,1219,l),
(1383,1138,o),
(1402,1042,o),
(1402,938,cs),
(1402,867,o),
(1400,839,o),
(1391,786,cs),
(1369,648,ls),
(1304,256,o),
(1090,20,o),
(755,20,cs)
);
}
);
width = 1690;
}
);
unicode = 248;
},
{
glyphname = oe;
lastChange = "2022-01-21 13:11:03 +0000";
layers = (
{
layerId = "586BE664-8D6A-4867-BE1B-390608DE01EA";
shapes = (
{
closed = 1;
nodes = (
(1363,-34,o),
(1521,104,o),
(1616,332,c),
(1360,442,l),
(1315,327,o),
(1239,234,o),
(1140,234,cs),
(1033,234,o),
(977,324,o),
(977,465,cs),
(977,507,o),
(980,555,o),
(988,605,cs),
(994,636,l),
(1597,650,o),
(1709,912,o),
(1709,1124,cs),
(1709,1326,o),
(1554,1487,o),
(1318,1487,cs),
(1152,1487,o),
(1017,1411,o),
(935,1287,c),
(924,1287,l),
(884,1414,o),
(772,1487,o),
(617,1487,cs),
(239,1487,o),
(25,1090,o),
(25,496,cs),
(25,124,o),
(189,-34,o),
(428,-34,cs),
(625,-34,o),
(735,99,o),
(769,186,c),
(783,186,l),
(834,34,o),
(955,-34,o),
(1124,-34,cs,{
name = hr00;
})
);
},
{
closed = 1;
nodes = (
(377,234,o),
(327,298,o),
(327,420,cs),
(327,453,o),
(329,496,o),
(335,529,cs),
(400,918,ls),
(436,1138,o),
(504,1219,o),
(608,1219,cs),
(693,1219,o),
(743,1155,o),
(743,1033,cs),
(743,1000,o),
(741,963,o),
(735,924,cs),
(670,535,ls),
(634,315,o),
(566,234,o),
(462,234,cs)
);
},
{
closed = 1;
nodes = (
(1354,1236,o),
(1411,1188,o),
(1411,1107,cs),
(1411,960,o),
(1301,865,o),
(1031,853,c),
(1033,873,ls),
(1076,1126,o),
(1160,1236,o),
(1267,1236,cs)
);
}
);
width = 1690;
},
{
layerId = "9AAD14F8-FE06-4230-ACE0-3E9D6F8A5A9E";
shapes = (
{
closed = 1;
nodes = (
(1374,-34,o),
(1523,135,o),
(1608,321,c),
(1456,397,l),
(1383,256,o),
(1304,141,o),
(1157,141,cs),
(1017,141,o),
(938,248,o),
(938,448,cs),
(938,484,o),
(941,546,o),
(949,597,cs),
(960,665,l),
(1538,681,o),
(1706,912,o),
(1706,1149,cs),
(1706,1366,o),
(1563,1487,o),
(1369,1487,cs),
(1191,1487,o),
(1050,1383,o),
(955,1202,c),
(943,1202,l),
(929,1338,o),
(836,1487,o),
(631,1487,cs),
(253,1487,o),
(56,983,o),
(56,515,cs),
(56,200,o),
(146,-34,o),
(408,-34,cs),
(605,-34,o),
(746,96,o),
(797,276,c),
(811,276,l),
(828,70,o),
(966,-34,o),
(1146,-34,cs,{
name = hr00;
})
);
},
{
closed = 1;
nodes = (
(327,132,o),
(248,211,o),
(248,411,cs),
(248,448,o),
(251,515,o),
(262,583,cs),
(310,873,ls),
(363,1191,o),
(473,1321,o),
(617,1321,cs),
(732,1321,o),
(811,1242,o),
(811,1042,cs),
(811,1005,o),
(808,938,o),
(797,870,cs),
(749,580,ls),
(696,262,o),
(586,132,o),
(442,132,cs)
);
},
{
closed = 1;
nodes = (
(1464,1321,o),
(1521,1256,o),
(1521,1143,cs),
(1521,972,o),
(1394,828,o),
(983,814,c),
(991,865,ls),
(1028,1104,o),
(1155,1321,o),
(1354,1321,cs)
);
}
);
width = 1690;
},
{
layerId = "B042A474-670A-4404-9662-903C467C1F9E";
shapes = (
{
closed = 1;
nodes = (
(1332,-34,o),
(1467,124,o),
(1560,324,c),
(1509,346,l),
(1416,144,o),
(1293,20,o),
(1115,20,cs),
(957,20,o),
(853,141,o),
(853,428,cs),
(853,496,o),
(862,574,o),
(879,667,cs),
(884,698,l),
(1439,712,o),
(1676,876,o),
(1676,1200,cs),
(1676,1360,o),
(1574,1487,o),
(1394,1487,cs),
(1194,1487,o),
(1011,1363,o),
(910,1045,c),
(901,1045,l),
(904,1332,o),
(783,1487,o),
(605,1487,cs),
(282,1487,o),
(68,1050,o),
(68,436,cs),
(68,107,o),
(186,-34,o),
(372,-34,cs),
(549,-34,o),
(712,96,o),
(797,360,c),
(805,360,l),
(814,99,o),
(938,-34,o),
(1115,-34,cs,{
name = hr00;
})
);
},
{
closed = 1;
nodes = (
(203,20,o),
(121,163,o),
(121,439,cs),
(121,501,o),
(121,569,o),
(135,650,cs),
(161,808,ls),
(231,1245,o),
(406,1433,o),
(603,1433,cs),
(772,1433,o),
(853,1290,o),
(853,1014,cs),
(853,952,o),
(853,884,o),
(839,803,cs),
(814,645,ls),
(743,208,o),
(569,20,o),
(372,20,cs)
);
},
{
closed = 1;
nodes = (
(1526,1433,o),
(1616,1346,o),
(1616,1197,cs),
(1616,881,o),
(1377,758,o),
(893,749,c),
(898,794,ls),
(949,1202,o),
(1157,1433,o),
(1385,1433,cs)
);
}
);
width = 1690;
}
);
unicode = 339;
},
{
glyphname = p;
lastChange = "2022-01-21 13:11:03 +0000";
layers = (
{
anchors = (
{
name = top;
pos = (1135,1453);
}
);
layerId = "586BE664-8D6A-4867-BE1B-390608DE01EA";
shapes = (
{
closed = 1;
nodes = (
(375,-563,l),
(515,270,l),
(535,270,l),
(577,79,o),
(687,-34,o),
(915,-34,cs),
(1318,-34,o),
(1583,346,o),
(1583,924,cs),
(1583,1264,o),
(1464,1487,o),
(1157,1487,cs),
(910,1487,o),
(780,1329,o),
(670,1107,c),
(656,1107,l),
(712,1453,l,{
name = hr01;
}),
(301,1453,l),
(-37,-563,l)
);
},
{
closed = 1;
nodes = (
(605,284,o),
(532,372,o),
(558,524,c),
(597,758,l),
(617,879,o),
(684,977,o),
(729,1031,cs),
(797,1115,o),
(873,1169,o),
(974,1169,cs,{
name = hr02;
}),
(1115,1169,o),
(1163,1062,o),
(1166,924,cs),
(1166,876,o),
(1160,831,o),
(1155,797,cs),
(1126,628,ls),
(1090,408,o),
(986,284,o),
(783,284,cs)
);
}
);
width = 1690;
},
{
anchors = (
{
name = top;
pos = (1056,1453);
}
);
layerId = "9AAD14F8-FE06-4230-ACE0-3E9D6F8A5A9E";
shapes = (
{
closed = 1;
nodes = (
(273,-563,l),
(411,253,l),
(420,253,l),
(482,65,o),
(631,-34,o),
(845,-34,cs),
(1357,-34,o),
(1532,535,o),
(1532,924,cs),
(1532,1295,o),
(1371,1487,o),
(1079,1487,cs),
(822,1487,o),
(676,1338,o),
(563,1110,c),
(555,1110,l),
(611,1453,l,{
name = hr01;
}),
(391,1453,l),
(54,-563,l)
);
},
{
closed = 1;
nodes = (
(563,161,o),
(414,276,o),
(448,479,cs),
(501,800,ls),
(524,935,o),
(589,1050,o),
(662,1132,cs),
(763,1245,o),
(881,1293,o),
(1002,1293,cs,{
name = hr02;
}),
(1205,1293,o),
(1309,1163,o),
(1309,946,cs),
(1309,910,o),
(1307,870,o),
(1298,819,cs),
(1264,617,ls),
(1219,346,o),
(1059,161,o),
(780,161,cs)
);
}
);
width = 1690;
},
{
anchors = (
{
name = top;
pos = (1000,1453);
}
);
layerId = "B042A474-670A-4404-9662-903C467C1F9E";
shapes = (
{
closed = 1;
nodes = (
(191,-563,l),
(327,262,l),
(335,262,l),
(391,90,o),
(549,-34,o),
(805,-34,cs),
(1217,-34,o),
(1487,372,o),
(1487,929,cs),
(1487,1250,o),
(1321,1487,o),
(1000,1487,cs),
(743,1487,o),
(591,1340,o),
(482,1129,c),
(473,1129,l),
(527,1453,l,{
name = hr01;
}),
(467,1453,l),
(132,-563,l)
);
},
{
closed = 1;
nodes = (
(445,20,o),
(329,259,o),
(360,453,cs),
(431,879,ls),
(462,1064,o),
(569,1219,o),
(679,1318,cs),
(772,1400,o),
(876,1433,o),
(1000,1433,cs,{
name = hr02;
}),
(1307,1433,o),
(1431,1202,o),
(1431,929,cs),
(1431,881,o),
(1428,834,o),
(1419,786,cs),
(1397,648,ls),
(1338,293,o),
(1126,20,o),
(805,20,cs)
);
}
);
width = 1690;
}
);
unicode = 112;
},
{
glyphname = thorn;
lastChange = "2022-01-21 13:11:03 +0000";
layers = (
{
layerId = "586BE664-8D6A-4867-BE1B-390608DE01EA";
shapes = (
{
closed = 1;
nodes = (
(375,-563,l),
(515,270,l),
(535,270,l),
(577,79,o),
(687,-34,o),
(915,-34,cs),
(1318,-34,o),
(1583,346,o),
(1583,924,cs),
(1583,1264,o),
(1464,1487,o),
(1157,1487,cs),
(910,1487,o),
(780,1329,o),
(670,1107,c),
(656,1107,l),
(817,2084,l),
(406,2084,l),
(-37,-563,l,{
name = hr00;
})
);
},
{
closed = 1;
nodes = (
(605,284,o),
(532,372,o),
(558,524,cs),
(597,758,l),
(617,879,o),
(684,977,o),
(729,1031,cs),
(797,1115,o),
(873,1169,o),
(974,1169,cs),
(1115,1169,o),
(1163,1062,o),
(1166,924,cs),
(1166,876,o),
(1160,831,o),
(1155,797,cs),
(1126,628,ls),
(1090,408,o),
(986,284,o),
(783,284,cs)
);
}
);
width = 1690;
},
{
layerId = "9AAD14F8-FE06-4230-ACE0-3E9D6F8A5A9E";
shapes = (
{
closed = 1;
nodes = (
(273,-563,l),
(411,253,l),
(420,253,l),
(482,65,o),
(631,-34,o),
(845,-34,cs),
(1357,-34,o),
(1532,535,o),
(1532,924,cs),
(1532,1295,o),
(1371,1487,o),
(1079,1487,cs),
(822,1487,o),
(676,1338,o),
(563,1110,c),
(555,1110,l),
(718,2084,l),
(498,2084,l),
(54,-563,l,{
name = hr00;
})
);
},
{
closed = 1;
nodes = (
(563,161,o),
(414,276,o),
(448,479,cs),
(501,800,ls),
(524,935,o),
(589,1050,o),
(662,1132,cs),
(763,1245,o),
(881,1293,o),
(1002,1293,cs),
(1205,1293,o),
(1309,1163,o),
(1309,946,cs),
(1309,910,o),
(1307,870,o),
(1298,819,cs),
(1264,617,ls),
(1219,346,o),
(1059,161,o),
(780,161,cs)
);
}
);
width = 1690;
},
{
layerId = "B042A474-670A-4404-9662-903C467C1F9E";
shapes = (
{
closed = 1;
nodes = (
(191,-563,l),
(327,262,l),
(335,262,l),
(391,90,o),
(549,-34,o),
(805,-34,cs),
(1217,-34,o),
(1487,372,o),
(1487,929,cs),
(1487,1250,o),
(1321,1487,o),
(1000,1487,cs),
(743,1487,o),
(591,1340,o),
(482,1129,c),
(473,1129,l),
(631,2084,l),
(572,2084,l),
(132,-563,l,{
name = hr00;
})
);
},
{
closed = 1;
nodes = (
(445,20,o),
(329,259,o),
(360,453,cs),
(431,879,ls),
(462,1064,o),
(569,1219,o),
(679,1318,cs),
(772,1400,o),
(876,1433,o),
(1000,1433,cs),
(1307,1433,o),
(1431,1202,o),
(1431,929,cs),
(1431,881,o),
(1428,834,o),
(1419,786,cs),
(1397,648,ls),
(1338,293,o),
(1126,20,o),
(805,20,cs)
);
}
);
width = 1690;
}
);
unicode = 254;
},
{
glyphname = q;
lastChange = "2022-01-21 13:11:03 +0000";
layers = (
{
anchors = (
{
name = top;
pos = (794,1453);
}
);
layerId = "586BE664-8D6A-4867-BE1B-390608DE01EA";
shapes = (
{
closed = 1;
nodes = (
(1295,-563,l),
(1630,1453,l),
(1219,1453,l),
(1174,1183,l),
(1155,1183,l),
(1112,1374,o),
(1002,1487,o),
(774,1487,cs,{
name = hr01;
}),
(372,1487,o),
(107,1107,o),
(107,529,cs),
(107,189,o),
(225,-34,o),
(532,-34,cs),
(780,-34,o),
(910,124,o),
(1019,346,c),
(1033,346,l),
(884,-563,l)
);
},
{
closed = 1;
nodes = (
(574,284,o),
(527,391,o),
(524,529,cs),
(524,577,o),
(529,622,o),
(535,656,cs),
(563,825,ls),
(600,1045,o),
(704,1169,o),
(907,1169,cs),
(1084,1169,o),
(1157,1081,o),
(1132,929,c),
(1093,696,l),
(1073,574,o),
(1005,476,o),
(960,422,cs),
(893,338,o),
(817,284,o),
(715,284,cs)
);
}
);
width = 1690;
},
{
anchors = (
{
name = top;
pos = (870,1453);
}
);
layerId = "9AAD14F8-FE06-4230-ACE0-3E9D6F8A5A9E";
shapes = (
{
closed = 1;
nodes = (
(1202,-563,l),
(1540,1453,l),
(1321,1453,l),
(1278,1200,l),
(1270,1200,l),
(1208,1388,o),
(1059,1487,o),
(845,1487,cs,{
name = hr01;
}),
(332,1487,o),
(158,918,o),
(158,529,cs),
(158,158,o),
(318,-34,o),
(611,-34,cs),
(867,-34,o),
(1014,115,o),
(1126,344,c),
(1135,344,l),
(983,-563,l)
);
},
{
closed = 1;
nodes = (
(484,161,o),
(380,290,o),
(380,507,cs),
(380,543,o),
(383,583,o),
(391,634,cs),
(425,836,ls),
(470,1107,o),
(631,1293,o),
(910,1293,cs),
(1126,1293,o),
(1276,1177,o),
(1242,974,cs),
(1188,653,ls),
(1166,518,o),
(1101,403,o),
(1028,321,cs),
(926,208,o),
(808,161,o),
(687,161,cs)
);
}
);
width = 1690;
},
{
anchors = (
{
name = top;
pos = (881,1453);
}
);
layerId = "B042A474-670A-4404-9662-903C467C1F9E";
shapes = (
{
closed = 1;
nodes = (
(1126,-563,l),
(1462,1453,l),
(1402,1453,l),
(1360,1191,l),
(1352,1191,l),
(1295,1363,o),
(1138,1487,o),
(881,1487,cs,{
name = hr01;
}),
(470,1487,o),
(200,1081,o),
(200,524,cs),
(200,203,o),
(366,-34,o),
(687,-34,cs),
(943,-34,o),
(1095,113,o),
(1205,324,c),
(1214,324,l),
(1067,-563,l)
);
},
{
closed = 1;
nodes = (
(380,20,o),
(256,251,o),
(256,524,cs),
(256,572,o),
(259,620,o),
(268,667,cs),
(290,805,ls),
(349,1160,o),
(560,1433,o),
(881,1433,cs),
(1242,1433,o),
(1357,1194,o),
(1326,1000,cs),
(1256,574,ls),
(1225,389,o),
(1118,234,o),
(1008,135,cs),
(915,54,o),
(811,20,o),
(687,20,cs)
);
}
);
width = 1690;
}
);
unicode = 113;
},
{
glyphname = r;
lastChange = "2022-01-21 13:11:03 +0000";
layers = (
{
anchors = (
{
name = bottom;
pos = (611,0);
},
{
name = top;
pos = (1002,1453);
}
);
layerId = "586BE664-8D6A-4867-BE1B-390608DE01EA";
shapes = (
{
closed = 1;
nodes = (
(932,665,ls),
(949,766,o),
(1011,870,o),
(1048,915,cs),
(1115,1000,o),
(1200,1042,o),
(1352,1042,cs),
(1608,1042,l),
(1681,1453,l),
(1585,1453,ls),
(1301,1453,o),
(1126,1290,o),
(1005,1014,c),
(988,1014,l),
(1064,1453,l),
(321,1453,l),
(268,1132,l,{
name = hr01;
}),
(600,1132,l),
(411,0,l),
(822,0,l)
);
}
);
width = 1690;
},
{
anchors = (
{
name = bottom;
pos = (614,0);
},
{
name = top;
pos = (1039,1453);
}
);
layerId = "9AAD14F8-FE06-4230-ACE0-3E9D6F8A5A9E";
shapes = (
{
closed = 1;
nodes = (
(848,758,ls),
(876,926,o),
(977,1045,o),
(1014,1087,cs),
(1101,1188,o),
(1205,1233,o),
(1374,1233,cs),
(1622,1233,l),
(1659,1453,l),
(1439,1453,ls),
(1160,1453,o),
(1014,1295,o),
(912,1064,c),
(898,1064,l),
(963,1453,l),
(335,1453,l),
(304,1264,l,{
name = hr01;
}),
(712,1264,l),
(501,0,l),
(721,0,l)
);
}
);
width = 1690;
},
{
anchors = (
{
name = bottom;
pos = (634,0);
},
{
name = top;
pos = (1028,1453);
}
);
layerId = "B042A474-670A-4404-9662-903C467C1F9E";
shapes = (
{
closed = 1;
nodes = (
(834,1011,ls),
(856,1149,o),
(932,1247,o),
(1033,1312,cs),
(1124,1371,o),
(1233,1400,o),
(1343,1400,cs),
(1678,1400,l),
(1687,1453,l),
(1352,1453,ls),
(1093,1453,o),
(980,1360,o),
(873,1208,c),
(865,1208,l),
(907,1453,l),
(346,1453,l),
(338,1400,l),
(839,1400,l),
(605,0,l),
(665,0,l,{
name = hr00;
})
);
}
);
width = 1690;
}
);
unicode = 114;
},
{
glyphname = s;
lastChange = "2022-01-21 13:11:03 +0000";
layers = (
{
anchors = (
{
name = bottom;
pos = (741,0);
},
{
name = top;
pos = (943,1453);
}
);
layerId = "586BE664-8D6A-4867-BE1B-390608DE01EA";
shapes = (
{
closed = 1;
nodes = (
(1160,-34,o),
(1439,158,o),
(1439,479,cs),
(1439,715,o),
(1290,817,o),
(1048,870,cs),
(831,918,ls),
(741,938,o),
(687,960,o),
(687,1039,cs),
(687,1143,o),
(783,1197,o),
(929,1197,cs),
(1093,1197,o),
(1228,1132,o),
(1293,1050,c),
(1518,1281,l),
(1419,1408,o),
(1200,1487,o),
(941,1487,c),
(563,1487,o),
(282,1312,o),
(282,986,cs),
(282,729,o),
(453,636,o),
(673,589,cs),
(881,543,ls),
(969,524,o),
(1031,496,o),
(1031,417,cs),
(1031,313,o),
(924,256,o),
(755,256,cs),
(583,256,o),
(428,315,o),
(346,431,c),
(115,203,l),
(214,51,o),
(436,-34,o),
(727,-34,cs,{
name = hr00;
})
);
}
);
width = 1690;
},
{
anchors = (
{
name = bottom;
pos = (766,0);
},
{
name = top;
pos = (946,1453);
}
);
layerId = "9AAD14F8-FE06-4230-ACE0-3E9D6F8A5A9E";
shapes = (
{
closed = 1;
nodes = (
(1143,-34,o),
(1405,152,o),
(1405,453,cs),
(1405,741,o),
(1166,786,o),
(980,817,cs),
(774,850,ls),
(656,870,o),
(549,901,o),
(549,1042,cs),
(549,1200,o),
(681,1301,o),
(932,1301,cs),
(1177,1301,o),
(1295,1205,o),
(1346,1129,c),
(1501,1264,l),
(1391,1402,o),
(1211,1487,o),
(957,1487,cs),
(614,1487,o),
(335,1332,o),
(335,1025,cs),
(335,755,o),
(555,684,o),
(766,653,cs),
(977,622,ls),
(1095,605,o),
(1188,566,o),
(1188,431,cs),
(1188,256,o),
(1031,152,o),
(774,152,cs),
(555,152,o),
(411,228,o),
(298,369,c),
(135,239,l),
(262,65,o),
(473,-34,o),
(755,-34,cs,{
name = hr00;
})
);
}
);
width = 1690;
},
{
anchors = (
{
name = bottom;
pos = (774,0);
},
{
name = top;
pos = (941,1453);
}
);
layerId = "B042A474-670A-4404-9662-903C467C1F9E";
shapes = (
{
closed = 1;
nodes = (
(1138,-34,o),
(1405,115,o),
(1405,434,cs),
(1405,665,o),
(1239,749,o),
(1008,769,cs),
(788,788,ls),
(563,808,o),
(439,879,o),
(439,1070,cs),
(439,1318,o),
(631,1433,o),
(926,1433,cs),
(1214,1433,o),
(1354,1335,o),
(1436,1219,c),
(1481,1259,l),
(1391,1377,o),
(1233,1487,o),
(929,1487,cs),
(631,1487,o),
(380,1369,o),
(380,1070,cs),
(380,839,o),
(543,755,o),
(774,735,cs),
(994,715,ls),
(1219,696,o),
(1346,622,o),
(1346,431,cs),
(1346,158,o),
(1129,20,o),
(803,20,cs),
(535,20,o),
(344,96,o),
(225,287,c),
(177,253,l),
(304,59,o),
(513,-34,o),
(803,-34,cs,{
name = hr00;
})
);
}
);
width = 1690;
}
);
unicode = 115;
},
{
glyphname = scedilla;
lastChange = "2022-01-21 13:11:03 +0000";
layers = (
{
layerId = "586BE664-8D6A-4867-BE1B-390608DE01EA";
shapes = (
{
closed = 1;
nodes = (
(918,-597,o),
(1093,-501,o),
(1093,-310,cs),
(1093,-208,o),
(1011,-146,o),
(907,-146,cs),
(870,-146,o),
(831,-152,o),
(788,-166,c),
(780,-155,l),
(825,-31,l),
(1200,-3,o),
(1439,180,o),
(1439,484,cs,{
name = hr01;
}),
(1439,718,o),
(1284,817,o),
(1048,870,cs),
(831,918,ls),
(735,938,o),
(687,966,o),
(687,1036,cs),
(687,1143,o),
(780,1197,o),
(929,1197,cs),
(1093,1197,o),
(1228,1132,o),
(1293,1050,c),
(1518,1281,l),
(1419,1408,o),
(1200,1487,o),
(941,1487,cs),
(563,1487,o),
(282,1312,o),
(282,983,cs),
(282,735,o),
(445,639,o),
(673,589,cs),
(881,543,ls),
(974,524,o),
(1031,490,o),
(1031,420,cs),
(1031,313,o),
(924,256,o),
(758,256,cs),
(583,256,o),
(428,315,o),
(346,431,c),
(115,203,l),
(203,68,o),
(389,-14,o),
(634,-31,c),
(566,-208,l),
(631,-214,ls),
(777,-228,o),
(822,-268,o),
(822,-315,cs,{
name = hr02;
}),
(822,-372,o),
(763,-397,o),
(681,-397,cs),
(597,-397,o),
(538,-352,o),
(510,-318,c),
(366,-467,l),
(420,-538,o),
(532,-597,o),
(690,-597,cs)
);
}
);
width = 1690;
},
{
layerId = "9AAD14F8-FE06-4230-ACE0-3E9D6F8A5A9E";
shapes = (
{
closed = 1;
nodes = (
(895,-583,o),
(1048,-510,o),
(1048,-335,cs),
(1048,-225,o),
(986,-169,o),
(881,-169,cs),
(859,-169,o),
(817,-172,o),
(777,-180,c),
(772,-172,l),
(822,-31,l),
(1174,-11,o),
(1405,169,o),
(1405,453,cs),
(1405,741,o),
(1166,786,o),
(980,817,cs),
(774,850,ls),
(656,870,o),
(549,901,o),
(549,1042,cs),
(549,1200,o),
(681,1301,o),
(932,1301,cs),
(1177,1301,o),
(1295,1205,o),
(1346,1129,c),
(1501,1264,l),
(1391,1402,o),
(1211,1487,o),
(957,1487,cs),
(614,1487,o),
(335,1332,o),
(335,1025,cs),
(335,755,o),
(555,684,o),
(766,653,cs),
(977,622,ls),
(1095,605,o),
(1188,566,o),
(1188,431,cs),
(1188,256,o),
(1031,152,o),
(774,152,cs),
(555,152,o),
(411,228,o),
(298,369,c),
(135,239,l),
(251,79,o),
(434,-14,o),
(679,-31,c),
(614,-214,l),
(696,-225,ls),
(839,-245,o),
(865,-296,o),
(865,-335,cs),
(865,-397,o),
(805,-431,o),
(724,-431,cs),
(642,-431,o),
(594,-397,o),
(566,-355,c),
(453,-467,l),
(490,-527,o),
(577,-583,o),
(724,-583,cs,{
name = hr00;
})
);
}
);
width = 1690;
},
{
layerId = "B042A474-670A-4404-9662-903C467C1F9E";
shapes = (
{
closed = 1;
nodes = (
(839,-569,o),
(938,-470,o),
(938,-355,cs),
(938,-262,o),
(876,-203,o),
(772,-203,cs),
(749,-203,o),
(715,-206,o),
(690,-211,c),
(684,-206,l),
(758,-34,l),
(1098,-34,o),
(1405,82,o),
(1405,434,cs),
(1405,665,o),
(1239,749,o),
(1008,769,cs),
(788,788,ls),
(563,808,o),
(439,879,o),
(439,1070,cs),
(439,1318,o),
(631,1433,o),
(926,1433,cs),
(1214,1433,o),
(1354,1335,o),
(1436,1219,c),
(1481,1259,l),
(1391,1377,o),
(1233,1487,o),
(929,1487,cs),
(631,1487,o),
(380,1369,o),
(380,1070,cs),
(380,839,o),
(543,755,o),
(774,735,cs),
(994,715,ls),
(1219,696,o),
(1346,622,o),
(1346,431,cs),
(1346,158,o),
(1129,20,o),
(803,20,cs),
(535,20,o),
(344,96,o),
(225,287,c),
(177,253,l),
(290,79,o),
(465,-11,o),
(707,-31,c),
(622,-237,l),
(729,-242,ls),
(839,-248,o),
(879,-293,o),
(879,-358,cs),
(879,-451,o),
(800,-518,o),
(679,-518,cs),
(600,-518,o),
(541,-490,o),
(504,-442,c),
(465,-479,l),
(498,-527,o),
(574,-569,o),
(679,-569,cs,{
name = hr00;
})
);
}
);
width = 1690;
}
);
unicode = 351;
},
{
glyphname = germandbls;
lastChange = "2022-01-21 13:11:03 +0000";
layers = (
{
layerId = "586BE664-8D6A-4867-BE1B-390608DE01EA";
shapes = (
{
closed = 1;
nodes = (
(636,1138,l),
(1146,1138,l),
(738,648,l),
(684,332,l),
(752,332,ls),
(966,332,o),
(1073,270,o),
(1073,130,cs),
(1073,110,o),
(1073,99,o),
(1059,14,cs),
(1028,-172,o),
(910,-248,o),
(673,-248,cs),
(513,-248,l),
(459,-563,l),
(656,-563,ls),
(1155,-563,o),
(1487,-327,o),
(1487,115,cs),
(1487,377,o),
(1338,535,o),
(1087,586,c),
(1566,1157,l),
(1616,1453,l),
(687,1453,l),
(741,1768,l),
(1155,1768,l),
(1208,2084,l),
(814,2084,ls),
(518,2084,o),
(358,1912,o),
(318,1676,cs),
(48,0,l),
(448,0,l,{
name = hr00;
})
);
}
);
width = 1690;
},
{
layerId = "9AAD14F8-FE06-4230-ACE0-3E9D6F8A5A9E";
shapes = (
{
closed = 1;
nodes = (
(605,1264,l),
(1346,1264,l),
(766,620,l),
(735,431,l),
(780,431,ls),
(1124,431,o),
(1273,363,o),
(1273,161,cs),
(1273,132,o),
(1270,96,o),
(1259,6,cs),
(1225,-259,o),
(1002,-375,o),
(696,-375,cs),
(513,-375,l),
(479,-563,l),
(676,-563,ls),
(1205,-563,o),
(1501,-287,o),
(1501,130,cs),
(1501,414,o),
(1309,563,o),
(983,589,c),
(1563,1233,l),
(1599,1453,l),
(636,1453,l),
(710,1895,l),
(1194,1895,l),
(1225,2084,l),
(839,2084,ls),
(670,2084,o),
(513,2016,o),
(470,1754,cs),
(180,0,l),
(397,0,l,{
name = hr00;
})
);
}
);
width = 1690;
},
{
layerId = "B042A474-670A-4404-9662-903C467C1F9E";
shapes = (
{
closed = 1;
nodes = (
(572,1400,l),
(1535,1400,l),
(769,589,l),
(758,532,l),
(845,532,ls),
(1177,532,o),
(1433,406,o),
(1433,124,cs),
(1433,93,o),
(1436,65,o),
(1414,-68,cs),
(1360,-363,o),
(1157,-510,o),
(707,-510,cs),
(487,-510,l),
(479,-563,l),
(712,-563,ls),
(1278,-563,o),
(1492,-318,o),
(1492,124,cs),
(1492,431,o),
(1217,586,o),
(839,586,c),
(1608,1397,l),
(1616,1453,l),
(580,1453,l),
(676,2030,l),
(1309,2030,l),
(1318,2084,l),
(701,2084,ls),
(645,2084,o),
(620,2061,o),
(611,2002,cs),
(279,0,l),
(338,0,l,{
name = hr00;
})
);
}
);
width = 1690;
}
);
unicode = 223;
},
{
glyphname = longs;
lastChange = "2022-01-21 13:11:03 +0000";
layers = (
{
layerId = "586BE664-8D6A-4867-BE1B-390608DE01EA";
shapes = (
{
closed = 1;
nodes = (
(724,-597,o),
(887,-465,o),
(941,-149,cs),
(1262,1763,l),
(1785,1763,l),
(1839,2084,l),
(1338,2084,ls),
(1036,2084,o),
(876,1915,o),
(836,1673,cs),
(800,1453,l),
(341,1453,l),
(287,1132,l),
(746,1132,l),
(515,-259,l),
(482,-273,l),
(191,110,l),
(-90,-84,l),
(25,-251,ls),
(172,-459,o),
(282,-597,o),
(487,-597,cs,{
name = hr00;
})
);
}
);
width = 1690;
},
{
layerId = "9AAD14F8-FE06-4230-ACE0-3E9D6F8A5A9E";
shapes = (
{
closed = 1;
nodes = (
(721,-597,o),
(797,-459,o),
(822,-301,cs),
(1188,1895,l),
(1774,1895,l),
(1805,2084,l),
(1318,2084,ls),
(1101,2084,o),
(977,1946,o),
(946,1754,cs),
(895,1453,l),
(377,1453,l),
(346,1264,l),
(865,1264,l),
(589,-389,l),
(538,-400,l),
(104,62,l),
(-45,-73,l),
(127,-262,ls),
(352,-507,o),
(434,-597,o),
(552,-597,cs,{
name = hr00;
})
);
}
);
width = 1690;
},
{
layerId = "B042A474-670A-4404-9662-903C467C1F9E";
shapes = (
{
closed = 1;
nodes = (
(634,-597,o),
(650,-566,o),
(662,-501,cs),
(1084,2030,l),
(1718,2030,l),
(1726,2084,l),
(1110,2084,ls),
(1053,2084,o),
(1028,2061,o),
(1019,2002,cs),
(929,1453,l),
(386,1453,l),
(377,1400,l),
(921,1400,l),
(597,-538,l),
(580,-543,l),
(11,-34,l),
(-28,-73,l),
(501,-549,ls),
(538,-580,o),
(560,-597,o),
(589,-597,cs,{
name = hr00;
})
);
}
);
width = 1690;
}
);
unicode = 383;
},
{
glyphname = t;
lastChange = "2022-01-21 13:11:03 +0000";
layers = (
{
anchors = (
{
name = bottom;
pos = (791,0);
},
{
name = topright;
pos = (1312,2196);
}
);
layerId = "586BE664-8D6A-4867-BE1B-390608DE01EA";
shapes = (
{
closed = 1;
nodes = (
(983,-34,o),
(1118,65,o),
(1357,270,cs),
(1526,417,l),
(1324,648,l),
(884,301,l),
(828,321,l),
(963,1132,l),
(1532,1132,l),
(1585,1453,l),
(1017,1453,l),
(1101,1966,l),
(718,1966,l),
(662,1622,ls),
(642,1495,o),
(586,1453,o),
(465,1453,cs),
(231,1453,l),
(177,1132,l),
(549,1132,l),
(445,513,ls),
(431,428,o),
(425,377,o),
(425,327,cs),
(425,110,o),
(535,-34,o),
(783,-34,cs,{
name = hr00;
})
);
}
);
width = 1690;
},
{
anchors = (
{
name = bottom;
pos = (656,0);
},
{
name = topright;
pos = (1278,2140);
}
);
layerId = "9AAD14F8-FE06-4230-ACE0-3E9D6F8A5A9E";
shapes = (
{
closed = 1;
nodes = (
(788,-34,o),
(901,25,o),
(1163,211,cs),
(1481,436,l),
(1371,577,l),
(738,155,l),
(681,189,l),
(862,1264,l),
(1462,1264,l),
(1492,1453,l),
(893,1453,l),
(980,1966,l),
(772,1966,l),
(707,1585,ls),
(690,1487,o),
(645,1453,o),
(549,1453,cs),
(253,1453,l),
(222,1264,l),
(642,1264,l),
(473,284,ls),
(467,253,o),
(465,200,o),
(465,175,cs),
(465,39,o),
(541,-34,o),
(673,-34,cs,{
name = hr00;
})
);
}
);
width = 1690;
},
{
anchors = (
{
name = bottom;
pos = (600,0);
},
{
name = topright;
pos = (1332,2140);
}
);
layerId = "B042A474-670A-4404-9662-903C467C1F9E";
shapes = (
{
closed = 1;
nodes = (
(636,-34,o),
(670,-6,o),
(721,25,cs),
(1442,470,l),
(1414,515,l),
(622,28,l),
(608,37,l),
(839,1400,l),
(1583,1400,l),
(1591,1453,l),
(848,1453,l),
(932,1966,l),
(873,1966,l),
(803,1535,ls),
(794,1478,o),
(763,1453,o),
(707,1453,cs),
(222,1453,l),
(214,1400,l),
(780,1400,l),
(563,118,ls),
(552,51,o),
(549,31,o),
(549,17,cs),
(549,-11,o),
(566,-34,o),
(600,-34,cs,{
name = hr00;
})
);
}
);
width = 1690;
}
);
unicode = 116;
},
{
glyphname = tbar;
lastChange = "2022-01-21 13:11:03 +0000";
layers = (
{
layerId = "586BE664-8D6A-4867-BE1B-390608DE01EA";
shapes = (
{
closed = 1;
nodes = (
(955,-34,o),
(1098,42,o),
(1301,183,cs),
(1476,304,l),
(1293,543,l),
(870,290,l),
(828,315,l),
(890,684,l),
(1293,684,l),
(1340,966,l),
(935,966,l),
(963,1132,l),
(1532,1132,l),
(1585,1453,l,{
name = hr01;
}),
(1017,1453,l),
(1101,1966,l),
(718,1966,l),
(662,1622,ls),
(642,1495,o),
(586,1453,o),
(465,1453,cs),
(231,1453,l),
(177,1132,l),
(549,1132,l),
(521,966,l),
(262,966,l),
(214,684,l),
(473,684,l),
(445,513,ls),
(431,428,o),
(425,377,o),
(425,327,cs,{
name = hr02;
}),
(425,110,o),
(538,-34,o),
(791,-34,cs)
);
}
);
width = 1690;
},
{
layerId = "9AAD14F8-FE06-4230-ACE0-3E9D6F8A5A9E";
shapes = (
{
closed = 1;
nodes = (
(788,-34,o),
(901,25,o),
(1163,211,cs),
(1481,436,l),
(1371,577,l),
(738,155,l),
(681,189,l),
(774,755,l),
(1202,755,l),
(1231,926,l),
(805,926,l),
(862,1264,l),
(1462,1264,l),
(1492,1453,l,{
name = hr01;
}),
(893,1453,l),
(980,1966,l),
(772,1966,l),
(707,1585,ls),
(690,1487,o),
(645,1453,o),
(549,1453,cs),
(253,1453,l),
(222,1264,l),
(642,1264,l),
(583,926,l),
(307,926,l),
(279,755,l),
(555,755,l),
(473,284,ls),
(467,253,o),
(465,200,o),
(465,175,cs,{
name = hr02;
}),
(465,39,o),
(541,-34,o),
(673,-34,cs)
);
}
);
width = 1690;
},
{
layerId = "B042A474-670A-4404-9662-903C467C1F9E";
shapes = (
{
closed = 1;
nodes = (
(636,-34,o),
(670,-6,o),
(721,25,cs),
(1442,470,l),
(1414,515,l),
(622,28,l),
(608,37,l),
(738,797,l),
(1281,797,l),
(1290,848,l),
(746,848,l),
(839,1400,l),
(1583,1400,l),
(1591,1453,l,{
name = hr01;
}),
(848,1453,l),
(932,1966,l),
(873,1966,l),
(803,1535,ls),
(794,1478,o),
(763,1453,o),
(707,1453,cs),
(222,1453,l),
(214,1400,l),
(780,1400,l),
(687,848,l),
(321,848,l),
(313,797,l),
(679,797,l),
(563,118,ls),
(552,51,o),
(549,31,o),
(549,17,cs,{
name = hr02;
}),
(549,-11,o),
(566,-34,o),
(600,-34,cs)
);
}
);
width = 1690;
}
);
unicode = 359;
},
{
glyphname = tcedilla;
lastChange = "2022-01-21 13:11:03 +0000";
layers = (
{
layerId = "586BE664-8D6A-4867-BE1B-390608DE01EA";
shapes = (
{
closed = 1;
nodes = (
(972,-597,o),
(1143,-493,o),
(1143,-321,cs),
(1143,-197,o),
(1056,-146,o),
(955,-146,cs),
(921,-146,o),
(881,-152,o),
(839,-166,c),
(831,-155,l),
(876,-25,l),
(1031,0,o),
(1157,99,o),
(1357,270,cs),
(1526,417,l),
(1324,648,l),
(884,301,l),
(828,321,l),
(963,1132,l),
(1532,1132,l),
(1585,1453,l),
(1017,1453,l),
(1101,1966,l),
(718,1966,l),
(662,1622,ls),
(642,1495,o),
(586,1453,o),
(465,1453,cs),
(231,1453,l),
(177,1132,l),
(549,1132,l),
(445,513,ls),
(431,428,o),
(425,377,o),
(425,327,cs),
(425,138,o),
(507,8,o),
(687,-25,c),
(617,-208,l),
(681,-214,ls),
(836,-228,o),
(873,-273,o),
(873,-315,cs),
(873,-372,o),
(811,-397,o),
(741,-397,cs),
(645,-397,o),
(589,-352,o),
(560,-318,c),
(417,-467,l),
(470,-538,o),
(580,-597,o),
(749,-597,cs,{
name = hr00;
})
);
}
);
width = 1690;
},
{
layerId = "9AAD14F8-FE06-4230-ACE0-3E9D6F8A5A9E";
shapes = (
{
closed = 1;
nodes = (
(786,-583,o),
(938,-510,o),
(938,-335,cs),
(938,-225,o),
(876,-169,o),
(772,-169,cs),
(749,-169,o),
(707,-172,o),
(667,-180,c),
(662,-172,l),
(712,-31,l),
(817,-20,o),
(929,45,o),
(1163,211,cs),
(1481,436,l),
(1371,577,l),
(738,155,l),
(681,189,l),
(862,1264,l),
(1462,1264,l),
(1492,1453,l),
(893,1453,l),
(980,1966,l),
(772,1966,l),
(707,1585,ls),
(690,1487,o),
(645,1453,o),
(549,1453,cs),
(253,1453,l),
(222,1264,l),
(642,1264,l),
(473,284,ls),
(467,253,o),
(465,200,o),
(465,175,cs),
(465,76,o),
(504,11,o),
(574,-17,c),
(504,-214,l),
(586,-225,ls),
(729,-245,o),
(755,-296,o),
(755,-335,cs),
(755,-397,o),
(696,-431,o),
(614,-431,cs),
(532,-431,o),
(484,-397,o),
(456,-355,c),
(344,-467,l),
(380,-527,o),
(467,-583,o),
(614,-583,cs,{
name = hr00;
})
);
}
);
width = 1690;
},
{
layerId = "B042A474-670A-4404-9662-903C467C1F9E";
shapes = (
{
closed = 1;
nodes = (
(693,-569,o),
(791,-470,o),
(791,-355,cs),
(791,-262,o),
(729,-203,o),
(625,-203,cs),
(603,-203,o),
(569,-206,o),
(543,-211,c),
(538,-206,l),
(608,-34,l),
(642,-28,o),
(673,-3,o),
(721,25,cs),
(1442,470,l),
(1414,515,l),
(622,28,l),
(608,37,l),
(839,1400,l),
(1583,1400,l),
(1591,1453,l),
(848,1453,l),
(932,1966,l),
(873,1966,l),
(803,1535,ls),
(794,1478,o),
(763,1453,o),
(707,1453,cs),
(222,1453,l),
(214,1400,l),
(780,1400,l),
(563,118,ls),
(552,51,o),
(549,31,o),
(549,17,cs),
(549,0,o),
(552,-11,o),
(563,-23,c),
(476,-237,l),
(583,-242,ls),
(693,-248,o),
(732,-293,o),
(732,-358,cs),
(732,-451,o),
(653,-518,o),
(532,-518,cs),
(453,-518,o),
(394,-490,o),
(358,-442,c),
(318,-479,l),
(352,-527,o),
(428,-569,o),
(532,-569,cs,{
name = hr00;
})
);
}
);
width = 1690;
}
);
unicode = 355;
},
{
glyphname = u;
lastChange = "2022-01-21 13:11:03 +0000";
layers = (
{
anchors = (
{
name = bottom;
pos = (752,0);
},
{
name = bottomright;
pos = (1374,0);
},
{
name = top;
pos = (952,1453);
}
);
layerId = "586BE664-8D6A-4867-BE1B-390608DE01EA";
shapes = (
{
closed = 1;
nodes = (
(1374,0,l),
(1616,1453,l),
(1205,1453,l),
(1079,696,ls),
(1059,577,o),
(988,470,o),
(946,414,cs),
(881,329,o),
(814,282,o),
(718,282,cs,{
name = hr01;
}),
(591,282,o),
(549,377,o),
(549,453,cs),
(549,524,o),
(560,580,o),
(569,631,cs),
(707,1453,l),
(296,1453,l),
(166,679,ls),
(144,543,o),
(135,467,o),
(135,386,cs),
(135,161,o),
(248,-34,o),
(532,-34,cs),
(763,-34,o),
(895,110,o),
(1005,346,c,{
name = hr02;
}),
(1019,346,l),
(963,0,l)
);
}
);
width = 1690;
},
{
anchors = (
{
name = bottom;
pos = (735,0);
},
{
name = bottomright;
pos = (1287,0);
},
{
name = top;
pos = (957,1453);
}
);
layerId = "9AAD14F8-FE06-4230-ACE0-3E9D6F8A5A9E";
shapes = (
{
closed = 1;
nodes = (
(1287,0,l),
(1529,1453,l),
(1309,1453,l),
(1174,650,ls),
(1146,484,o),
(1039,355,o),
(1008,318,cs),
(926,222,o),
(828,161,o),
(701,161,cs,{
name = hr01;
}),
(538,161,o),
(459,268,o),
(459,439,cs),
(459,470,o),
(462,527,o),
(473,594,cs),
(617,1453,l),
(397,1453,l),
(251,574,ls),
(239,510,o),
(234,442,o),
(234,386,cs),
(234,121,o),
(386,-34,o),
(628,-34,cs),
(862,-34,o),
(1005,113,o),
(1112,344,c,{
name = hr02;
}),
(1124,344,l),
(1067,0,l)
);
}
);
width = 1690;
},
{
anchors = (
{
name = bottom;
pos = (710,0);
},
{
name = bottomright;
pos = (1200,0);
},
{
name = top;
pos = (952,1453);
}
);
layerId = "B042A474-670A-4404-9662-903C467C1F9E";
shapes = (
{
closed = 1;
nodes = (
(1200,0,l),
(1442,1453,l),
(1383,1453,l),
(1236,574,ls),
(1208,411,o),
(1121,276,o),
(1062,203,cs),
(955,68,o),
(817,20,o),
(684,20,cs,{
name = hr01;
}),
(465,20,o),
(346,135,o),
(346,366,cs),
(346,420,o),
(352,479,o),
(360,527,cs),
(515,1453,l),
(456,1453,l),
(301,524,ls),
(293,470,o),
(287,417,o),
(287,363,cs),
(287,113,o),
(425,-34,o),
(676,-34,cs),
(924,-34,o),
(1076,101,o),
(1186,321,c,{
name = hr02;
}),
(1194,321,l),
(1140,0,l)
);
}
);
width = 1690;
}
);
unicode = 117;
},
{
glyphname = uhorn;
lastChange = "2022-01-21 13:11:03 +0000";
layers = (
{
anchors = (
{
name = bottom;
pos = (780,0);
},
{
name = top;
pos = (960,1453);
}
);
layerId = "586BE664-8D6A-4867-BE1B-390608DE01EA";
shapes = (
{
closed = 1;
nodes = (
(763,-34,o),
(895,110,o),
(1005,346,c),
(1019,346,l),
(963,0,l,{
name = hr01;
}),
(1374,0,l),
(1577,1217,l),
(1605,1222,ls),
(1726,1247,o),
(1771,1346,o),
(1794,1487,cs),
(1842,1777,l),
(1495,1777,l),
(1439,1453,l),
(1205,1453,l),
(1079,696,ls),
(1059,577,o),
(988,470,o),
(946,414,cs),
(881,329,o),
(814,282,o),
(718,282,cs,{
name = hr02;
}),
(591,282,o),
(549,377,o),
(549,453,cs),
(549,524,o),
(560,580,o),
(569,631,cs),
(707,1453,l),
(296,1453,l),
(166,679,ls),
(144,543,o),
(135,467,o),
(135,386,cs),
(135,161,o),
(248,-34,o),
(532,-34,cs)
);
}
);
width = 1690;
},
{
anchors = (
{
name = bottom;
pos = (735,0);
},
{
name = top;
pos = (957,1453);
}
);
layerId = "9AAD14F8-FE06-4230-ACE0-3E9D6F8A5A9E";
shapes = (
{
closed = 1;
nodes = (
(862,-34,o),
(1005,113,o),
(1112,344,c),
(1124,344,l),
(1067,0,l,{
name = hr01;
}),
(1287,0,l),
(1504,1307,l),
(1571,1307,ls),
(1709,1307,o),
(1757,1385,o),
(1774,1481,cs),
(1822,1766,l),
(1628,1766,l),
(1577,1453,l),
(1309,1453,l),
(1174,650,ls),
(1146,484,o),
(1039,355,o),
(1008,318,cs),
(926,222,o),
(828,161,o),
(701,161,cs),
(538,161,o),
(459,268,o),
(459,439,cs),
(459,470,o),
(462,527,o),
(473,594,cs),
(617,1453,l),
(397,1453,l),
(251,574,ls),
(239,510,o),
(234,442,o),
(234,386,cs),
(234,121,o),
(386,-34,o),
(628,-34,cs)
);
}
);
width = 1690;
},
{
anchors = (
{
name = bottom;
pos = (710,0);
},
{
name = top;
pos = (952,1453);
}
);
layerId = "B042A474-670A-4404-9662-903C467C1F9E";
shapes = (
{
closed = 1;
nodes = (
(924,-34,o),
(1076,101,o),
(1186,321,c),
(1194,321,l),
(1140,0,l,{
name = hr01;
}),
(1200,0,l),
(1433,1402,l),
(1622,1402,ls),
(1681,1402,o),
(1712,1425,o),
(1721,1484,cs),
(1766,1766,l),
(1706,1766,l),
(1656,1453,l),
(1383,1453,l),
(1236,574,ls),
(1208,411,o),
(1121,276,o),
(1062,203,cs),
(955,68,o),
(817,20,o),
(684,20,cs),
(465,20,o),
(346,135,o),
(346,366,cs),
(346,420,o),
(352,479,o),
(360,527,cs),
(515,1453,l),
(456,1453,l),
(301,524,ls),
(293,470,o),
(287,417,o),
(287,363,cs),
(287,113,o),
(425,-34,o),
(676,-34,cs)
);
}
);
width = 1690;
}
);
unicode = 432;
},
